<svg xmlns="http://www.w3.org/2000/svg" width="48" height="48" viewBox="0 0 48 48">
    <circle data-name="타원 208" cx="20" cy="20" r="20" transform="translate(4 4)" style="fill:#e7eaef"/>
    <path data-name="합치기 4" d="M-8255.612-11099.5a1.9 1.9 0 0 1 1.95-1.854 1.9 1.9 0 0 1 1.947 1.854 1.9 1.9 0 0 1-1.947 1.854 1.9 1.9 0 0 1-1.95-1.854zm-.1-7.206v-11.535a1.9 1.9 0 0 1 1.948-1.856 1.9 1.9 0 0 1 1.948 1.856v11.535a1.9 1.9 0 0 1-1.948 1.854 1.9 1.9 0 0 1-1.951-1.848z" transform="translate(8277.715 11133.094)" style="fill:#868686"/>
</svg>
