<svg xmlns="http://www.w3.org/2000/svg" xmlns:xlink="http://www.w3.org/1999/xlink" width="48" height="48" viewBox="0 0 48 48">
    <defs>
        <linearGradient id="528lafvdya" y1=".5" x2="1" y2=".5" gradientUnits="objectBoundingBox">
            <stop offset=".049" stop-color="#feb9b8"/>
            <stop offset=".992" stop-color="#fea5a4"/>
        </linearGradient>
        <linearGradient id="rbnnfz9e3e" x1="0" y1=".5" x2="1" y2=".5" xlink:href="#528lafvdya"/>
        <linearGradient id="p7uhb28lwf" x1="0" y1=".5" x2="1" y2=".5" xlink:href="#528lafvdya"/>
        <linearGradient id="12n3kqyjwg" y1=".5" x2="1" y2=".5" gradientUnits="objectBoundingBox">
            <stop offset="0" stop-color="#afb3c4"/>
            <stop offset=".015" stop-color="#b7bacb"/>
            <stop offset=".043" stop-color="#bec1d1"/>
            <stop offset=".118" stop-color="#c0c3d3"/>
            <stop offset=".235" stop-color="#cacddd"/>
            <stop offset=".272" stop-color="#d4d5e1"/>
            <stop offset=".37" stop-color="#ece8ec"/>
            <stop offset=".431" stop-color="#f5f0f0"/>
        </linearGradient>
        <linearGradient id="pvko2snytb" y1=".5" x2="1" y2=".5" gradientUnits="objectBoundingBox">
            <stop offset=".041" stop-color="#cacddd"/>
            <stop offset=".262" stop-color="#cacddd"/>
            <stop offset=".321" stop-color="#d3d4e1"/>
            <stop offset=".503" stop-color="#ebe8eb"/>
            <stop offset=".614" stop-color="#f5f0f0"/>
            <stop offset=".641" stop-color="#f5f0f0"/>
            <stop offset=".868" stop-color="#f5f0f0"/>
        </linearGradient>
        <linearGradient id="w81qqmk7nh" x1="0" y1=".5" x2="1" y2=".5" xlink:href="#pvko2snytb"/>
        <linearGradient id="oaxl6blh8i" x1=".54" y1=".011" x2=".382" y2="1.017" gradientUnits="objectBoundingBox">
            <stop offset=".03" stop-color="#ece9ec"/>
            <stop offset=".273" stop-color="#f5f0f0"/>
            <stop offset=".582" stop-color="#f5f0f0"/>
            <stop offset=".619" stop-color="#f5f0f0"/>
            <stop offset=".697" stop-color="#ebe8eb"/>
            <stop offset=".826" stop-color="#d3d4e1"/>
            <stop offset=".868" stop-color="#cacddd"/>
            <stop offset=".959" stop-color="#cacddd"/>
        </linearGradient>
        <linearGradient id="4d90q4bkij" x1="1.059" y1=".926" x2=".074" y2=".034" gradientUnits="objectBoundingBox">
            <stop offset=".041" stop-color="#ebe8ec"/>
            <stop offset=".262" stop-color="#f5f0f0"/>
            <stop offset=".614" stop-color="#f5f0f0"/>
            <stop offset=".66" stop-color="#f5f2f2"/>
            <stop offset=".868" stop-color="#f5f5f5"/>
        </linearGradient>
        <linearGradient id="v9zskpwscc" x1="-3599.746" y1=".5" x2="-3598.746" y2=".5" gradientUnits="objectBoundingBox">
            <stop offset=".132" stop-color="#f5f0f0"/>
            <stop offset=".359" stop-color="#f5f0f0"/>
            <stop offset=".386" stop-color="#f5f0f0"/>
            <stop offset=".497" stop-color="#ebe8eb"/>
            <stop offset=".679" stop-color="#d3d4e1"/>
            <stop offset=".738" stop-color="#cacddd"/>
            <stop offset=".959" stop-color="#cacddd"/>
        </linearGradient>
        <linearGradient id="yamxjy6dvk" x1="0" y1=".5" x2="1" y2=".5" xlink:href="#v9zskpwscc"/>
        <linearGradient id="mcmrfy5b8l" y1=".5" x2="1" y2=".5" gradientUnits="objectBoundingBox">
            <stop offset=".327" stop-color="#afb3c4"/>
            <stop offset=".344" stop-color="#bcbfd0"/>
            <stop offset=".367" stop-color="#cacddd"/>
            <stop offset=".379" stop-color="#d4d5e1"/>
            <stop offset=".411" stop-color="#ece8ec"/>
            <stop offset=".431" stop-color="#f5f0f0"/>
        </linearGradient>
        <linearGradient id="k1zzcf19fm" x1="-93.167" y1="-79.096" x2="-92.228" y2="-79.096" xlink:href="#528lafvdya"/>
        <linearGradient id="gls9ogxf2n" x1="-64.8" y1="-59.957" x2="-63.985" y2="-59.957" xlink:href="#528lafvdya"/>
        <linearGradient id="lf8gt8fkjo" x1="-39.301" y1="-68.444" x2="-38.394" y2="-68.444" xlink:href="#528lafvdya"/>
        <clipPath id="3n5zmnhitd">
            <circle data-name="타원 281" cx="24" cy="24" r="24" transform="translate(92 1099)" style="fill:#398afa"/>
        </clipPath>
    </defs>
    <g data-name="Object / v3_img_48_fill_mission_dental" transform="translate(-92 -1099)">
        <path data-name="사각형 782" transform="translate(92 1099)" style="fill:transparent" d="M0 0h48v48H0z"/>
        <circle data-name="타원 279" cx="24" cy="24" r="24" transform="translate(92 1099)" style="fill:#6286fc"/>
        <g data-name="마스크 그룹 13" style="clip-path:url(#3n5zmnhitd)">
            <g data-name="그룹 2892">
                <path data-name="패스 17367" d="m463.613 180.2-13.284-7.669a5.5 5.5 0 0 0-2.716-.693 4.558 4.558 0 0 0-2.278.555l-22.179 12.8a2.334 2.334 0 0 0-.991-.991l-6.562-3.788a5.984 5.984 0 0 0-5.417-.006l-15.863 9.157c-1.492.862-1.487 2.263.011 3.128l6.562 3.788a6.08 6.08 0 0 0 4.553.379v.031a2.981 2.981 0 0 0 1.65 2.542l13.284 7.67a5.512 5.512 0 0 0 2.716.691 4.563 4.563 0 0 0 2.279-.555l38.474-22.212a2.637 2.637 0 0 0 1.413-2.29 2.982 2.982 0 0 0-1.652-2.537z" transform="translate(-330.739 978.558)" style="isolation:isolate;mix-blend-mode:multiply;fill:#d1d1d1"/>
                <g data-name="그룹 2891">
                    <g data-name="그룹 2846">
                        <path data-name="패스 17368" d="M423.788 156.505a4.46 4.46 0 0 1-.481-.686 2.382 2.382 0 0 1-.288-1.322v-6.345l.517.6v6.345a1.448 1.448 0 0 0 .222.641 1.433 1.433 0 0 0 .445.513l.493.285.644.98-.878-.52a3.069 3.069 0 0 1-.674-.491z" transform="translate(-324.823 973.858)" style="fill:#9ca2bd"/>
                        <path data-name="패스 17369" d="m425.073 156.434-2.587 1.493h-.46a1.459 1.459 0 0 1-.9-1.323c-.073-1.049.2-6.461.2-6.461l2.589-1.493-.2 6.121.431 1.185z" transform="translate(-325.201 973.956)" style="fill:#9ca2bd"/>
                        <path data-name="패스 17370" d="M421.119 154.512a6.138 6.138 0 0 1 2.785-2.132v-3.166h-.515l-2.064 1.5z" transform="translate(-325.2 974.068)" style="fill:#878e9a"/>
                        <path data-name="패스 17371" d="M421.629 157.751a4.368 4.368 0 0 1-.481-.684 2.384 2.384 0 0 1-.288-1.322V149.4l.515.594v6.346a1.8 1.8 0 0 0 .666 1.154l.494.284.644.98-.878-.519a3.052 3.052 0 0 1-.672-.488z" transform="translate(-325.252 974.105)" style="fill:#c4c8d8"/>
                        <path data-name="패스 17372" d="M438.245 166.684c-4.578-2.643-12.022-2.629-16.629.03s-4.628 6.957-.052 9.6 12.022 2.629 16.627-.03 4.631-6.958.054-9.6z" transform="translate(-325.79 977.144)" style="fill:#272727;isolation:isolate;mix-blend-mode:multiply"/>
                        <g data-name="그룹 2843">
                            <g data-name="그룹 2835">
                                <path data-name="패스 17373" d="M432.406 165.007a.385.385 0 0 1 .386-.038l.493.225-.585 1.584-.538-.243a.515.515 0 0 1-.244-.437 1.23 1.23 0 0 1 .488-1.091z" transform="translate(-323.058 977.188)" style="fill:#25242f"/>
                                <path data-name="패스 17374" d="M432.816 165.195c.308-.189.59-.011.629.4a1.231 1.231 0 0 1-.485 1.085c-.308.189-.59.011-.629-.4a1.228 1.228 0 0 1 .485-1.085z" transform="translate(-322.977 977.225)" style="fill:#393842"/>
                            </g>
                            <g data-name="그룹 2836">
                                <path data-name="패스 17375" d="M420 172.867a1.406 1.406 0 0 1 .638-1.1.447.447 0 0 1 .453-.044l.579.37-.94 1.532-.544-.348a.441.441 0 0 1-.186-.41z" transform="translate(-325.423 978.527)" style="fill:#25242f"/>
                                <path data-name="패스 17376" d="M420.467 173.167c0 .405.285.568.638.364a1.4 1.4 0 0 0 .639-1.1c0-.4-.285-.567-.639-.363a1.406 1.406 0 0 0-.638 1.099z" transform="translate(-325.33 978.587)" style="fill:#393842"/>
                            </g>
                            <g data-name="그룹 2837" transform="translate(113.729 1148.485)">
                                <path data-name="패스 17377" d="M435.98 170.98a.735.735 0 0 1 1.469-.046v.452h-.121a.736.736 0 0 1-1.228 0h-.123z" transform="translate(-435.98 -170.243)" style="fill:#25242f"/>
                                <circle data-name="타원 287" cx=".737" cy=".737" r=".737" transform="translate(.001 .406)" style="fill:#3c3b45"/>
                            </g>
                            <g data-name="그룹 2838">
                                <path data-name="패스 17378" d="M421.873 165.521a.452.452 0 0 1 .451.046 1.406 1.406 0 0 1 .638 1.1.452.452 0 0 1-.17.4l-.516.362-.9-1.556z" transform="translate(-325.15 977.297)" style="fill:#393842"/>
                                <path data-name="패스 17379" d="M421.213 166.227a1.406 1.406 0 0 0 .638 1.1c.352.2.639.041.639-.364a1.407 1.407 0 0 0-.639-1.1c-.351-.204-.638-.041-.638.364z" transform="translate(-325.182 977.355)" style="fill:#25242f"/>
                            </g>
                            <g data-name="그룹 2839">
                                <path data-name="패스 17380" d="M430.3 174.171c.022-.012.047.019.074.1a4.547 4.547 0 0 1 .138 1.137c0 .282-.029.434-.072.428l-.825.093-.144-1.674z" transform="translate(-323.542 979.021)" style="fill:#2a2934"/>
                                <path data-name="패스 17381" d="M429.549 174.351a4.548 4.548 0 0 1 .138 1.137c0 .4-.059.55-.134.326a4.532 4.532 0 0 1-.138-1.137c0-.404.06-.55.134-.326z" transform="translate(-323.554 979.036)" style="fill:#25242f"/>
                            </g>
                            <g data-name="그룹 2841">
                                <g data-name="그룹 2840">
                                    <path data-name="패스 17382" d="M427 168.482a3.054 3.054 0 0 0 2.765 0 .843.843 0 0 0 .01-1.6 3.054 3.054 0 0 0-2.765 0 .842.842 0 0 0-.01 1.6z" transform="translate(-324.146 977.51)" style="fill:#b2b7cc"/>
                                    <path data-name="패스 17383" d="m428.909 166.978 1.274 4.2.023.077v.022l.445 4.274a.3.3 0 0 1-.249.325.3.3 0 0 1-.339-.231l-.907-4.2.025.1-1.721-4.045z" transform="translate(-323.942 977.594)" style="fill:#d9dbe6"/>
                                    <path data-name="패스 17384" d="m428.169 166.578 7.086 1.323.094.017.058.049 3.092 2.653a.45.45 0 0 1 .049.635.114.114 0 0 1-.162.012l-3.347-2.872.15.066-7.2-.4z" transform="translate(-323.837 977.515)" style="fill:#d9dbe6"/>
                                    <path data-name="패스 17385" d="M438.454 171.287h-.007a.12.12 0 0 1-.077-.028l-3.273-2.81-5.985-.332-.324-1.069-.724.262.4-.681 1.529.285a7.451 7.451 0 0 0-.666.9l5.786.407 3.18 2.74a1.3 1.3 0 0 0 .161.326z" transform="translate(-323.822 977.525)" style="fill:#b2b7cc"/>
                                    <path data-name="패스 17386" d="m427.683 167.34 4.2-3.276.149-.116.153.066 1.889.816-.224.519-1.889-.816.3-.05-3.662 3.864z" transform="translate(-323.898 976.993)" style="fill:#c4c8d8"/>
                                    <path data-name="패스 17387" d="m428.84 168.583-4.8-3.573.256.013-2.27 1.012a.225.225 0 0 1-.3-.114.34.34 0 0 1 .173-.449l2.163-.964.11-.049.146.062 5.491 2.378z" transform="translate(-325.085 977.094)" style="fill:#d9dbe6"/>
                                    <path data-name="패스 17388" d="M421.73 165.85a.324.324 0 0 1-.03-.138.335.335 0 0 1 .044-.165c.07.144.2.254.272.255.126 0 2.048-.985 2.048-.985l.188.134.018.014 3.426 2.441-.135.15-3.411-2.54-2.12.944a.228.228 0 0 1-.3-.11z" transform="translate(-325.085 977.166)" style="fill:#b2b7cc"/>
                                    <path data-name="패스 17389" d="m429.886 168.133-6.382 1.731.121-.086-2.854 3.477a.19.19 0 0 1-.267.026.376.376 0 0 1-.052-.529l2.736-3.333.038-.048.083-.038 5.988-2.8z" transform="translate(-325.35 977.505)" style="fill:#d9dbe6"/>
                                    <path data-name="패스 17390" d="m431.547 175.558.013.072a.288.288 0 0 1-.09-.153l-.887-4.119-1.4-3.293-5.61 1.521-2.8 3.41a.19.19 0 0 1-.266.026.374.374 0 0 1-.137-.25c.175.368.391.107.391.107l2.77-3.432s5.2-1.564 5.338-1.6c.091-.024.193.054.265.109.042.035.074.06.092.06s.012.011.024.032c.186.306 1.353 2.768 1.493 3.08.148.33.804 4.43.804 4.43z" transform="translate(-325.35 977.766)" style="fill:#b2b7cc"/>
                                    <path data-name="패스 17391" d="M427 167.888a3.054 3.054 0 0 0 2.765 0 .843.843 0 0 0 .01-1.6 3.058 3.058 0 0 0-2.765 0 .842.842 0 0 0-.01 1.6z" transform="translate(-324.146 977.392)" style="fill:#d9dbe6"/>
                                </g>
                            </g>
                            <g data-name="그룹 2842">
                                <path data-name="패스 17392" d="M427.006 167.274v-2.826h.288c.028-.019.056-.038.086-.055a1.981 1.981 0 0 1 1.794 0c.032.019.062.038.091.059h.278v2.826a.639.639 0 0 1-.374.517 1.984 1.984 0 0 1-1.794 0 .624.624 0 0 1-.369-.521z" transform="translate(-324.032 977.038)" style="fill:#76757c"/>
                                <path data-name="패스 17393" d="M427.375 165.043a1.984 1.984 0 0 0 1.794 0 .548.548 0 0 0 0-1.037 1.984 1.984 0 0 0-1.794 0 .547.547 0 0 0 0 1.037z" transform="translate(-324.032 976.962)" style="fill:#5c5b63"/>
                                <path data-name="패스 17394" d="M432.591 163.57c-.466-.344-1.459-.7-.158-1.109s1.455-.914 1.509-.348.243.7-.08 1.083-.777.738-1.271.374z" transform="translate(-323.083 976.578)" style="fill:#878e9a"/>
                            </g>
                            <path data-name="패스 17395" d="M427.173 165.153V160h.242a.852.852 0 0 1 .073-.046 1.67 1.67 0 0 1 1.511 0 .928.928 0 0 1 .077.049h.234v5.155a.537.537 0 0 1-.315.435 1.67 1.67 0 0 1-1.511 0 .522.522 0 0 1-.311-.44z" transform="translate(-323.999 976.164)" style="fill:#c4c8d8"/>
                            <path data-name="패스 17396" d="M420.744 160.076v-1.6h1.989c.187-.132.386-.259.6-.382a13.712 13.712 0 0 1 12.409-.022 8.9 8.9 0 0 1 .626.4h1.925v1.6c-.014 1.291-.877 2.583-2.589 3.57a13.712 13.712 0 0 1-12.409.023c-1.717-.986-2.564-2.288-2.551-3.589z" transform="translate(-325.275 975.534)" style="fill:#b2b7cc"/>
                            <path data-name="패스 17397" d="M420.744 159.245v-1.6h1.989a7.63 7.63 0 0 1 .6-.381 13.712 13.712 0 0 1 12.409-.023 8.9 8.9 0 0 1 .626.4h1.925v1.6c-.014 1.292-.877 2.583-2.589 3.57a13.716 13.716 0 0 1-12.409.024c-1.717-.987-2.564-2.288-2.551-3.59z" transform="translate(-325.275 975.369)" style="fill:#6d534e"/>
                            <path data-name="패스 17398" d="M423.293 161.768a13.712 13.712 0 0 0 12.409-.023c3.437-1.985 3.455-5.192.039-7.164a13.716 13.716 0 0 0-12.409.023c-3.432 1.984-3.454 5.196-.039 7.164z" transform="translate(-325.275 974.841)" style="fill:#785e59"/>
                            <path data-name="패스 17399" d="M435.34 154.5a13 13 0 0 0-11.759.022c-3.257 1.88-3.274 4.92-.037 6.789a13 13 0 0 0 11.759-.022c3.257-1.876 3.274-4.915.037-6.789z" transform="translate(-325.199 974.841)" style="fill:#86716d"/>
                        </g>
                        <g data-name="그룹 2845">
                            <g data-name="그룹 2844">
                                <path data-name="패스 17400" d="M430.139 150.462c-.173.034-.793.038-.834.04h-.01c-.3.014-.587.042-.857.079a14.014 14.014 0 0 0-5.678 1.666c-2.191 1.264-3.371 3.06-3.266 4.938v.023-5.344c-.144-1.919 1.043-3.744 3.271-5.034a13.8 13.8 0 0 1 5.684-1.672v-.01l.724-.011 1-.031a1.009 1.009 0 0 1 1.032 1l-.06 3.5c-.005.587-.603.794-1.006.856z" transform="translate(-325.526 973.253)" style="fill:#86716d"/>
                                <path data-name="패스 17401" d="M420.477 157.713c0 .312-1 .28-1 .085v-3.028l.6-4.457 10.91-4.883a2.628 2.628 0 0 1 .514.713c.157.368-9.205 6.059-9.205 6.059l-1.3 2.095-.517 1.134z" transform="translate(-325.526 973.317)" style="fill:#86716d"/>
                                <path data-name="패스 17402" d="M430.454 150.937a2 2 0 0 1-.326.04h-.01a9.85 9.85 0 0 0-.858.079 14.039 14.039 0 0 0-5.678 1.667c-2.19 1.263-3.371 3.06-3.266 4.938v.023-5.344c-.144-1.919 1.041-3.744 3.271-5.034a13.8 13.8 0 0 1 5.683-1.672v-.01l.217-.011.938-.031a1.009 1.009 0 0 1 1.032 1v3.5c-.002.586-.6.792-1.003.855z" transform="translate(-325.363 973.347)" style="fill:#6d534e"/>
                            </g>
                        </g>
                    </g>
                    <g data-name="그룹 2848">
                        <g data-name="그룹 2847">
                            <path data-name="패스 17403" d="m443.777 148.949-.416.337-.167.133-1.794 1.136-2.614 2.084a13.952 13.952 0 0 1-2.818 1.152 1.99 1.99 0 0 1-1.554-1.219c-.222-.686-1.093-4.035-1.23-4.855a2.186 2.186 0 0 1-.019-.5 6.354 6.354 0 0 1 .378-1.6l1.1-1c.127.307 1.443 3.921 1.491 4.28a4.027 4.027 0 0 0 .174.718l.17.529 3.878-1.691 2.016-1.178s1.059.512 1.249.958a1.574 1.574 0 0 1 .156.716z" transform="translate(-322.81 973.156)" style="fill:url(#528lafvdya)"/>
                            <path data-name="패스 17404" d="m443.361 148.865-.167.133-1.794 1.136-2.614 2.084a13.952 13.952 0 0 1-2.818 1.152 1.99 1.99 0 0 1-1.554-1.219c-.222-.686-1.093-4.035-1.23-4.855a2.186 2.186 0 0 1-.019-.5.729.729 0 0 1 .279-.062c.406 0 .389.312.433.6.053.387.125.775.194 1.16.091.5.191.99.3 1.485a3.552 3.552 0 0 0 .193.809.428.428 0 0 0 .289.251.789.789 0 0 0 .4-.053 3.206 3.206 0 0 0 1.177-.718 6.665 6.665 0 0 1-.471 1.432.9.9 0 0 0-.127.49.837.837 0 0 0 .217.4.332.332 0 0 0 .137.119.337.337 0 0 0 .158.008 6.023 6.023 0 0 0 2.4-.731 8.977 8.977 0 0 0 1.091-.738q.261-.207.511-.423c.058-.05.44-.326.433-.391-.064-.593-.773-.926-.907-1.505a.15.15 0 0 1 .011-.125.156.156 0 0 1 .121-.049 5.414 5.414 0 0 1 1.408.219 1.544 1.544 0 0 0 1.353-.256.238.238 0 0 0 .211.231.631.631 0 0 0 .334-.064z" transform="translate(-322.81 973.577)" style="fill:#f2cbbc;isolation:isolate;mix-blend-mode:multiply"/>
                        </g>
                        <path data-name="패스 17405" d="M431.77 141.123a2.994 2.994 0 0 1 2.741 1.327 33.747 33.747 0 0 1 1.026 4.407 2.511 2.511 0 0 1-1.8 1.538c-1.27.308-1.707-2.363-1.707-2.363z" transform="translate(-323.086 972.455)" style="fill:#6087d0"/>
                        <path data-name="패스 17406" d="M428.226 134.211a2.916 2.916 0 0 0-2.639 1.248 4.222 4.222 0 0 0-.28 3 8.389 8.389 0 0 1 .28 3.05 6.666 6.666 0 0 1-.294.988 3.69 3.69 0 0 1-2.557 2.837c-.038.153.14.264.288.318.218.079.437.151.66.217a4.632 4.632 0 0 0 1.262.224 3.855 3.855 0 0 0 3.315-2.446 10.24 10.24 0 0 0 .61-4.285 4.725 4.725 0 0 1 .313-2.494c.473-.729.935-1.409.217-2.192a1.706 1.706 0 0 0-1.175-.465z" transform="translate(-324.88 971.089)" style="fill:#5b362a"/>
                        <path data-name="패스 17407" d="M430.813 156.844a30.723 30.723 0 0 1-1.058 3.118c-.793 2.118-1.735 4.467-1.735 4.467s-.449 11.54-.721 13.975a2.354 2.354 0 0 1-.072.425c-.256.616-3.563.36-3.716-.333s-1.153-11.019-1.026-12.095-.307-4.151-.2-6.482a7.09 7.09 0 0 1 1.564-4.151l6.407-2.127a7.63 7.63 0 0 1 .557 3.203z" transform="translate(-324.973 974.947)" style="fill:#6087d0"/>
                        <path data-name="패스 17408" d="M428.985 158.916c-.793 2.118-1.735 4.467-1.735 4.467s-.449 11.54-.721 13.975a.619.619 0 0 1-.052-.1 5.324 5.324 0 0 1-.146-1.587c0-.152 0-.3-.012-.441-.1-1.488-.213-2.978-.165-4.469.061-1.886.114-3.774.254-5.656a10.658 10.658 0 0 1 .134-1.209 22.289 22.289 0 0 1 1.156-3.36c.202-.568.623-1.536 1.287-1.62z" transform="translate(-324.203 975.994)" style="fill:#f2cbbc;isolation:isolate;mix-blend-mode:multiply"/>
                        <path data-name="패스 17409" d="M423.473 167.88a2.252 2.252 0 0 0 .191.76 1.166 1.166 0 0 0 1.721.321 2.2 2.2 0 0 0 .569-1.322 53.359 53.359 0 0 0 .835-8.443 2.934 2.934 0 0 0-1.161-2.815 1.6 1.6 0 0 0-2.042.436 4.062 4.062 0 0 0-.741 2.828 40.699 40.699 0 0 0 .147 3.873c.119 1.46.296 2.912.481 4.362z" transform="translate(-324.858 975.45)" style="fill:#5c8efa"/>
                        <path data-name="패스 17410" d="M428.619 157.392c-.23.436-1.195 5.98-1.195 5.98s-.342 12.29-.086 13.008 2.614.282 3.332 0a2.582 2.582 0 0 0 1.13-1.28l2.741-12.531s3.332-4.945 2.692-6.944-3.716-1.614-3.716-1.614z" transform="translate(-323.985 975.014)" style="fill:#6582ee"/>
                        <path data-name="패스 17411" d="M429.115 160.567a58.055 58.055 0 0 0-.215 8.543c0 .117.02.259.126.31.132.065.273-.066.362-.182a21.921 21.921 0 0 0 4.3-10.684 1.768 1.768 0 0 0-.05-.875 1.491 1.491 0 0 0-.557-.626c-.749-.53-2.193-1.128-2.849-.2a8.42 8.42 0 0 0-1.117 3.714z" transform="translate(-323.667 975.488)" style="fill:#6f84fc"/>
                        <path data-name="패스 17412" d="M436.364 153.673c-.03.121-.076.309-.127.548-.286 1.3-.838 4.034-1.076 4.857-.283.974-4.741 1.615-4.741 1.615l-4.022-.59s-2.222-.845-2.5-.9a1.331 1.331 0 0 1-.568-.385l.244-2.209a12.115 12.115 0 0 0 .845-3.249c-.128-.717-.8-3.653-1.231-5.477a5.039 5.039 0 0 1 .517-3.418 28.92 28.92 0 0 1 3.046-2.11 11.939 11.939 0 0 1 3.97-1.526 3.852 3.852 0 0 1 3.127.461c1.242.615 1.293 1.23 1.5 2.511a44.212 44.212 0 0 1 .784 5.433c-.027.851.2 2.311.262 3.376a3.85 3.85 0 0 1-.03 1.063z" transform="translate(-324.811 972.379)" style="fill:#75a5fb"/>
                        <path data-name="패스 17413" d="M427.881 146.99a1.87 1.87 0 0 0 .343 1.479 6.576 6.576 0 0 0 1.541 1.734 2.006 2.006 0 0 0 .6.355 2.387 2.387 0 0 0 .821.073 3.85 3.85 0 0 0 3.44-1.337 1.22 1.22 0 0 0 .264-1.876 9.716 9.716 0 0 1-.66-1.122c-.119-.29-.109-.635-.425-.807a.733.733 0 0 0-.334-.078 2.247 2.247 0 0 0-1.025.316c-1.453.735-2.864 1.591-4.565 1.263z" transform="translate(-323.868 973.314)" style="fill:#93b4ff"/>
                        <path data-name="패스 17414" d="M427.847 139.669a2.784 2.784 0 0 1-.2 1.934c-.245.282-1.333 1.115-1.346 1.371a8.97 8.97 0 0 0 2.7 2.589c1.115.64 1.755.986 2.383.563a2.408 2.408 0 0 0 .731-1.948 9.278 9.278 0 0 0-.423-1.934l-.2-2.012z" transform="translate(-324.173 972.174)" style="fill:url(#rbnnfz9e3e)"/>
                        <path data-name="패스 17415" d="m432.4 141.469-.563 1.409-.043.132a17.312 17.312 0 0 0-.52 2.034c-.019.135-.191.237-.417.313a3.7 3.7 0 0 1-1.133.149 5.154 5.154 0 0 1-2.256-1.36 4.417 4.417 0 0 1-.615-1.357c-.008-.164.514-.457.6-.709a2.435 2.435 0 0 0 .286-1.367 4.671 4.671 0 0 1 .04-1.383l2.857-1.626z" transform="translate(-324.062 971.783)" style="fill:url(#p7uhb28lwf)"/>
                        <path data-name="패스 17416" d="M431.321 142.247a17.306 17.306 0 0 0-.52 2.034c-.019.135-.191.237-.417.313l.017-.041a1.239 1.239 0 0 0 0-1.142 1.531 1.531 0 0 0-.412-.356l-.594-.4a.35.35 0 0 1-.153-.158.336.336 0 0 1 .012-.2c.078-.271.174-.646.483-.726a1.419 1.419 0 0 1 1.079.268 2.137 2.137 0 0 1 .505.408z" transform="translate(-323.591 972.546)" style="fill:#f2cbbc;isolation:isolate;mix-blend-mode:multiply"/>
                        <path data-name="패스 17417" d="M436.02 152.2c-.03.121-.076.309-.127.548a4.831 4.831 0 0 1-1.867.61 6.519 6.519 0 0 0-1.82.254c-.268.114-.508.282-.779.386a3.215 3.215 0 0 1-1.812 0 8.16 8.16 0 0 1-2.233-.775 3.992 3.992 0 0 1-1.662-1.642 24.427 24.427 0 0 1-.833-2.779c-.151-.429-.091-.674.418-.7a1.479 1.479 0 0 1 1.151.552 11.484 11.484 0 0 0 1.681 1.375 7.141 7.141 0 0 1 .99.729c.2.194.37.418.578.6a4.267 4.267 0 0 0 1.488.747 5.727 5.727 0 0 0 1.267.334 4 4 0 0 0 1.817-.306 8.332 8.332 0 0 0 1.777-.989 3.848 3.848 0 0 1-.034 1.056z" transform="translate(-324.467 973.847)" style="fill:#c9dcff;isolation:isolate;mix-blend-mode:multiply"/>
                        <path data-name="패스 17418" d="M429.326 139.861a26.639 26.639 0 0 0-.475 2.677c.013.5.27.712.9 1.015a8.3 8.3 0 0 0 2.832.856c.5-.1 1.281-1.729 1.281-1.729s.692-.038.795-.193a11.294 11.294 0 0 0-.344-1.831c-.014-.218.126-1.359.087-2.191a2 2 0 0 0-.9-1.614 19.86 19.86 0 0 0-3.28.448z" transform="translate(-323.665 971.61)" style="fill:url(#528lafvdya)"/>
                        <path data-name="패스 17419" d="M434.087 140.5c-.495.25-.461.463-.88.7a9.386 9.386 0 0 1-2.442.151 12.554 12.554 0 0 0-.077 2.024 4.507 4.507 0 0 0 1.684.358c.392-.008 2.015-1.924 2.04-2.021a10.563 10.563 0 0 0-.325-1.212z" transform="translate(-323.307 972.339)" style="fill:#eee"/>
                        <path data-name="패스 17420" d="M431.35 141.588a11.715 11.715 0 0 1-2.686-1.743c-.321-.29 0 .248 0 .248a7.4 7.4 0 0 0 2.686 1.691c.069-.043 0-.196 0-.196z" transform="translate(-323.731 972.192)" style="fill:#eee"/>
                        <path data-name="패스 17421" d="M431.279 142.878a6.441 6.441 0 0 1-2.7-1.814c-.212-.5-.289-.4-.289-.4s-.215.014.2.587a6.926 6.926 0 0 0 2.82 1.819c.098-.063-.031-.192-.031-.192z" transform="translate(-323.788 972.37)" style="fill:#eee"/>
                        <path data-name="패스 17422" d="M430.334 141.813a6.654 6.654 0 0 1 .72-.672 3.871 3.871 0 0 1 .741-1.237c.41-.358 1.755-1.2 1.948-1.371a5.574 5.574 0 0 1 .781-.4 2.9 2.9 0 0 0 .2-.21s-.09-.982-.475-1.276a8.315 8.315 0 0 0-2.741-1.538 6.564 6.564 0 0 0-2.3-.436 3.96 3.96 0 0 0-2.416 1.614 10.024 10.024 0 0 0-.82 1.954 4.933 4.933 0 0 0-.167 1.826 2.388 2.388 0 0 0 1 1.448 3.639 3.639 0 0 1 .781.513l.072.648.454-.284.473-.929.718-.2.531.077z" transform="translate(-324.277 971.182)" style="fill:#5b362a"/>
                        <path data-name="패스 17423" d="M429.028 141.444c-.307.052-.7-.268-.923-.64s-.2-1.1.1-1.282a.551.551 0 0 1 .82.308 2.844 2.844 0 0 1 .077 1.124z" transform="translate(-323.843 972.128)" style="fill:#feb9b8"/>
                    </g>
                    <g data-name="그룹 2862">
                        <path data-name="패스 17424" d="m418.359 152.79-22.712 5.373v36.17a2.081 2.081 0 0 0 1.237 1.653l2.6 1.5a5.63 5.63 0 0 0 5.062.21l12.93-7.465a1.507 1.507 0 0 0 .874-1.266z" transform="translate(-330.255 974.778)" style="fill:url(#12n3kqyjwg)"/>
                        <path data-name="패스 17425" d="m404.553 162.17 12.93-7.465c1.3-.749 1.135-2.058-.363-2.923l-2.6-1.5a5.63 5.63 0 0 0-5.062-.21l-12.93 7.465c-1.3.749-1.135 2.058.363 2.923l2.6 1.5a5.63 5.63 0 0 0 5.062.21z" transform="translate(-330.255 974.138)" style="fill:#e5e3e9"/>
                        <path data-name="패스 17426" d="M402.306 162.2a5.626 5.626 0 0 1-2.73-.68l-2.607-1.505a1.846 1.846 0 0 1-1.1-1.418 1.24 1.24 0 0 1 .741-1.033l12.943-7.474a4.233 4.233 0 0 1 2.065-.47 5.605 5.605 0 0 1 2.729.681l2.607 1.5a1.845 1.845 0 0 1 1.1 1.418 1.241 1.241 0 0 1-.739 1.034l-12.945 7.472a4.211 4.211 0 0 1-2.064.47z" transform="translate(-330.212 974.148)" style="fill:#f5f5f5"/>
                        <g data-name="그룹 2849">
                            <path data-name="패스 17427" d="M411.43 153.514v-2.679h-5.036v2.692a1.232 1.232 0 0 0 .731 1.035 3.937 3.937 0 0 0 3.561-.006 1.255 1.255 0 0 0 .744-1.042z" transform="translate(-328.123 974.39)" style="fill:url(#pvko2snytb)"/>
                            <path data-name="패스 17428" d="M401.482 159.358a3.074 3.074 0 0 0 2.785 0 .849.849 0 0 0 .008-1.608 3.078 3.078 0 0 0-2.785.006.848.848 0 0 0-.008 1.602z" transform="translate(-329.211 975.696)" style="fill:#c4c7d7"/>
                            <path data-name="패스 17429" d="M403.731 157.94a2.106 2.106 0 0 0-1.906 0 .581.581 0 0 0-.006 1.1 2.11 2.11 0 0 0 1.906 0 .581.581 0 0 0 .006-1.1z" transform="translate(-329.108 975.755)" style="fill:#e5e7ec"/>
                            <path data-name="패스 17430" d="M398.283 157.512a3.078 3.078 0 0 0 2.785-.006.848.848 0 0 0 .01-1.607 3.074 3.074 0 0 0-2.785 0 .849.849 0 0 0-.01 1.613z" transform="translate(-329.846 975.329)" style="fill:#c4c7d7"/>
                            <path data-name="패스 17431" d="M400.678 156.041a2.367 2.367 0 0 0-2.14 0 .652.652 0 0 0-.007 1.236 2.367 2.367 0 0 0 2.14 0 .652.652 0 0 0 .007-1.236z" transform="translate(-329.77 975.373)" style="fill:#e5e7ec"/>
                            <path data-name="사각형 1041" transform="translate(73.554 1125.053)" style="fill:#bec7ab" d="M0 0h8.057v2.675H0z"/>
                            <path data-name="패스 17432" d="m413.506 148.965-8.057.034v2.677a1.994 1.994 0 0 0 1.168 1.613 6.3 6.3 0 0 0 5.7-.01 1.912 1.912 0 0 0 1.173-1.849h.016z" transform="translate(-328.31 974.019)" style="fill:url(#pvko2snytb)"/>
                            <path data-name="패스 17433" d="m403.133 152.515 2.353-1.359 2.075.781 3.22-.584.049 2.109-3.03 1.748a4.333 4.333 0 0 1-3.9-.162l-.49-.283c-1.152-.665-1.277-1.673-.277-2.25z" transform="translate(-328.904 974.454)" style="fill:url(#w81qqmk7nh)"/>
                            <path data-name="패스 17434" d="M412.335 147.7a6.3 6.3 0 0 0-5.7.011c-1.578.911-1.587 2.384-.018 3.289a6.3 6.3 0 0 0 5.7-.01c1.583-.911 1.583-2.384.018-3.29z" transform="translate(-328.31 973.634)" style="fill:#dce1d2"/>
                            <path data-name="패스 17435" d="M407.214 151.131c-.968-.558-1.335-1.334-1.1-2.059l-2.978 1.719c-1 .578-.875 1.586.279 2.252l.49.283a4.337 4.337 0 0 0 3.9.162l2.978-1.72a6.1 6.1 0 0 1-3.569-.637z" transform="translate(-328.904 974.04)" style="fill:#f3f2f4"/>
                        </g>
                        <g data-name="그룹 2858">
                            <g data-name="그룹 2850">
                                <path data-name="패스 17436" d="M384.848 146.151h-.816v-1.779c0-2.143.747-3.754 2.1-4.535s3.153-.624 5.035.461l-.408.707c-1.619-.935-3.117-1.1-4.22-.463s-1.692 1.989-1.692 3.829z" transform="translate(-332.56 972.11)" style="fill:#cacddd"/>
                            </g>
                            <path data-name="패스 17437" d="m385.749 139.956-1.021.576 2.04-.029 2.942.521 1.32-.762a11.261 11.261 0 0 0-3.045-.721 3.547 3.547 0 0 0-2.236.415z" transform="translate(-332.422 972.146)" style="fill:#cacddd"/>
                            <path data-name="패스 17438" d="m385.006 145.921-1.32.762-.452-1.727s0-2.257.6-3.006a7.34 7.34 0 0 1 2.178-1.449v.308a4.283 4.283 0 0 0-1.171 1.709 16.267 16.267 0 0 0 .165 3.403z" transform="translate(-332.719 972.34)" style="fill:#cacddd"/>
                            <g data-name="그룹 2851">
                                <path data-name="패스 17439" d="M383.747 146.787h-.816v-1.78c0-2.142.745-3.752 2.1-4.535s3.153-.623 5.035.463l-.407.707c-1.619-.935-3.117-1.1-4.22-.463s-1.692 1.989-1.692 3.828z" transform="translate(-332.779 972.237)" style="fill:#e2e0e7"/>
                            </g>
                            <g data-name="그룹 2854">
                                <g data-name="그룹 2852">
                                    <path data-name="패스 17440" d="M392.121 141.784c3.283 1.819 4.8 6.654 3.39 10.8s-5.213 6.031-8.5 4.21-4.8-6.654-3.39-10.8 5.218-6.031 8.5-4.21z" transform="translate(-332.746 972.457)" style="fill:#d9d7e0"/>
                                </g>
                                <g data-name="그룹 2853">
                                    <path data-name="패스 17441" d="M389.529 144.508c1.828 1.013 2.673 3.706 1.888 6.014s-2.9 3.358-4.732 2.345-2.673-3.707-1.888-6.015 2.903-3.358 4.732-2.344z" transform="translate(-332.467 973.058)" style="fill:#e3e1e8"/>
                                </g>
                                <path data-name="패스 17442" d="M393.631 141.748a5.33 5.33 0 0 0-2.685-.693l-2.56.043a5.306 5.306 0 0 1 2.685.693c3.283 1.819 4.8 6.654 3.39 10.8-1.033 3.038-3.353 4.862-5.81 4.9l2.559-.042c2.458-.041 4.778-1.865 5.811-4.9 1.411-4.149-.107-8.982-3.39-10.801z" transform="translate(-331.697 972.45)" style="fill:url(#oaxl6blh8i)"/>
                            </g>
                            <g data-name="그룹 2855">
                                <path data-name="패스 17443" d="m390.914 143.208-3.2-1.848v-1.366l3.2 1.848z" transform="translate(-331.83 972.239)" style="fill:#e2e0e7"/>
                            </g>
                            <g data-name="그룹 2857">
                                <path data-name="패스 17444" d="m390.914 141.968-3.2-1.848 1.32-.762 3.2 1.848z" transform="translate(-331.83 972.113)" style="fill:#e5e7ec"/>
                                <path data-name="패스 17445" d="M390.384 141.662v1.366l1.32-.762V140.9z" transform="translate(-331.3 972.419)" style="fill:#dcdbe5"/>
                                <path data-name="패스 17446" d="M397.435 152.023a13.563 13.563 0 0 0-1.967-6.6 14.5 14.5 0 0 0-3.764-4.346l-1.319.762a32.049 32.049 0 0 1 3.833 5.191 27.506 27.506 0 0 1 1.581 5.064l.316 2.471 1.32-.762z" transform="translate(-331.3 972.454)" style="fill:url(#4d90q4bkij)"/>
                                <g data-name="그룹 2856">
                                    <path data-name="패스 17447" d="M396.114 152.659v1.779h-.814v-1.779a14.142 14.142 0 0 0-4.914-9.906v-1.041a14.524 14.524 0 0 1 3.764 4.347 13.573 13.573 0 0 1 1.964 6.6z" transform="translate(-331.3 972.58)" style="fill:#e2e0e7"/>
                                </g>
                            </g>
                        </g>
                        <g data-name="그룹 2859">
                            <path data-name="패스 17448" d="M390.646 140.8v-2.524h-.2l-.061-.04a1.408 1.408 0 0 0-1.27 0 .649.649 0 0 0-.063.042h-.2v2.522a.453.453 0 0 0 .266.366 1.4 1.4 0 0 0 1.269 0 .442.442 0 0 0 .259-.366z" transform="translate(-331.605 971.859)" style="fill:url(#v9zskpwscc)"/>
                            <path data-name="패스 17449" d="M390.945 139.416a2.365 2.365 0 0 0-2.139 0c-.593.343-.6.9-.007 1.236a2.364 2.364 0 0 0 2.14 0 .652.652 0 0 0 .006-1.236z" transform="translate(-331.702 972.074)" style="fill:#e5e7ec"/>
                            <path data-name="패스 17450" d="M390.384 138.694a1.405 1.405 0 0 1-1.269 0c-.352-.2-.355-.532 0-.733a1.4 1.4 0 0 1 1.27 0 .387.387 0 0 1-.001.733z" transform="translate(-331.605 971.805)" style="fill:#e5e3e9"/>
                            <path data-name="패스 17451" d="M390.315 138.615a1.28 1.28 0 0 1-1.158 0c-.321-.186-.322-.485 0-.669a1.276 1.276 0 0 1 1.158 0 .352.352 0 0 1 0 .669z" transform="translate(-331.591 971.805)" style="fill:#f5f5f5"/>
                            <path data-name="패스 17452" d="M389.953 138.406a.629.629 0 0 1-.572 0 .175.175 0 0 1 0-.331.635.635 0 0 1 .573 0c.155.093.157.24-.001.331z" transform="translate(-331.523 971.844)" style="fill:#babdcc"/>
                        </g>
                        <g data-name="그룹 2860">
                            <path data-name="패스 17453" d="M406.376 163.478h-3.025V124.59l-27.182 15.775 10.494 3.455a.393.393 0 0 0 .324-.034l4.7-2.715v-1.6a2.027 2.027 0 0 1 2.19-2.021l3.067.247a1.821 1.821 0 0 1 .763 3.393l-2.995 1.729v.733h-1.272l-4.944 2.855a3.427 3.427 0 0 1-2.782.286l-12.792-4.211a1.938 1.938 0 0 1-.367-3.518l29.515-17.128a2.866 2.866 0 0 1 4.3 2.478z" transform="translate(-335.029 968.557)" style="fill:#e5e7ec"/>
                        </g>
                        <g data-name="그룹 2861">
                            <path data-name="패스 17454" d="M405.827 162.243h-.844v-38.118a1.834 1.834 0 0 0-1-1.227 1.271 1.271 0 0 0-1.122-.2l-29.385 17.053 12.792 4.221a1.492 1.492 0 0 0 1.21-.126l8.9-5.135-2.976-.241c-.264 0-.338.454-.338.518v1.133h-.844v-1.133a1.309 1.309 0 0 1 1.215-1.36l3.372.272a.729.729 0 0 1 .307 1.359l-9.211 5.319a2.335 2.335 0 0 1-1.9.2l-12.791-4.211a.848.848 0 0 1-.161-1.539l29.385-17.053a1.983 1.983 0 0 1 1.965.2 2.6 2.6 0 0 1 1.425 1.958z" transform="translate(-334.824 968.625)" style="fill:#f0f1f4"/>
                        </g>
                        <path data-name="패스 17455" d="M412.335 147.7a6.3 6.3 0 0 0-5.7.011c-1.578.911-1.587 2.384-.018 3.289a6.3 6.3 0 0 0 5.7-.01c1.583-.911 1.583-2.384.018-3.29z" transform="translate(-328.31 973.634)" style="fill:#f5f5f5"/>
                        <path data-name="패스 17456" d="M412.171 150.282a2.674 2.674 0 0 1-.478.348 5.177 5.177 0 0 1-4.684.008 2.58 2.58 0 0 1-.463-.334c-.8-.737-.64-1.725.477-2.371a5.179 5.179 0 0 1 4.685-.008c1.106.638 1.259 1.619.463 2.357z" transform="translate(-328.191 973.702)" style="fill:#e5e3e9"/>
                        <path data-name="패스 17457" d="M407.024 149.348a5.179 5.179 0 0 1 4.685-.008 2.148 2.148 0 0 1 .721.646c.479-.689.241-1.505-.721-2.06a5.179 5.179 0 0 0-4.685.008c-.973.562-1.219 1.384-.737 2.075a2.206 2.206 0 0 1 .737-.661z" transform="translate(-328.191 973.702)" style="fill:url(#yamxjy6dvk)"/>
                    </g>
                    <g data-name="그룹 2875">
                        <g data-name="그룹 2863">
                            <path data-name="패스 17458" d="m443.209 175.948-7.282-3.579 6.038-12.954 7.282 3.579z" transform="translate(-322.26 976.093)" style="fill:#6b7292"/>
                            <path data-name="패스 17459" d="m443.7 174.849-2.4.786 6.037-12.954 2.4-.786z" transform="translate(-321.193 976.585)" style="fill:#959ab1"/>
                        </g>
                        <g data-name="그룹 2868">
                            <g data-name="그룹 2865">
                                <g data-name="그룹 2864">
                                    <path data-name="패스 17460" d="m443.434 147.878 1.649.7 11.155 6.441-1.649-.7z" transform="translate(-320.77 973.804)" style="fill:#e6e4e9"/>
                                    <path data-name="패스 17461" d="m450.91 159.383 1.649.7-1.6 3.04-1.649-.7z" transform="translate(-319.603 976.087)" style="fill:#e6e4e9"/>
                                    <path data-name="패스 17462" d="m446.4 169.171 1.649.7-1.6 2.007-1.649-.7z" transform="translate(-320.5 978.03)" style="fill:#e6e4e9"/>
                                    <path data-name="패스 17463" d="m448 166.2 1.649.7-1.871 3.563-1.649-.7z" transform="translate(-320.235 977.44)" style="fill:#e6e4e9"/>
                                    <path data-name="패스 17464" d="m449.635 161.919 1.649.7-1.942 5.128-1.649-.7z" transform="translate(-319.925 976.591)" style="fill:#e6e4e9"/>
                                    <path data-name="패스 17465" d="m452.212 157.182 1.649.7-1.566 2.638-1.649-.7z" transform="translate(-319.339 975.651)" style="fill:#e6e4e9"/>
                                    <path data-name="패스 17466" d="m452.742 153.252 1.649.7.354 2.234-1.649-.7z" transform="translate(-318.923 974.871)" style="fill:#e6e4e9"/>
                                    <path data-name="패스 17467" d="m453.253 155.116 1.649.7-1.3 2.476-1.649-.7z" transform="translate(-319.079 975.241)" style="fill:#e6e4e9"/>
                                </g>
                                <path data-name="패스 17468" d="m442.5 147.482 1.649.7 11.155 6.44-1.649-.7z" transform="translate(-320.955 973.726)" style="fill:#566cbb"/>
                                <path data-name="패스 17469" d="m449.98 158.987 1.649.7-1.6 3.04-1.649-.7z" transform="translate(-319.788 976.009)" style="fill:#566cbb"/>
                                <path data-name="패스 17470" d="m445.468 168.775 1.649.7-1.6 2.007-1.649-.7z" transform="translate(-320.685 977.952)" style="fill:#566cbb"/>
                                <path data-name="패스 17471" d="m447.074 165.8 1.649.7-1.871 3.563-1.649-.7z" transform="translate(-320.42 977.361)" style="fill:#566cbb"/>
                                <path data-name="패스 17472" d="m448.705 161.523 1.649.7-1.941 5.128-1.649-.7z" transform="translate(-320.11 976.512)" style="fill:#566cbb"/>
                                <path data-name="패스 17473" d="m451.282 156.786 1.649.7-1.566 2.638-1.649-.7z" transform="translate(-319.524 975.572)" style="fill:#566cbb"/>
                                <path data-name="패스 17474" d="m451.812 152.856 1.649.7.354 2.234-1.649-.7z" transform="translate(-319.108 974.792)" style="fill:#566cbb"/>
                                <path data-name="패스 17475" d="m455.776 153.942.354 2.234-1.3 2.476-1.565 2.638-1.6 3.041-1.942 5.127-1.872 3.563-1.6 2.007-13.529-7.812-.784-2.622a2.364 2.364 0 0 1 .171-1.774l.682-1.3a8.967 8.967 0 0 1 1.927-2.486l2.9-2.619 1.6-3.04.265-3.166a1.978 1.978 0 0 1 .222-.762l.521-.994a2 2 0 0 1 1.858-1.068l2.541.113z" transform="translate(-323.072 973.707)" style="fill:#76a2f1"/>
                                <path data-name="패스 17476" d="m432.613 166.886 11.4-19.054 10.937 6.314-9.22 20.314z" transform="translate(-322.918 973.795)" style="fill:#94bbff"/>
                                <path data-name="패스 17477" d="m452.322 154.72 1.649.7-1.3 2.476-1.649-.7z" transform="translate(-319.265 975.162)" style="fill:#566cbb"/>
                            </g>
                            <g data-name="그룹 2867">
                                <path data-name="패스 17478" d="m453.732 148.657-.023-.127a2.338 2.338 0 0 0-1.125-1.636l-2.984-1.722-.9-.418 2.984 1.723a2.337 2.337 0 0 1 1.126 1.635l.022.128a2.381 2.381 0 0 1-.247 1.527l-.784 1.456a2.256 2.256 0 0 1-.481.614 2.189 2.189 0 0 1-2.395.369l.9.417a2.188 2.188 0 0 0 2.395-.368 2.324 2.324 0 0 0 .482-.614l.783-1.456a2.376 2.376 0 0 0 .247-1.528z" transform="translate(-319.727 973.184)" style="fill:#e6e4e9"/>
                                <path data-name="패스 17479" d="m453.282 148.45-.022-.128a2.339 2.339 0 0 0-1.125-1.635l-2.984-1.723-.9-.417 2.984 1.723a2.33 2.33 0 0 1 1.125 1.635l.023.128a2.38 2.38 0 0 1-.247 1.527l-.784 1.456a2.275 2.275 0 0 1-.481.614 2.189 2.189 0 0 1-2.395.368l.9.418a2.191 2.191 0 0 0 2.395-.369 2.286 2.286 0 0 0 .482-.614l.783-1.456a2.365 2.365 0 0 0 .246-1.527z" transform="translate(-319.816 973.143)" style="fill:#566cbb"/>
                                <g data-name="그룹 2866">
                                    <path data-name="패스 17480" d="M451.932 146.32a2.33 2.33 0 0 1 1.125 1.635l.023.128a2.38 2.38 0 0 1-.247 1.527l-.784 1.456a2.276 2.276 0 0 1-.481.614 2.19 2.19 0 0 1-2.577.274l-3.123-1.8a2.377 2.377 0 0 1-.88-3.16l.784-1.456a2.257 2.257 0 0 1 1.124-1.021l.116-.048a2.192 2.192 0 0 1 1.934.132z" transform="translate(-320.518 973.093)" style="fill:#80a9f2"/>
                                    <path data-name="패스 17481" d="M449.749 151.638a1.8 1.8 0 0 1-.9-.242l-3.122-1.8a1.957 1.957 0 0 1-.931-2 1.917 1.917 0 0 1 .207-.616l.783-1.456a1.855 1.855 0 0 1 .92-.837l.114-.047a1.771 1.771 0 0 1 .678-.135 1.8 1.8 0 0 1 .9.242l2.984 1.723a1.917 1.917 0 0 1 .926 1.348l.023.129a1.979 1.979 0 0 1-.2 1.263l-.784 1.456a1.871 1.871 0 0 1-.4.5 1.785 1.785 0 0 1-1.198.472z" transform="translate(-320.505 973.135)" style="fill:#94bbff"/>
                                </g>
                            </g>
                        </g>
                        <g data-name="그룹 2874">
                            <path data-name="패스 17482" d="m455.287 183.409-.489.087a2.2 2.2 0 0 0-.313-.214l-13.213-7.629a3.668 3.668 0 0 0-3.29-.135l-27.65 15.962-1.107.2v.94a1.35 1.35 0 0 0 .8 1.074l13.213 7.628a3.673 3.673 0 0 0 3.29.137l28.19-16.276a.976.976 0 0 0 .564-.819z" transform="translate(-327.56 979.224)" style="fill:url(#mcmrfy5b8l)"/>
                            <path data-name="패스 17483" d="m409.792 191 28.19-16.276a3.673 3.673 0 0 1 3.29.137l13.213 7.628c.97.56 1.075 1.415.236 1.9l-28.19 16.276a3.672 3.672 0 0 1-3.29-.137l-13.213-7.628c-.97-.559-1.076-1.414-.236-1.9z" transform="translate(-327.56 979.067)" style="fill:#e5e3e9"/>
                            <path data-name="패스 17484" d="M451.06 183.827v-6.773l-3.636-4.119-19.953 6.9-5.135 9.736v10.844z" transform="translate(-324.958 978.776)" style="fill:#ebe8ec"/>
                            <path data-name="패스 17485" d="m449.76 172.934 3.636 4.119-28.725 16.584-14.107-8.255 15.079-8.71z" transform="translate(-327.294 978.776)" style="fill:#f5f0f0"/>
                            <path data-name="패스 17486" d="M439.841 175.126 424.728 193.2v6.774l-14.448-8.058 11.863-6.853z" transform="translate(-327.351 979.211)" style="fill:#b7bacb"/>
                            <g data-name="그룹 2873">
                                <g data-name="그룹 2869">
                                    <path data-name="패스 17487" d="m448.628 173.067-2.709.61-10.588-6.112a1.922 1.922 0 0 0-1.957.02l-13.694 7.353 14.129 8.158 14.575-8.116a.474.474 0 0 0 .244-.415z" transform="translate(-325.486 977.659)" style="fill:#e6e4e9"/>
                                    <path data-name="패스 17488" d="m448.628 171.765-2.709.61-10.588-6.113a1.924 1.924 0 0 0-1.957.022l-13.694 7.353 14.129 8.158 14.575-8.116a.476.476 0 0 0 .244-.415z" transform="translate(-325.486 977.401)" style="fill:#566cbb"/>
                                    <path data-name="패스 17489" d="m433.81 179.294-.007 2.433-14.129-8.157.007-2.433z" transform="translate(-325.487 978.42)" style="fill:#dadada"/>
                                    <path data-name="패스 17490" d="m435.331 164.233 13.058 7.538a.476.476 0 0 1-.006.828l-14.575 8.117-14.129-8.158 13.694-8.305a1.922 1.922 0 0 1 1.958-.02z" transform="translate(-325.486 976.998)" style="fill:#7aa1eb"/>
                                    <path data-name="패스 17491" d="m419.781 172.607 13.579-8.241a1.917 1.917 0 0 1 1.956-.022l12.223 7.057a.476.476 0 0 1-.007.828l-14.448 8.057z" transform="translate(-325.465 977.02)" style="fill:#94bbff"/>
                                </g>
                                <g data-name="그룹 2872">
                                    <g data-name="그룹 2871" style="isolation:isolate">
                                        <path data-name="패스 17492" d="m436.524 178.938-13.362-6-15.912 16.318-1.251-.1.743 2.083a.695.695 0 0 0 .023.064l.011.03a1.807 1.807 0 0 0 .779.894l8.519 4.919a3.882 3.882 0 0 0 4.589-.524l16.627-15.524z" transform="translate(-328.2 978.776)" style="fill:#e6e4e9"/>
                                        <path data-name="패스 17493" d="m436.577 179.088-13.685-6.91L406.98 188.5l-1.251-.1.743 2.083a.695.695 0 0 0 .023.064l.011.03a1.807 1.807 0 0 0 .779.894l8.519 4.919a3.88 3.88 0 0 0 4.588-.524l16.628-15.524z" transform="translate(-328.254 978.626)" style="fill:#566cbb"/>
                                        <g data-name="그룹 2870">
                                            <path data-name="패스 17494" d="m422.415 171.137 14.13 8.158-16.628 15.522a3.882 3.882 0 0 1-4.589.525l-8.519-4.919a1.836 1.836 0 0 1-.4-2.873z" transform="translate(-328.221 978.419)" style="fill:#719beb"/>
                                            <path data-name="패스 17495" d="M417.2 195.1a3.472 3.472 0 0 1-1.734-.465l-8.519-4.917a1.428 1.428 0 0 1-.308-2.233L422.47 171.2l13.3 7.68-16.2 15.289a3.456 3.456 0 0 1-2.37.931z" transform="translate(-328.154 978.431)" style="fill:#85adf9"/>
                                        </g>
                                    </g>
                                </g>
                            </g>
                        </g>
                    </g>
                    <g data-name="그룹 2885">
                        <path data-name="패스 17496" d="M433.949 160.935a8.541 8.541 0 0 1-1.164 1.1 23.649 23.649 0 0 0-4.617 2.022c-1.494 1.057-5.674 4.527-6.046 4.947a35.614 35.614 0 0 0-3.627 4.1c-1.793 2.409-7.317 10.4-7.452 10.687s-.9 1.466-.817 1.717 2.821 3.629 2.967 3.423a20.055 20.055 0 0 0 2.493-2.633c1.215-1.611 4.382-5.32 6.05-7.754a61.3 61.3 0 0 1 5.938-6.747c.348-.3 8.827-3.054 9.637-3.961s3.491-3.818 2.866-5.644-1.453-1.993-1.453-1.993l-3.541-.715z" transform="translate(-327.363 976.107)" style="fill:#4079ff"/>
                        <path data-name="패스 17497" d="m411.775 181.431-.95.174a15.724 15.724 0 0 0-2.424-1.717c-.5-.127-2.325-.914-2.906.026s3.505 7.362 3.505 7.362 1.012 1.85 1.5 1.872.612.333 1.246-.218a14.342 14.342 0 0 0 2.362-2.765 4.653 4.653 0 0 0-.167-2.151 4.188 4.188 0 0 0-1.233-1.53 5.874 5.874 0 0 1-.933-1.053z" transform="translate(-328.313 980.071)" style="fill:#7d6460"/>
                        <path data-name="패스 17498" d="M411.675 188.864a1.668 1.668 0 0 1-.706.531c-.027.013-.058.029-.09.041-.606.262-1.25-.147-1.988-.768a13.211 13.211 0 0 1-1.785-2.3l-.229-.935c-.1-.413-1.473-2.284-1.927-3.527a2.13 2.13 0 0 1 .071-1.767 1.612 1.612 0 0 1 .386-.494c.247-.186 1.242.067 1.511.149a11.922 11.922 0 0 1 1.566 1.439 6.637 6.637 0 0 1 .8 1.469c.364.911 1.185 2.828 1.185 2.828z" transform="translate(-328.44 980.095)" style="fill:#3a3f47"/>
                        <path data-name="패스 17499" d="M410.969 189.317c-.027.013-.058.029-.09.041-.606.262-1.25-.147-1.988-.768a13.212 13.212 0 0 1-1.785-2.3l-.229-.935c-.1-.413-1.473-2.284-1.927-3.527a2.13 2.13 0 0 1 .071-1.767 1.631 1.631 0 0 1 1.214.065 4.593 4.593 0 0 1 2.337 2.277c.34 1.035.5 2.427.733 2.972s1.226 2.338 1.407 2.872a2.441 2.441 0 0 1 .257 1.07z" transform="translate(-328.44 980.173)" style="fill:#f2cbbc;isolation:isolate;mix-blend-mode:multiply"/>
                        <g data-name="그룹 2876">
                            <path data-name="패스 17500" d="m412.78 187.182-.337-.235c.048-.07 4.9-7.049 6.395-9.329a38.473 38.473 0 0 1 5.261-5.858l.024-.019 9.737-6.529.228.342c-.087.058-9.322 6.249-9.724 6.52a38.055 38.055 0 0 0-5.183 5.769c-1.497 2.284-6.353 9.269-6.401 9.339z" transform="translate(-326.922 977.243)" style="fill:#6696ff"/>
                        </g>
                        <path data-name="패스 17501" d="M424.5 165a11.663 11.663 0 0 0-1.262 1.174 14.571 14.571 0 0 1-1.668 1.306c-.64.52-2.436 1.353-1.33 2.362a2.419 2.419 0 0 0 .731.413 2.452 2.452 0 0 0 1.122.246 2.644 2.644 0 0 0 .914-.315 17.3 17.3 0 0 0 3.827-2.4 21.01 21.01 0 0 1 3.044-2.019 4.384 4.384 0 0 0 1.291-.95 16.958 16.958 0 0 0 1.013-1.75.465.465 0 0 0 .091-.325.451.451 0 0 0-.24-.249 3.4 3.4 0 0 0-1.152-.473c-.554-.091-.871.174-1.349.321a7.956 7.956 0 0 0-1.715.5A22.582 22.582 0 0 0 424.5 165z" transform="translate(-325.444 976.606)" style="fill:#457dff"/>
                        <path data-name="패스 17502" d="M423.162 170.431c-.692.995-1.382 1.991-2.134 2.94-1.7 2.142-3.7 4.044-5.229 6.308a50.435 50.435 0 0 1-2.76 4.372.935.935 0 0 1-.52.354 1 1 0 0 1-.723-.313c-.453-.368-.953-.85-.865-1.426a1.646 1.646 0 0 1 .4-.742c.5-.632 1.572-2.4 2.061-3.043 1.532-2.022 2.6-4.359 4.126-6.388a31.584 31.584 0 0 1 3.142-3.461 22.89 22.89 0 0 1 1.528-1.411c.615-.5 1.942-1.158 2.337-.046.351.979-.867 2.14-1.363 2.856z" transform="translate(-327.224 977.591)" style="fill:#457dff"/>
                        <path data-name="패스 17503" d="M438.507 161.064s-3.377 2.35-4.017 3.32-.805 1.013-.932 1.379a2.171 2.171 0 0 0-.127.628s-6.62 3.786-7.155 4.227-8.266 12.578-8.961 13.43-3.372 3.621-3.372 3.621.8.068 1.653 1.522a9.522 9.522 0 0 1 1.069 3.249s1.257-.4 1.6-1.167 3.822-3.778 7.335-8.74 4.028-6.218 4.582-6.367 4.926-.7 7.55-1.272 5.416-1.834 6.234-3.812 2-4.72 1.85-5.535-7.309-4.483-7.309-4.483z" transform="translate(-326.625 976.42)" style="fill:#4079ff"/>
                        <g data-name="그룹 2877">
                            <path data-name="패스 17504" d="m430.065 166.082-.073-1.148v-.017a3.164 3.164 0 0 1 .49-1.349 13.18 13.18 0 0 1 1.983-1.665c.22-.167.448-.338.487-.375l.087.089.232.165a3.459 3.459 0 0 1-.561.448 14.716 14.716 0 0 0-1.9 1.578 2.767 2.767 0 0 0-.413 1.136l.072 1.111z" transform="translate(-323.439 976.512)" style="fill:#6696ff"/>
                        </g>
                        <g data-name="그룹 2878">
                            <path data-name="패스 17505" d="m430.408 166.223-.337-.234a15.769 15.769 0 0 1 2.17-2.428 12.151 12.151 0 0 1 2.321-1.7l.188.366a11.961 11.961 0 0 0-2.235 1.636 15.637 15.637 0 0 0-2.107 2.36z" transform="translate(-323.424 976.579)" style="fill:#6696ff"/>
                        </g>
                        <path data-name="패스 17506" d="M414.116 183.433c-.212-.056-2.054-1.031-2.054-1.031-.312-.14-2.167-1.454-2.724-.242.98 2.4 5.807 9.179 5.993 8.773s1.339-.932 1.641-1.394a3.28 3.28 0 0 0 .289-1.432s-1.264-3.183-1.485-3.515a8.288 8.288 0 0 0-1.1-1.045z" transform="translate(-327.538 980.506)" style="fill:#7d6460"/>
                        <path data-name="패스 17507" d="M415.753 191.686a1.238 1.238 0 0 1-.514.511 1.129 1.129 0 0 1-.732.1c-.886-.152-1.86-2.179-2.161-3.024s-.26-.918-.26-.918l-.268-.862s-.543-.691-1.03-1.254a17.972 17.972 0 0 1-1.952-3.292 1.613 1.613 0 0 1-.23-1.131.364.364 0 0 1 .406-.25 2.057 2.057 0 0 1 1.2.427 23.561 23.561 0 0 1 1.72 2.1l1.49 2.326a9.855 9.855 0 0 0 1.336 1.8 7.453 7.453 0 0 1 1.175 2.591.732.732 0 0 1-.18.876z" transform="translate(-327.69 980.488)" style="fill:#3a3f47"/>
                        <path data-name="패스 17508" d="M415.24 192.151a1.129 1.129 0 0 1-.732.1c-.886-.152-1.86-2.179-2.161-3.024s-.26-.918-.26-.918l-.268-.862s-.543-.691-1.03-1.254a17.971 17.971 0 0 1-1.952-3.292 1.613 1.613 0 0 1-.23-1.131c.181.066.331.132.425.173a8.446 8.446 0 0 1 2.41 2.448s1.691 2.747 1.841 3.038.37.757.37.757a10.173 10.173 0 0 0 .334 1.449 12.582 12.582 0 0 1 1.253 2.516z" transform="translate(-327.69 980.53)" style="fill:#f2cbbc;isolation:isolate;mix-blend-mode:multiply"/>
                        <g data-name="그룹 2879">
                            <path data-name="패스 17509" d="m416.337 191.39-.3-.28a64.671 64.671 0 0 0 4.835-5.839c.609-.869 1.642-2.379 2.735-3.979 2.471-3.612 5.27-7.707 5.826-8.3.928-.994 7.481-2.876 7.546-2.893 5.935-1.582 6.426-2.891 6.662-3.519a12.74 12.74 0 0 1 .669-1.462l.36.2a12.444 12.444 0 0 0-.644 1.409c-.28.747-.8 2.134-6.942 3.772-1.3.346-6.65 2.025-7.351 2.776-.534.573-3.447 4.832-5.786 8.256-1.142 1.669-2.127 3.111-2.737 3.982a65.653 65.653 0 0 1-4.873 5.877z" transform="translate(-326.209 977.224)" style="fill:#6696ff"/>
                        </g>
                        <path data-name="패스 17510" d="M428.607 170.477a2.31 2.31 0 0 0-1.785-1.261.93.93 0 0 0-.394.024 1.151 1.151 0 0 0-.49.4 40.53 40.53 0 0 0-2.6 3.61l-4.328 6.5c-.961 1.445-1.925 2.893-2.741 4.425a1.816 1.816 0 0 0-.272.8c-.012.591.5 1.038.974 1.4a.545.545 0 0 0 .385.157.54.54 0 0 0 .259-.151q.962-.829 1.921-1.66a19.471 19.471 0 0 0 1.65-1.541 23.312 23.312 0 0 0 2.1-2.9c1.141-1.717 2.371-3.371 3.54-5.07.898-1.286 2.605-3.038 1.781-4.733z" transform="translate(-326.216 978.036)" style="fill:#457dff"/>
                        <path data-name="패스 17511" d="m432.415 170.16 7.095-2.667c.356-.133.766-.33.827-.7a.966.966 0 0 0-.388-.8 6.137 6.137 0 0 0-2.888-1.33 4.871 4.871 0 0 0-1.339-.162 5.1 5.1 0 0 0-1.475.367 54.951 54.951 0 0 0-8.337 4.189 7.636 7.636 0 0 0-1.245.831 3.82 3.82 0 0 0-1.081 1.606.987.987 0 0 0-.07.5 1.032 1.032 0 0 0 .356.526 4.179 4.179 0 0 0 2.073 1.243c.657.02 1.244-.9 1.738-1.272a18.411 18.411 0 0 1 4.734-2.331z" transform="translate(-324.727 977.1)" style="fill:#457dff"/>
                        <path data-name="패스 17512" d="M430.1 161.008s2.988 1.518 4.866 2.186a13.984 13.984 0 0 1 4.813 2.828 8.7 8.7 0 0 1 1.91 2.987l.66-1.57a1.823 1.823 0 0 0-.711-1.695 20.878 20.878 0 0 0-6.283-4.195c-2.7-1.02-4.649-1.542-4.649-1.542z" transform="translate(-323.418 976.21)" style="fill:#70524b"/>
                        <g data-name="그룹 2880">
                            <path data-name="패스 17513" d="m431.57 162.188-.383-.143c.65-1.749.774-1.855.816-1.89l.265.312a.062.062 0 0 0 .017-.017 17.2 17.2 0 0 0-.715 1.738z" transform="translate(-323.202 976.24)" style="fill:#4079ff"/>
                        </g>
                        <g data-name="그룹 2881">
                            <path data-name="패스 17514" d="m436 164.267-.394-.11a3.35 3.35 0 0 1 1.433-1.949l.174.372a2.984 2.984 0 0 0-1.213 1.687z" transform="translate(-322.326 976.647)" style="fill:#4079ff"/>
                        </g>
                        <path data-name="패스 17515" d="M433.323 160.966s-.952.76-1.021 1.14 2.375 1.279 2.446 1.254 1.255-1.5 1.255-1.5l-2.446-1.013z" transform="translate(-322.981 976.376)" style="fill:#e6e6e6"/>
                        <path data-name="패스 17516" d="M434.75 157.644a11.938 11.938 0 0 1-2.825-1.752c-.646-.748-.552-1.2-.552-1.2s4.65-4.6 5.358-5.21a1.922 1.922 0 0 1 1.8-.514c.646.076-3.781 8.676-3.781 8.676z" transform="translate(-323.166 974.011)" style="fill:#e2e3ef"/>
                        <path data-name="패스 17517" d="M433.8 155.681a9.85 9.85 0 0 0-1.4 2.263 1.336 1.336 0 0 0-.116.753.961.961 0 0 0 .847.694 1.692 1.692 0 0 0 1.1-.325 8.258 8.258 0 0 0 .888-.762c.351-.318.729-.609 1.052-.955a7.019 7.019 0 0 0 1.332-2.324 5.482 5.482 0 0 0 .363-1.308 2.315 2.315 0 0 0-.2-1.326c-.115-.225-.264-.374-.512-.319a2.376 2.376 0 0 0-.89.352 5.816 5.816 0 0 0-.805 1.052z" transform="translate(-322.989 974.633)" style="fill:#f2cbbc;isolation:isolate;mix-blend-mode:multiply"/>
                        <path data-name="패스 17518" d="M451.015 158.2c-.4.766-.843 1.571-1.256 2.272-.288.491-.562.93-.795 1.272a57.3 57.3 0 0 1-4.445 5.1l-2.271 2.855s-.188-.206-.5-.537c-.15-.158-.328-.348-.531-.556a30.847 30.847 0 0 0-4.818-4.24c-2.13-1.267-6.011-1.836-5.789-2.1a47.459 47.459 0 0 0 2.452-4.942c.1-.495 1.812-4.488 2.2-5.7s2.983-2.982 3.606-2.96 3.61.376 3.9.469 4.771 2.428 4.771 2.428 4.59 3.159 4.736 3.643a10.522 10.522 0 0 1-1.26 2.996z" transform="translate(-323.319 973.957)" style="fill:#e2e3ef"/>
                        <path data-name="패스 17519" d="M436.553 151.694c-1.994 1.438-2.413 1.848-2.308 3.278a1.186 1.186 0 0 0 .285.559c.968 1.163 2.7 1.208 4.1 1.787a14.385 14.385 0 0 1 1.959 1.111 14.111 14.111 0 0 0 2.7 1.325 2.241 2.241 0 0 0 2.088 0c1-.361.859-1.4 1.178-2.712s1.417-5.119.378-5.348c-1.233-.273-3.33-2.114-4.715-2.474s-3.67 1.036-5.665 2.474z" transform="translate(-322.597 973.951)" style="fill:#49956c"/>
                        <path data-name="패스 17520" d="M448 159.05c-.288.491-.562.93-.795 1.272a57.307 57.307 0 0 1-4.445 5.1l-2.271 2.855s-.188-.206-.5-.537c-.15-.158-.328-.348-.531-.556a23.808 23.808 0 0 0 3.845-5.046c.566-1.115.95-2.311 1.454-3.455a8.119 8.119 0 0 1 1.654-2.62c.8-.762 1.481.421 1.638 1.164a4.616 4.616 0 0 1-.017 1.657z" transform="translate(-321.561 975.378)" style="fill:#e2e3ef;isolation:isolate;mix-blend-mode:multiply"/>
                        <path data-name="패스 17521" d="M449.522 148.256a5 5 0 0 1-2.045 2.357l-2.127 2.413a8.469 8.469 0 0 1-3.283-.244c-1.106-.485-1.195-1.306-1.109-1.566.078-.236.545-1.965.636-2.3l.016-.058a2.605 2.605 0 0 1-.237-.459 1.182 1.182 0 0 1-.087-.355 1.4 1.4 0 0 1 0-.189 2.58 2.58 0 0 1 .257-.751 17.691 17.691 0 0 1 1.435-1.922 7.236 7.236 0 0 1 .784-.871h.006a4.183 4.183 0 0 1 1.994-1 5.75 5.75 0 0 1 1.973.591 3.325 3.325 0 0 1 1.4 1.414 5.159 5.159 0 0 1 .387 2.94z" transform="translate(-321.268 972.894)" style="fill:url(#k1zzcf19fm)"/>
                        <path data-name="패스 17522" d="M445.57 143.556a5.193 5.193 0 0 1 1.858.81c.628.511 1.044.874.973 1.051s-.477.288-.645.689a7.9 7.9 0 0 0-.3 1.387l-.414.926.314.255s.62-.047.658.369-.986 1.342-.986 1.342l-.658.844-.617.912a2.974 2.974 0 0 0 .93-.048c.248-.107 1.836-.953 1.836-.953a6.394 6.394 0 0 0 1.344-2.445 6.76 6.76 0 0 0-.044-2.8 4.185 4.185 0 0 0-1.538-1.879 7.578 7.578 0 0 0-2.869-1.068 8.3 8.3 0 0 0-1.8.875l-.477.748.594-.529 1.388-.508z" transform="translate(-320.83 972.825)" style="fill:#36231f"/>
                        <path data-name="패스 17523" d="m447.252 149.042-1.6.616-1.22-.089-1.824-1.292a2.226 2.226 0 0 1-.887-.041 1.373 1.373 0 0 1-.179-.08l.016-.058a2.609 2.609 0 0 1-.237-.459 1.183 1.183 0 0 1-.088-.355 1.4 1.4 0 0 1 0-.189c.01.285.566.058.9.093a.434.434 0 0 1 .1.023 16.578 16.578 0 0 1 2.282 1.644 2.858 2.858 0 0 0 1.065.513z" transform="translate(-321.209 973.648)" style="fill:#f2cbbc;isolation:isolate;mix-blend-mode:multiply"/>
                        <g data-name="그룹 2882">
                            <path data-name="패스 17524" d="M439.1 167.886c-.016-.016-1.538-1.65-2.114-2.244a1.559 1.559 0 0 1-.489-1.584l.393.116a1.122 1.122 0 0 0 .39 1.182c.579.6 2.1 2.234 2.12 2.251z" transform="translate(-322.161 977.014)" style="fill:#6696ff"/>
                        </g>
                        <path data-name="패스 17525" d="M449.169 156.648a39.883 39.883 0 0 1-2.051 3.544 57.3 57.3 0 0 1-4.445 5.1l-2.271 2.855s-.188-.206-.5-.537c.43-.525.948-1 1.367-1.5l2.446-2.934c.881-1.055 1.758-2.109 2.589-3.2a8.418 8.418 0 0 0 1.134-1.61c.22-.518.173-1.1.57-1.559a.833.833 0 0 1 1.153-.167z" transform="translate(-321.473 975.508)" style="fill:#f2cbbc;isolation:isolate;mix-blend-mode:multiply"/>
                        <path data-name="패스 17526" d="M444.62 144.713a.189.189 0 0 1-.1.03l-.622.085a.457.457 0 0 0-.332.144.366.366 0 0 0-.054.191.808.808 0 0 0 .1.428c.042.074.1.156.07.236s-.14.119-.216.179a.76.76 0 0 0-.17.3 1.585 1.585 0 0 1-.441.5 2.005 2.005 0 0 0-.562.579c-.065.122-.092.27-.162.392a.433.433 0 0 1-.074.1 1.525 1.525 0 0 1-.744.352 1.183 1.183 0 0 1-.088-.355 1.4 1.4 0 0 1 0-.189 2.581 2.581 0 0 1 .257-.751 17.7 17.7 0 0 1 1.435-1.922 7.233 7.233 0 0 1 .784-.871h.006a5.786 5.786 0 0 1 .744.267.389.389 0 0 1 .175.12.144.144 0 0 1-.006.185z" transform="translate(-321.209 973.06)" style="fill:#f2cbbc;isolation:isolate;mix-blend-mode:multiply"/>
                        <path data-name="패스 17527" d="M443.234 161.37c-.072.219.089.972 2.248 1.62s2.379.639 2.723 0a29.769 29.769 0 0 0 2.1-6.459 2.838 2.838 0 0 0-.978-2.822c-.627-.568-1.928.073-1.928.073s-1.69 2.549-2.106 3.411-2.059 4.177-2.059 4.177z" transform="translate(-320.814 974.913)" style="fill:#e2e3ef"/>
                        <g data-name="그룹 2883">
                            <path data-name="패스 17528" d="M435.787 155.98a4.78 4.78 0 0 1-.506 1.2c-.289.407-1.732 2.053-2.1 2.458s-3.07 3.335-3.219 3.575a5.279 5.279 0 0 0-.249.549.1.1 0 0 0-.013.034c-.241.579-.56 1.393-.684 1.606a7.474 7.474 0 0 1-1.613 1.067s-.626.461-.823.431a.085.085 0 0 1-.059-.036c-.1-.122-.043-.521-.029-.621v-.023l-.141.217c-.012.018-.026.036-.038.056a2.616 2.616 0 0 1-.615.708.55.55 0 0 1-.524-.243v-.02a.04.04 0 0 1 0-.017c.023-.109.784-1.685.879-1.882l-.349.638-.013.026-.066.12-.741 1.354h-.013a.932.932 0 0 1-.446-.053.392.392 0 0 1-.2-.116.141.141 0 0 1-.025-.144.22.22 0 0 1-.061 0 .764.764 0 0 1-.309-.1.187.187 0 0 1-.085-.077c-.052-.1.062-.188.085-.2a.477.477 0 0 1-.245.07.252.252 0 0 1-.146-.042c-.068-.046-.1-.133-.04-.272.1-.218 1.841-1.987 1.841-1.987s.714-.9.839-1 1.377-.038 1.467-.151 2.362-4.065 2.575-4.552a6.431 6.431 0 0 1 1.339-1.631c.461-.424 2.169-2.529 2.169-2.529a9.311 9.311 0 0 1 1.741 1.232c.252.203.417.355.417.355z" transform="translate(-324.755 975.093)" style="fill:url(#gls9ogxf2n)"/>
                            <path data-name="패스 17529" d="m424.878 163.113-.525.7-.623 1.129c-.052-.1.062-.188.085-.2a.477.477 0 0 1-.245.069.252.252 0 0 1-.146-.042l.366-.382z" transform="translate(-324.743 976.826)" style="fill:#f2cbbc;isolation:isolate;mix-blend-mode:multiply"/>
                            <path data-name="패스 17530" d="m424.009 165.125 1.173-1.988-1.087 2.131a.141.141 0 0 1-.025-.144.22.22 0 0 1-.061.001z" transform="translate(-324.627 976.831)" style="fill:#f2cbbc;isolation:isolate;mix-blend-mode:multiply"/>
                            <path data-name="패스 17531" d="m425.37 163.923-.741 1.354h-.013z" transform="translate(-324.507 976.987)" style="fill:#f2cbbc;isolation:isolate;mix-blend-mode:multiply"/>
                            <path data-name="패스 17532" d="m426 162.81-.059.344-1.075 2.088c.023-.109.784-1.685.879-1.882l-.345.64z" transform="translate(-324.456 976.766)" style="fill:#f2cbbc;isolation:isolate;mix-blend-mode:multiply"/>
                            <path data-name="패스 17533" d="m427.3 162.658.3.163-.392.71s-.862.784-.926.857a1.337 1.337 0 0 0-.278.828c-.1-.122-.043-.521-.029-.621l.417-.59.542-.712z" transform="translate(-324.242 976.736)" style="fill:#f2cbbc;isolation:isolate;mix-blend-mode:multiply"/>
                            <path data-name="패스 17534" d="M434.737 155.776a4.78 4.78 0 0 1-.506 1.2c-.289.407-1.732 2.053-2.1 2.458s-3.07 3.335-3.219 3.575a5.272 5.272 0 0 0-.249.549 2.748 2.748 0 0 0 .242-.892c-.074-.253 2.21-2.489 2.21-2.489a9.172 9.172 0 0 0 1.969-2.324c.351-.75.9-1.793 1.238-2.444.249.215.415.367.415.367z" transform="translate(-323.704 975.297)" style="fill:#f2cbbc;isolation:isolate;mix-blend-mode:multiply"/>
                            <path data-name="패스 17535" d="M432.036 157.759a.871.871 0 0 0-.171-.7.956.956 0 0 0-.429-.206 1.3 1.3 0 0 0-.477-.067 1.342 1.342 0 0 0-.854.684c-.558.8-1.1 1.617-1.594 2.457a20.573 20.573 0 0 0-1.035 1.955c-.078.17-.152.342-.219.517a.133.133 0 0 0 .059.2 1.037 1.037 0 0 0 1.025.165 1.961 1.961 0 0 0 .706-.757 11.948 11.948 0 0 1 .831-1.017c.642-.762 1.329-1.505 1.936-2.3a1.868 1.868 0 0 0 .222-.931z" transform="translate(-323.987 975.57)" style="fill:#feb9b8"/>
                            <path data-name="패스 17536" d="M433.524 155.5a.427.427 0 0 0-.125-.242 1.389 1.389 0 0 0-.4-.271 3.2 3.2 0 0 0-.666-.276c-.506-.133-.7.383-.922.741a14.638 14.638 0 0 0-.741 1.334 2.409 2.409 0 0 0-.217.572 1.336 1.336 0 0 0 .083.8c.044.1.119.206.228.209a.3.3 0 0 0 .162-.06c.452-.29.757-.761 1.179-1.094.193-.152.409-.274.6-.434a3.466 3.466 0 0 0 .4-.425 1.463 1.463 0 0 0 .277-.382 1.588 1.588 0 0 0 .142-.472z" transform="translate(-323.352 975.155)" style="fill:#feb9b8"/>
                        </g>
                        <g data-name="그룹 2884">
                            <path data-name="패스 17537" d="M450.025 161.375s-.859 1.809-1.1 2.134-1.705 2.547-1.926 2.73a18.792 18.792 0 0 1-3.527 1.4c-1.939.623-5.518 1.145-5.868 1.26a.849.849 0 0 0-.379.279.697.697 0 0 0-.047.058l-.04.05c-.1.128-.182.262-.273.357a.907.907 0 0 1-.183.134c-.356.219-1.028.495-1.177.578a22.5 22.5 0 0 1-2.351 1.1c-.488.147-.557-.27-.507-.44l.019-.042a10.735 10.735 0 0 1 1.3-.723l.277-.356-.248-.025s-1.11.392-1.916.646a6.551 6.551 0 0 1-.759.209.31.31 0 0 1-.386-.339.354.354 0 0 1 .022-.117.134.134 0 0 1 .052-.05 12.986 12.986 0 0 1 1.455-.684l.342-.266-.457.119a16.864 16.864 0 0 0-1.855.57.742.742 0 0 1-.454.092c-.151-.036-.211-.174-.265-.325a.27.27 0 0 1 .056-.267.629.629 0 0 1 .2-.159.9.9 0 0 1-.344-.047h-.013c-.115-.065-.181-.4-.016-.491l1.794-1.015a1.317 1.317 0 0 1-.233-.092c-.067-.037-.125-.081-.126-.131 0-.121.491-.271.491-.271a7.811 7.811 0 0 1 .624-.471c.093-.036 1.412-.443 1.606-.463s2.19.268 2.19.268.159-.013 2.215-.548a31.235 31.235 0 0 0 3.647-1.312c.98-.409 1.872-.808 2.422-1.056l.563-.259s.362-.988.7-1.847c.192-.494.373-.947.467-1.143.212-.44 1.387-.087 2.009.115.138.044.249.083.316.1a6.819 6.819 0 0 1 1.683.74z" transform="translate(-323.526 976.248)" style="fill:url(#lf8gt8fkjo)"/>
                            <path data-name="패스 17538" d="M430.726 168.605a.135.135 0 0 1 .052-.05l-.073.168a.354.354 0 0 1 .021-.118z" transform="translate(-323.298 977.907)" style="fill:#f2cbbc;isolation:isolate;mix-blend-mode:multiply"/>
                            <path data-name="패스 17539" d="M430.007 167.981a.9.9 0 0 1-.344-.047l1.921-.777 1.473-.345-1.48.575-1.771.753a.63.63 0 0 1 .201-.159z" transform="translate(-323.505 977.561)" style="fill:#f2cbbc;isolation:isolate;mix-blend-mode:multiply"/>
                            <path data-name="패스 17540" d="m433.151 167.76-2.225.983a12.992 12.992 0 0 1 1.455-.684l.342-.266-.457.119a16.868 16.868 0 0 0-1.855.57.742.742 0 0 1-.454.092c.33-.14.75-.294.75-.294l2.209-.669z" transform="translate(-323.447 977.72)" style="fill:#f2cbbc;isolation:isolate;mix-blend-mode:multiply"/>
                            <path data-name="패스 17541" d="M431.179 166.616a1.315 1.315 0 0 1-.233-.092c.349-.137.67-.3.67-.3l.983-.368.846-.036-1.123.35z" transform="translate(-323.25 977.364)" style="fill:#f2cbbc;isolation:isolate;mix-blend-mode:multiply"/>
                            <path data-name="패스 17542" d="m431.659 168.95 2.373-.884s-.177.422-.266.569a10.647 10.647 0 0 1-1.517.773 10.736 10.736 0 0 1 1.3-.723l.277-.356-.248-.025s-1.112.396-1.919.646z" transform="translate(-323.109 977.81)" style="fill:#f2cbbc;isolation:isolate;mix-blend-mode:multiply"/>
                            <path data-name="패스 17543" d="M435.5 168.271c.2-.2.361-.378.457-.491-.1.128-.182.262-.273.357a.908.908 0 0 1-.184.134z" transform="translate(-322.345 977.753)" style="fill:#f2cbbc;isolation:isolate;mix-blend-mode:multiply"/>
                            <path data-name="패스 17544" d="m441.851 163.433.563-.259s.362-.988.7-1.847a3.76 3.76 0 0 1-.056.621 1.462 1.462 0 0 0 .2 1.125.432.432 0 0 1 .138.24c0 .131-.161.215-.291.2a1.785 1.785 0 0 1-.373-.129 1.752 1.752 0 0 0-.881.049z" transform="translate(-321.086 976.472)" style="fill:#f2cbbc;isolation:isolate;mix-blend-mode:multiply"/>
                            <path data-name="패스 17545" d="M448.754 161.321s-.859 1.809-1.1 2.134-1.705 2.547-1.926 2.73a18.8 18.8 0 0 1-3.527 1.4c-1.939.623-5.518 1.145-5.868 1.26a.849.849 0 0 0-.379.279 1.921 1.921 0 0 1 .767-.6c.187-.073 4.59-.934 4.59-.934s3.959-1.407 4.056-1.538a5.614 5.614 0 0 1 .475-.465l1.4-2 1.006-1.937s-.827-.644-1.5-1.188c.138.044.249.083.316.1a6.818 6.818 0 0 1 1.69.759z" transform="translate(-322.256 976.302)" style="fill:#f2cbbc;isolation:isolate;mix-blend-mode:multiply"/>
                            <path data-name="패스 17546" d="M443.245 163.416a2.383 2.383 0 0 0 .233 1.134.508.508 0 0 0 .2.223.424.424 0 0 0 .259.028 1.262 1.262 0 0 0 .605-.351 10.77 10.77 0 0 0 .816-.853 5.828 5.828 0 0 0 .6-.759 5.726 5.726 0 0 0 .413-.844.289.289 0 0 0 .032-.121c0-.092-.086-.159-.162-.211a6.79 6.79 0 0 0-1.744-.841c-.555-.175-.747.12-.9.582a6.2 6.2 0 0 0-.352 2.013z" transform="translate(-320.809 976.362)" style="fill:#feb9b8"/>
                            <path data-name="패스 17547" d="M442.407 163.467a7.182 7.182 0 0 0-1.372.458l-1.687.7-2.423 1-.587.242a2.864 2.864 0 0 0-.6.252c-.292.222.336.736.5.935a1.168 1.168 0 0 0 .465.391 1.142 1.142 0 0 0 .636-.023c1.791-.416 3.537-.995 5.282-1.572l1.68-.557a2.763 2.763 0 0 0 .785-.354.729.729 0 0 0 .025-1.26 2.77 2.77 0 0 0-1.475-.267 5.257 5.257 0 0 0-1.229.055z" transform="translate(-322.315 976.883)" style="fill:#feb9b8"/>
                        </g>
                        <path data-name="패스 17548" d="M446.9 148.176a.75.75 0 0 1 .7-.348c.428.035.708.544.216 1a2.433 2.433 0 0 1-1.587.6.413.413 0 0 1-.31-.621 9.02 9.02 0 0 1 .981-.631z" transform="translate(-320.291 973.793)" style="fill:#feb9b8"/>
                    </g>
                    <g data-name="그룹 2886">
                        <path data-name="패스 17549" d="M446.6 147.049c-.061.055-.109.09-.109.09s.017.02.037.052a.58.58 0 0 1 .07.159.209.209 0 0 1-.031.173c-.114.153-1.7.591-1.856.706a1.914 1.914 0 0 1-.34.153c-.307.119-.748.268-1.039.348a1.794 1.794 0 0 1-.256.06 1.16 1.16 0 0 0-.213.07 56.752 56.752 0 0 0-5.961 2.9 12.882 12.882 0 0 1-5.1 1.921c-1.052 0-3.845-1.768-4.869-2.536a11.99 11.99 0 0 1-3-3.255 2.318 2.318 0 0 1-.155-.564c-.055-.483.144-.9.694-1.613.742-.973 2.535.127 2.945.513s1.052 1.255 1.36 1.538 2.433 2 2.433 2a2.722 2.722 0 0 0 .654.244 18.785 18.785 0 0 0 3.215-.756c1.514-.476 5.785-2.054 7-2.553.162-.068.271-.115.309-.138.334-.191 1.411-1.523 1.655-1.589s1.7-.012 1.882-.024c.123-.008.245.235.309.393.031.076.049.132.049.132a1.457 1.457 0 0 1 .167.071 1.754 1.754 0 0 1 .243.146c.169.119.095.49.05.652-.013.049-.023.08-.023.08a.354.354 0 0 1 .059.043.279.279 0 0 1 .095.212c0 .123-.162.278-.274.372z" transform="translate(-324.675 973.221)" style="fill:url(#528lafvdya)"/>
                        <path data-name="패스 17550" d="M443.6 147.049c-.061.055-.109.09-.109.09s.017.02.037.052a.58.58 0 0 1 .07.159.209.209 0 0 1-.031.173c-.114.153-1.7.591-1.856.706a1.912 1.912 0 0 1-.34.153c-.307.119-.748.268-1.039.348a1.793 1.793 0 0 1-.257.06 1.161 1.161 0 0 0-.213.07c-.687-.179-.857-.787-.946-1.377-.086-.562.144-.763.168-.784.162-.068.271-.115.309-.138.334-.191 1.411-1.523 1.655-1.589s1.7-.012 1.882-.024c.124-.008.245.235.309.393.031.076.049.132.049.132a1.455 1.455 0 0 1 .167.071 1.751 1.751 0 0 1 .243.146c.169.119.095.49.05.652-.013.049-.023.08-.023.08a.353.353 0 0 1 .059.043.279.279 0 0 1 .095.212c-.007.123-.168.278-.279.372z" transform="translate(-321.673 973.221)" style="fill:#96caff"/>
                        <path data-name="패스 17551" d="M442.538 147.963a2.352 2.352 0 0 0 .785.374 1.922 1.922 0 0 1-.255.059 51.306 51.306 0 0 0-6.177 2.972 12.87 12.87 0 0 1-5.1 1.921c-1.052 0-3.844-1.767-4.869-2.536a11.973 11.973 0 0 1-3-3.255 2.321 2.321 0 0 1-.153-.563c.17.219.324.453.475.687a10.718 10.718 0 0 0 1.889 2.23c.271.231.533.477.816.694a10.352 10.352 0 0 0 1.225.816c.23.133.433.291.679.41.211.1.364.254.572.357a8.7 8.7 0 0 0 1.472.65 2.913 2.913 0 0 0 1.045.288 2.454 2.454 0 0 0 .472-.091c.59-.147 1.183-.29 1.763-.482a13.588 13.588 0 0 0 2.323-1.053l2.236-1.238a17.082 17.082 0 0 1 2.138-1.053 6.582 6.582 0 0 0 .976-.41 1.448 1.448 0 0 0 .688-.777z" transform="translate(-324.674 973.616)" style="fill:#f2cbbc;isolation:isolate;mix-blend-mode:multiply"/>
                        <path data-name="패스 17552" d="M442.66 145.488c-.458-.006-.912-.01-1.367-.014a1.959 1.959 0 0 1 .805-.133c.219-.02.439-.043.657-.066.03.077.049.132.049.132a1.728 1.728 0 0 1 .165.072c-.11.001-.219.009-.309.009z" transform="translate(-321.196 973.287)" style="fill:#f2cbbc;isolation:isolate;mix-blend-mode:multiply"/>
                        <path data-name="패스 17553" d="M443.092 146.7c-.061.055-.108.09-.108.09l.036.052c-.237 0-.616.017-.68.023-.156.017-.316.06-.47.089a1.613 1.613 0 0 0-.449.078 1.919 1.919 0 0 1 .935-.326c.244.002.49-.006.736-.006z" transform="translate(-321.171 973.57)" style="fill:#f2cbbc;isolation:isolate;mix-blend-mode:multiply"/>
                        <path data-name="패스 17554" d="M443.184 146.952a.205.205 0 0 1-.03.171c-.115.155-1.7.591-1.858.706a1.91 1.91 0 0 1-.34.153c.07-.049.138-.1.207-.141.627-.387 1.42-.467 2.021-.889z" transform="translate(-321.263 973.62)" style="fill:#f2cbbc;isolation:isolate;mix-blend-mode:multiply"/>
                        <path data-name="패스 17555" d="M443.207 146.245a.678.678 0 0 0-.146-.023 4.87 4.87 0 0 0-1.3.067 2.134 2.134 0 0 1 1.351-.186l.058.018c-.012.049-.023.08-.023.08a.39.39 0 0 1 .06.044z" transform="translate(-321.103 973.441)" style="fill:#f2cbbc;isolation:isolate;mix-blend-mode:multiply"/>
                        <path data-name="패스 17556" d="M436.9 150.082c-1.119.461-2.335.687-3.4 1.255a9.237 9.237 0 0 1-1.577.808 1.124 1.124 0 0 1-1.123-.164 1.219 1.219 0 0 1-.249-.94 1.62 1.62 0 0 1 .246-.854 2.064 2.064 0 0 1 1.2-.646c1.93-.543 3.821-1.214 5.7-1.915.6-.223 1.481-.727 2.15-.508a.533.533 0 0 1 .387.561c-.016.413-.466.656-.762.88a11.453 11.453 0 0 1-2.572 1.523z" transform="translate(-323.329 973.642)" style="fill:#feb9b8"/>
                        <path data-name="패스 17557" d="M426.089 146.278a4.518 4.518 0 0 0-1.316.608.308.308 0 0 0-.186.309.369.369 0 0 0 .113.165 3.643 3.643 0 0 0 1.026.813 3.441 3.441 0 0 1 .343.159 1.8 1.8 0 0 1 .363.313 11.81 11.81 0 0 0 1.355 1.272 14.7 14.7 0 0 0 3.563 1.962 1.071 1.071 0 0 0 .428.1.733.733 0 0 0 .564-.925c-.255-1-1.71-1.5-2.5-1.952a3.786 3.786 0 0 1-.417-.266 3.532 3.532 0 0 1-.389-.368c-.55-.572-1.121-1.13-1.651-1.72-.194-.216-.27-.394-.573-.466a1.8 1.8 0 0 0-.723-.004z" transform="translate(-324.513 973.479)" style="fill:#feb9b8"/>
                        <path data-name="패스 17558" d="M426.123 146.594a5.9 5.9 0 0 0-1.563.756 1.006 1.006 0 0 0-.442.883l.318.52s-.568-.352-.658-.442a3.93 3.93 0 0 1-.807-2.267c-.09-1.384.423-2.179 1.153-2.371a2.723 2.723 0 0 1 2.242.628 10.375 10.375 0 0 1 1.516 2.519 5.578 5.578 0 0 0-.953-.227c-.192.014-.806.001-.806.001z" transform="translate(-324.834 972.958)" style="fill:#6087d0"/>
                    </g>
                    <g data-name="그룹 2890">
                        <g data-name="그룹 2887">
                            <path data-name="패스 17559" d="m421.778 177.253-13.042-7.579 2.773 1.535 13.042 7.579z" transform="translate(-327.657 978.129)" style="fill:#e5e3e9"/>
                            <path data-name="패스 17560" d="m418.747 177.531-13.042-7.579 3.632-.278 13.042 7.579z" transform="translate(-328.258 978.129)" style="fill:#ebe9ee"/>
                            <path data-name="패스 17561" d="m416.9 181.3-13.043-7.579a1.122 1.122 0 0 1-.464-.564 2.156 2.156 0 0 1-.14-.795l13.043 7.579a2.11 2.11 0 0 0 .14.795 1.112 1.112 0 0 0 .464.564z" transform="translate(-328.746 978.664)" style="fill:#babece"/>
                            <path data-name="패스 17562" d="m416.293 180.15-13.042-7.579v-1.246l13.042 7.579z" transform="translate(-328.746 978.457)" style="fill:#cdcfde"/>
                            <path data-name="패스 17563" d="m416.289 179.186-13.042-7.579 2.946-1.7 13.042 7.579z" transform="translate(-328.746 978.175)" style="fill:#e5e3e9"/>
                            <path data-name="패스 17564" d="m417.076 176.276 3.631-.278 2.773 1.535-1.517 2.58-2.27.037a3.38 3.38 0 0 0-.872-.191l-.656-.058a3.645 3.645 0 0 0-2.095.561c-.79.455-1.5.279-1.8-.446a2.11 2.11 0 0 1-.14-.795v-1.246z" transform="translate(-326.586 979.385)" style="fill:#f5f0f0"/>
                        </g>
                        <path data-name="패스 17565" d="M410.434 174.8a2.107 2.107 0 0 0-1.9 0c-.529.306-.531.8-.006 1.1a2.1 2.1 0 0 0 1.9 0 .581.581 0 0 0 .006-1.1z" transform="translate(-327.777 979.102)" style="fill:#e5e7ec"/>
                        <g data-name="그룹 2888">
                            <path data-name="패스 17566" d="M407.1 181.537a3.4 3.4 0 0 1-1.7-.454l-24.86-14.353a1.775 1.775 0 0 1 0-3.075l23.86-13.685a2.7 2.7 0 0 1 4.045 2.343v7.787h-2.695v-7.788L383.274 165.2l23.476 13.55a.7.7 0 0 0 .7 0l5.98-3.453a2.03 2.03 0 0 1 3.045 1.758v3.253h-2.694v-2.1l-4.984 2.878a3.388 3.388 0 0 1-1.697.451z" transform="translate(-333.429 974.147)" style="fill:#e5e7ec"/>
                        </g>
                        <g data-name="그룹 2889">
                            <path data-name="패스 17567" d="M415.917 180.762h-.844v-3.61c0-.5-.126-.853-.346-.98a.384.384 0 0 0-.378-.006l-6.166 3.559a2.481 2.481 0 0 1-2.472 0l-24.86-14.354a.848.848 0 0 1 0-1.469l24.017-13.779a1.85 1.85 0 0 1 1.844.007 2.678 2.678 0 0 1 1.166 2.537v7.789h-.844v-7.789a1.976 1.976 0 0 0-.744-1.807 1.007 1.007 0 0 0-1-.006l-24.017 13.779 24.86 14.361a1.633 1.633 0 0 0 1.629 0l6.166-3.559a1.224 1.224 0 0 1 1.221.006 1.8 1.8 0 0 1 .768 1.711z" transform="translate(-333.276 974.202)" style="fill:#f0f1f4"/>
                        </g>
                    </g>
                </g>
            </g>
        </g>
    </g>
</svg>
