<svg xmlns="http://www.w3.org/2000/svg" width="24" height="24" viewBox="0 0 24 24">
    <path data-name="사각형 752" style="fill:transparent" d="M0 0h24v24H0z"/>
    <path d="M4.842.045A4.525 4.525 0 0 0 .316 4.57v7.919a4.525 4.525 0 0 0 4.525 4.525h11.314l2.715 2.036a1.131 1.131 0 0 0 1.81-.905V4.57A4.525 4.525 0 0 0 16.155.045z" transform="translate(1.684 1.955)" style="fill:#fff"/>
    <path d="M6.254 0c-1 0-1.56.809-2 1.3-.435-.488-1-1.3-2-1.3a1.962 1.962 0 0 0-2 2.1c0 1.442 1.357 2.617 3.412 4.4l.579.5.579-.5c2.055-1.781 3.43-3.05 3.43-4.4a1.88 1.88 0 0 0-2-2.1z" transform="translate(7.732 7.242)" style="fill:#398afa"/>
</svg>
