<svg xmlns="http://www.w3.org/2000/svg" width="26" height="26" viewBox="0 0 26 26">
    <g data-name="vuesax/linear/book">
        <path d="M2.27.412H17V3.5A3.5 3.5 0 0 1 13.5 7H2.92a3.5 3.5 0 0 1-3.5-3.5v-.238A2.855 2.855 0 0 1 2.27.412z" transform="translate(4.203 16.111)" style="stroke-linecap:round;stroke-linejoin:round;stroke-width:1.5px;stroke:#292d32;fill:none"/>
        <path data-name="Vector" d="M0 0h8" transform="translate(8.453 7.111)" style="stroke-linecap:round;stroke-linejoin:round;stroke-width:1.5px;stroke:#292d32;fill:none"/>
        <path data-name="패스 17109" d="M13.832.8c.352 0-.4-.038.218 0 2.868.154 3.7 1.306 3.7 4.954v10c0 .14 0 .28-.01.42" transform="translate(3.453 2.111)" style="stroke:#1f2226;stroke-linecap:round;stroke-linejoin:round;stroke-width:1.5px;fill:none"/>
        <path data-name="패스 17110" d="M.179 16.532v-11C.179 2.093 1.585.839 4.063.839c.047-.01 5.037.006 5.491 0" transform="translate(3.453 2.111)" style="stroke:#1f2226;stroke-linecap:round;stroke-linejoin:round;stroke-width:1.5px;fill:none"/>
        <path data-name="Vector" d="M5.129 1.02v2.06a1.027 1.027 0 0 1-1 1.02h-1.96a2.132 2.132 0 0 1-2.16-1.87A2.008 2.008 0 0 1 .609.6a1.993 1.993 0 0 1 1.44-.6h2.08a1.027 1.027 0 0 1 1 1.02z" transform="translate(17.249 9.061)" style="fill:#fff;stroke-linecap:round;stroke-linejoin:round;stroke-width:1.5px;stroke:#292d32"/>
    </g>
</svg>
