<svg xmlns="http://www.w3.org/2000/svg" xmlns:xlink="http://www.w3.org/1999/xlink" width="48" height="48" viewBox="0 0 48 48">
    <defs>
        <linearGradient id="o1bm2safxa" y1=".5" x2="1" y2=".5" gradientUnits="objectBoundingBox">
            <stop offset=".005" stop-color="#273b98"/>
            <stop offset=".227" stop-color="#2e2ba2"/>
            <stop offset=".399" stop-color="#361cac"/>
            <stop offset=".768" stop-color="#440b88"/>
            <stop offset="1" stop-color="#4e0070"/>
        </linearGradient>
        <linearGradient id="y94ui0zepf" x1=".969" y1="1.108" x2=".355" y2="-.054" xlink:href="#o1bm2safxa"/>
        <linearGradient id="om8lasa09c" x1="68.263" y1="1.012" x2="68.568" y2=".075" gradientUnits="objectBoundingBox">
            <stop offset=".005" stop-color="#6cf"/>
            <stop offset=".203" stop-color="#42caea"/>
            <stop offset=".525" stop-color="#00c7c5"/>
            <stop offset=".674" stop-color="#08cebd"/>
            <stop offset=".915" stop-color="#20e0ab"/>
            <stop offset="1" stop-color="#2be9a3"/>
        </linearGradient>
        <linearGradient id="9fn072q17g" y1=".5" x2="1" y2=".5" gradientUnits="objectBoundingBox">
            <stop offset=".005" stop-color="#836df3"/>
            <stop offset=".116" stop-color="#a66de9"/>
            <stop offset=".323" stop-color="#f36dd4"/>
            <stop offset="1" stop-color="#836df3"/>
        </linearGradient>
        <linearGradient id="ae4k8v93ib" x1=".434" y1=".319" x2=".571" y2=".679" gradientUnits="objectBoundingBox">
            <stop offset="0" stop-color="#3b3aba"/>
            <stop offset=".143" stop-color="#564bd7"/>
            <stop offset=".227" stop-color="#6152e3"/>
            <stop offset=".399" stop-color="#4528c9"/>
            <stop offset=".483" stop-color="#4221a9"/>
            <stop offset=".574" stop-color="#3f1b8c"/>
            <stop offset=".626" stop-color="#3f1982"/>
            <stop offset=".869" stop-color="#5e239e"/>
            <stop offset="1" stop-color="#491c8b"/>
        </linearGradient>
        <linearGradient id="uwslhj2hdh" x1=".248" y1=".104" x2=".777" y2=".902" xlink:href="#ae4k8v93ib"/>
        <linearGradient id="2eo5eabpri" x1=".703" y1="2.668" x2=".409" y2="-.154" xlink:href="#om8lasa09c"/>
        <linearGradient id="xm61rlfxtj" x1="-212.278" y1="-47.079" x2="-212.511" y2="-47.922" gradientUnits="objectBoundingBox">
            <stop offset=".096" stop-color="#45108a"/>
            <stop offset="1" stop-color="#7c1dc9"/>
        </linearGradient>
        <linearGradient id="ft4hf080sk" x1=".103" y1=".006" x2=".928" y2=".991" gradientUnits="objectBoundingBox">
            <stop offset="0" stop-color="#b0b7e6"/>
            <stop offset=".192" stop-color="#b2b8e6"/>
            <stop offset=".283" stop-color="#b3b9e6"/>
            <stop offset=".409" stop-color="#afb6e5"/>
            <stop offset=".909" stop-color="#afb6e5"/>
            <stop offset="1" stop-color="#b0b7e6"/>
        </linearGradient>
        <linearGradient id="q6le1nds6l" x1=".102" y1=".006" x2=".929" y2=".991" gradientUnits="objectBoundingBox">
            <stop offset="0" stop-color="#b2b9e6"/>
            <stop offset=".192" stop-color="#b4bbe7"/>
            <stop offset=".283" stop-color="#b7bde7"/>
            <stop offset=".409" stop-color="#afb6e5"/>
            <stop offset=".909" stop-color="#afb6e5"/>
            <stop offset="1" stop-color="#b2b9e6"/>
        </linearGradient>
        <linearGradient id="m2n8f8s9lm" x1=".102" y1=".006" x2=".929" y2=".991" gradientUnits="objectBoundingBox">
            <stop offset="0" stop-color="#b3bae7"/>
            <stop offset=".192" stop-color="#b7bde9"/>
            <stop offset=".283" stop-color="#bac0e9"/>
            <stop offset=".409" stop-color="#afb6e5"/>
            <stop offset=".909" stop-color="#afb6e5"/>
            <stop offset="1" stop-color="#b3bae7"/>
        </linearGradient>
        <linearGradient id="enfhmde1en" x1=".101" y1=".006" x2=".93" y2=".991" gradientUnits="objectBoundingBox">
            <stop offset="0" stop-color="#b5bbe8"/>
            <stop offset=".192" stop-color="#b9c0ea"/>
            <stop offset=".283" stop-color="#bec4ea"/>
            <stop offset=".409" stop-color="#afb6e5"/>
            <stop offset=".909" stop-color="#afb6e5"/>
            <stop offset="1" stop-color="#b5bbe8"/>
        </linearGradient>
        <linearGradient id="9dh98uez1o" x1=".1" y1=".006" x2=".931" y2=".991" gradientUnits="objectBoundingBox">
            <stop offset="0" stop-color="#b6bde8"/>
            <stop offset=".192" stop-color="#bcc2eb"/>
            <stop offset=".283" stop-color="#c2c7eb"/>
            <stop offset=".409" stop-color="#afb6e5"/>
            <stop offset=".909" stop-color="#afb6e5"/>
            <stop offset="1" stop-color="#b6bde8"/>
        </linearGradient>
        <linearGradient id="v084ethvwp" x1=".1" y1=".006" x2=".931" y2=".991" gradientUnits="objectBoundingBox">
            <stop offset="0" stop-color="#b8bee9"/>
            <stop offset=".192" stop-color="#bec5ec"/>
            <stop offset=".283" stop-color="#c6cbec"/>
            <stop offset=".393" stop-color="#b2b9e6"/>
            <stop offset=".409" stop-color="#afb6e5"/>
            <stop offset=".909" stop-color="#afb6e5"/>
            <stop offset="1" stop-color="#b8bee9"/>
        </linearGradient>
        <linearGradient id="71fg6gsvmq" x1=".099" y1=".005" x2=".932" y2=".991" gradientUnits="objectBoundingBox">
            <stop offset="0" stop-color="#b9bfea"/>
            <stop offset=".192" stop-color="#c1c7ee"/>
            <stop offset=".283" stop-color="#caceee"/>
            <stop offset=".378" stop-color="#b6bce7"/>
            <stop offset=".409" stop-color="#afb6e5"/>
            <stop offset=".909" stop-color="#afb6e5"/>
            <stop offset="1" stop-color="#b9bfea"/>
        </linearGradient>
        <linearGradient id="wag9zy8uer" x1=".098" y1=".005" x2=".933" y2=".991" gradientUnits="objectBoundingBox">
            <stop offset="0" stop-color="#bac1ea"/>
            <stop offset=".192" stop-color="#c4c9ef"/>
            <stop offset=".283" stop-color="#cdd2ef"/>
            <stop offset=".37" stop-color="#b9bfe8"/>
            <stop offset=".409" stop-color="#afb6e5"/>
            <stop offset=".909" stop-color="#afb6e5"/>
            <stop offset=".999" stop-color="#b9c0e9"/>
            <stop offset="1" stop-color="#bac1ea"/>
        </linearGradient>
        <linearGradient id="qm01f5aevs" x1=".098" y1=".005" x2=".934" y2=".991" gradientUnits="objectBoundingBox">
            <stop offset="0" stop-color="#bcc2eb"/>
            <stop offset=".192" stop-color="#c6ccf0"/>
            <stop offset=".277" stop-color="#d0d4f0"/>
            <stop offset=".283" stop-color="#d1d5f0"/>
            <stop offset=".361" stop-color="#bdc3e9"/>
            <stop offset=".409" stop-color="#afb6e5"/>
            <stop offset=".909" stop-color="#afb6e5"/>
            <stop offset=".988" stop-color="#b9c0ea"/>
            <stop offset="1" stop-color="#bcc2eb"/>
        </linearGradient>
        <linearGradient id="rhijxa42jt" x1=".097" y1=".005" x2=".934" y2=".992" gradientUnits="objectBoundingBox">
            <stop offset="0" stop-color="#bdc3ec"/>
            <stop offset=".192" stop-color="#c9cef1"/>
            <stop offset=".272" stop-color="#d3d7f1"/>
            <stop offset=".283" stop-color="#d5d9f1"/>
            <stop offset=".354" stop-color="#c1c6ea"/>
            <stop offset=".409" stop-color="#afb6e5"/>
            <stop offset=".909" stop-color="#afb6e5"/>
            <stop offset=".984" stop-color="#b9c0ea"/>
            <stop offset="1" stop-color="#bdc3ec"/>
        </linearGradient>
        <linearGradient id="cr5rzvvn5u" x1=".096" y1=".005" x2=".935" y2=".992" gradientUnits="objectBoundingBox">
            <stop offset="0" stop-color="#bfc5ec"/>
            <stop offset=".192" stop-color="#cbd1f3"/>
            <stop offset=".263" stop-color="#d5d8f3"/>
            <stop offset=".283" stop-color="#d9dcf3"/>
            <stop offset=".348" stop-color="#c5caec"/>
            <stop offset=".409" stop-color="#afb6e5"/>
            <stop offset=".909" stop-color="#afb6e5"/>
            <stop offset=".976" stop-color="#b9c0e9"/>
            <stop offset="1" stop-color="#bfc5ec"/>
        </linearGradient>
        <linearGradient id="6n89mq9gjv" x1=".096" y1=".005" x2=".936" y2=".992" gradientUnits="objectBoundingBox">
            <stop offset="0" stop-color="#c0c6ed"/>
            <stop offset=".192" stop-color="#ced3f4"/>
            <stop offset=".259" stop-color="#d8dbf4"/>
            <stop offset=".283" stop-color="#dde0f4"/>
            <stop offset=".343" stop-color="#c9ceed"/>
            <stop offset=".409" stop-color="#afb6e5"/>
            <stop offset=".909" stop-color="#afb6e5"/>
            <stop offset=".973" stop-color="#b9c0ea"/>
            <stop offset="1" stop-color="#c0c6ed"/>
        </linearGradient>
        <linearGradient id="3xocdm2bqw" x1=".095" y1=".005" x2=".936" y2=".992" gradientUnits="objectBoundingBox">
            <stop offset="0" stop-color="#c2c7ee"/>
            <stop offset=".192" stop-color="#d0d6f5"/>
            <stop offset=".253" stop-color="#daddf5"/>
            <stop offset=".283" stop-color="#e1e3f5"/>
            <stop offset=".339" stop-color="#cdd1ee"/>
            <stop offset=".409" stop-color="#afb6e5"/>
            <stop offset=".909" stop-color="#afb6e5"/>
            <stop offset=".968" stop-color="#b9bfea"/>
            <stop offset="1" stop-color="#c2c7ee"/>
        </linearGradient>
        <linearGradient id="c6cgmb5mbx" x1=".094" y1=".005" x2=".937" y2=".992" gradientUnits="objectBoundingBox">
            <stop offset="0" stop-color="#c3c9ee"/>
            <stop offset=".192" stop-color="#d3d8f6"/>
            <stop offset=".253" stop-color="#dde0f6"/>
            <stop offset=".283" stop-color="#e4e7f6"/>
            <stop offset=".336" stop-color="#d0d4ef"/>
            <stop offset=".409" stop-color="#afb6e5"/>
            <stop offset=".909" stop-color="#afb6e5"/>
            <stop offset=".966" stop-color="#b9c0e9"/>
            <stop offset="1" stop-color="#c3c9ee"/>
        </linearGradient>
        <linearGradient id="yq2bln9xfy" x1=".094" y1=".005" x2=".938" y2=".992" gradientUnits="objectBoundingBox">
            <stop offset="0" stop-color="#c4caef"/>
            <stop offset=".192" stop-color="#d6daf8"/>
            <stop offset=".25" stop-color="#e0e2f8"/>
            <stop offset=".283" stop-color="#e8eaf8"/>
            <stop offset=".333" stop-color="#d4d8f1"/>
            <stop offset=".409" stop-color="#afb6e5"/>
            <stop offset=".909" stop-color="#afb6e5"/>
            <stop offset=".963" stop-color="#b9c0ea"/>
            <stop offset="1" stop-color="#c4caef"/>
        </linearGradient>
        <linearGradient id="canitydc5z" x1=".093" y1=".005" x2=".939" y2=".992" gradientUnits="objectBoundingBox">
            <stop offset="0" stop-color="#c6cbf0"/>
            <stop offset=".192" stop-color="#d8ddf9"/>
            <stop offset=".246" stop-color="#e2e5f9"/>
            <stop offset=".283" stop-color="#eceef9"/>
            <stop offset=".33" stop-color="#d8dbf2"/>
            <stop offset=".409" stop-color="#afb6e5"/>
            <stop offset=".909" stop-color="#afb6e5"/>
            <stop offset=".96" stop-color="#b9bfea"/>
            <stop offset="1" stop-color="#c6cbf0"/>
        </linearGradient>
        <linearGradient id="ufib14f6gA" x1=".092" y1=".004" x2=".939" y2=".992" gradientUnits="objectBoundingBox">
            <stop offset="0" stop-color="#c7cdf0"/>
            <stop offset=".192" stop-color="#dbdffa"/>
            <stop offset=".244" stop-color="#e5e7fa"/>
            <stop offset=".283" stop-color="#f0f1fa"/>
            <stop offset=".327" stop-color="#dcdff3"/>
            <stop offset=".409" stop-color="#afb6e5"/>
            <stop offset=".909" stop-color="#afb6e5"/>
            <stop offset=".958" stop-color="#b9c0e9"/>
            <stop offset="1" stop-color="#c7cdf0"/>
        </linearGradient>
        <linearGradient id="ingzpvmn2B" x1=".092" y1=".004" x2=".94" y2=".992" gradientUnits="objectBoundingBox">
            <stop offset="0" stop-color="#c9cef1"/>
            <stop offset=".192" stop-color="#dde2fb"/>
            <stop offset=".24" stop-color="#e7eafb"/>
            <stop offset=".283" stop-color="#f4f5fb"/>
            <stop offset=".325" stop-color="#e0e3f4"/>
            <stop offset=".409" stop-color="#afb6e5"/>
            <stop offset=".909" stop-color="#afb6e5"/>
            <stop offset=".955" stop-color="#b9c0ea"/>
            <stop offset="1" stop-color="#c9cef1"/>
        </linearGradient>
        <linearGradient id="6kbq4svvgC" x1=".091" y1=".004" x2=".941" y2=".993" gradientUnits="objectBoundingBox">
            <stop offset="0" stop-color="#cacff2"/>
            <stop offset=".192" stop-color="#e0e4fd"/>
            <stop offset=".24" stop-color="#eaecfd"/>
            <stop offset=".283" stop-color="#f7f8fd"/>
            <stop offset=".324" stop-color="#e3e5f6"/>
            <stop offset=".407" stop-color="#b0b7e5"/>
            <stop offset=".409" stop-color="#afb6e5"/>
            <stop offset=".909" stop-color="#afb6e5"/>
            <stop offset=".954" stop-color="#b9c0ea"/>
            <stop offset="1" stop-color="#cacff2"/>
        </linearGradient>
        <linearGradient id="26ny46yw9D" x1=".09" y1=".004" x2=".941" y2=".993" gradientUnits="objectBoundingBox">
            <stop offset="0" stop-color="#ccd1f2"/>
            <stop offset=".192" stop-color="#e2e7fe"/>
            <stop offset=".237" stop-color="#eceffe"/>
            <stop offset=".283" stop-color="#fbfcfe"/>
            <stop offset=".322" stop-color="#e7e9f7"/>
            <stop offset=".401" stop-color="#b4bbe6"/>
            <stop offset=".409" stop-color="#afb6e5"/>
            <stop offset=".909" stop-color="#afb6e5"/>
            <stop offset=".951" stop-color="#b9c0e9"/>
            <stop offset="1" stop-color="#ccd1f2"/>
        </linearGradient>
        <linearGradient id="t3lmhtj67E" x1=".09" y1=".004" x2=".942" y2=".993" gradientUnits="objectBoundingBox">
            <stop offset="0" stop-color="#cdd2f3"/>
            <stop offset=".192" stop-color="#e5e9ff"/>
            <stop offset=".236" stop-color="#eff1ff"/>
            <stop offset=".283" stop-color="#fff"/>
            <stop offset=".32" stop-color="#ebedf8"/>
            <stop offset=".396" stop-color="#b8bee8"/>
            <stop offset=".409" stop-color="#afb6e5"/>
            <stop offset=".909" stop-color="#afb6e5"/>
            <stop offset=".95" stop-color="#b9c0ea"/>
            <stop offset="1" stop-color="#cdd2f3"/>
        </linearGradient>
        <linearGradient id="27nese6cmF" x1="-1.318" y1=".768" x2="1.886" y2=".295" gradientUnits="objectBoundingBox">
            <stop offset="0" stop-color="#afb6e5"/>
            <stop offset=".145" stop-color="#b5bce8"/>
            <stop offset=".349" stop-color="#c7cdf0"/>
            <stop offset=".581" stop-color="#e5e9ff"/>
            <stop offset=".855" stop-color="#f4f6ff"/>
            <stop offset="1" stop-color="#fff"/>
        </linearGradient>
        <linearGradient id="kry2k4uo3G" x1="-.435" y1="1.167" x2=".856" y2=".246" xlink:href="#om8lasa09c"/>
        <linearGradient id="3v2gof5vgd" x1="1.792" y1=".858" x2="-.832" y2=".131" gradientUnits="objectBoundingBox">
            <stop offset="0" stop-color="#bb6df3"/>
            <stop offset=".525" stop-color="#836df3"/>
            <stop offset=".66" stop-color="#7a6ef3"/>
            <stop offset=".879" stop-color="#6273f5"/>
            <stop offset="1" stop-color="#5277f7"/>
        </linearGradient>
        <linearGradient id="c7l0oveuyI" x1=".9" y1="-.119" x2=".256" y2="1.085" xlink:href="#3v2gof5vgd"/>
        <linearGradient id="bpv2qkjhiJ" x1=".428" y1=".092" x2=".82" y2=".97" xlink:href="#3v2gof5vgd"/>
        <linearGradient id="qao4xaf7zK" x1="375.562" y1=".09" x2="374.836" y2="1.152" gradientUnits="objectBoundingBox">
            <stop offset=".005" stop-color="#6cf"/>
            <stop offset=".246" stop-color="#62bcfd"/>
            <stop offset=".713" stop-color="#5893f9"/>
            <stop offset="1" stop-color="#5277f7"/>
        </linearGradient>
        <linearGradient id="830p5k80mL" x1="-.017" y1=".023" x2=".958" y2=".906" xlink:href="#om8lasa09c"/>
        <linearGradient id="p8kpxfxv5M" x1="350.63" y1="159.392" x2="350.951" y2="158.727" gradientUnits="objectBoundingBox">
            <stop offset="0" stop-color="#b4f759"/>
            <stop offset=".104" stop-color="#90f36c"/>
            <stop offset=".333" stop-color="#35ea9d"/>
            <stop offset=".359" stop-color="#2be9a3"/>
            <stop offset=".662" stop-color="#65c9ff"/>
            <stop offset=".844" stop-color="#5b9efa"/>
            <stop offset="1" stop-color="#5277f7"/>
        </linearGradient>
        <radialGradient id="gfz1opo8oH" cx=".451" cy=".419" r="1.3" gradientTransform="matrix(.76 0 0 1 .12 0)" gradientUnits="objectBoundingBox">
            <stop offset="0" stop-color="#711f56"/>
            <stop offset=".161" stop-color="#6b1d51"/>
            <stop offset=".363" stop-color="#5c1946"/>
            <stop offset=".585" stop-color="#421232"/>
            <stop offset=".821" stop-color="#1f0818"/>
            <stop offset="1"/>
        </radialGradient>
        <clipPath id="493sbxakne">
            <circle data-name="타원 281" cx="24" cy="24" r="24" transform="translate(92 1099)" style="fill:#398afa"/>
        </clipPath>
    </defs>
    <g data-name="Object / v3_img_48_fill_mission_contents" transform="translate(-92 -1099)">
        <path data-name="사각형 782" transform="translate(92 1099)" style="fill:transparent" d="M0 0h48v48H0z"/>
        <circle data-name="타원 279" cx="24" cy="24" r="24" transform="translate(92 1099)" style="fill:#996afa"/>
        <g data-name="마스크 그룹 13" style="clip-path:url(#493sbxakne)">
            <g data-name="그룹 2596">
                <g data-name="그룹 2589">
                    <g data-name="그룹 2582" style="opacity:.2">
                        <path data-name="패스 17031" d="M325.084 345.5c.325.172.367.3.358.506 0 .089-.045.2-.045.344a1.871 1.871 0 0 1-1 1.313l-4.466 2.843a3.28 3.28 0 0 1-1.5.464 2.469 2.469 0 0 1-1.231-.206s-2.955.481-5.811.861c-.737.1-1.558.217-2.262.3a21.048 21.048 0 0 1-4.18.3 4.906 4.906 0 0 1-.468-.208c-.578-.292-1.023-.665-1.027-1.019a1.57 1.57 0 0 1 .884-1.3c.069-.011 4-1.029 4.018-1.036l3.88-1.017 6.678-1.75 1.211-.334a10.679 10.679 0 0 1 2.6-.464c.345-.03.633-.055.788-.066a2.393 2.393 0 0 1 1.243.218l.236.18z" transform="translate(-211.422 792.144)" style="fill:#abb2e2;opacity:.048"/>
                        <path data-name="패스 17032" d="M325.283 345.721c.339.182.368.326.346.536a1.939 1.939 0 0 0-.082.335c0 .458-.639.97-1.134 1.284l-4.433 2.759a3.367 3.367 0 0 1-1.477.458 2.537 2.537 0 0 1-1.215-.182s-3.018.521-5.731.882c-.7.093-1.562.231-2.231.311a21.04 21.04 0 0 1-4.126.316 4.191 4.191 0 0 1-.462-.2c-.549-.279-1.018-.658-1.026-.994a1.5 1.5 0 0 1 .907-1.256c.137-.022 3.978-1 4.01-1.014l3.869-1.01 6.659-1.739 1.2-.348a10.883 10.883 0 0 1 2.578-.5c.338-.031.624-.062.784-.074a2.375 2.375 0 0 1 1.241.206c.009 0 .23.172.237.176z" transform="translate(-211.636 791.945)" style="fill:#a7addf;opacity:.095"/>
                        <path data-name="패스 17033" d="M325.481 345.94c.353.192.409.359.333.566 0 .08-.12.2-.12.326 0 .434-.8.957-1.27 1.255l-4.4 2.674a3.463 3.463 0 0 1-1.459.452 2.615 2.615 0 0 1-1.2-.158s-3.082.561-5.652.9c-.663.088-1.566.245-2.2.321a21.065 21.065 0 0 1-4.072.328 3.657 3.657 0 0 1-.456-.2c-.519-.265-1.013-.652-1.025-.97a1.445 1.445 0 0 1 .931-1.214c.206-.033 3.954-.971 4-.992l3.858-1 6.641-1.728 1.191-.361a11.145 11.145 0 0 1 2.555-.545c.33-.032.614-.068.78-.083a2.36 2.36 0 0 1 1.238.193c.013 0 .227.166.238.173z" transform="translate(-211.85 791.747)" style="fill:#a3a9dc;opacity:.143"/>
                        <path data-name="패스 17034" d="M325.678 346.157c.368.2.423.387.321.6 0 .076-.157.2-.157.316 0 .41-.964.945-1.407 1.226l-4.367 2.59a3.57 3.57 0 0 1-1.441.446 2.706 2.706 0 0 1-1.184-.133s-3.145.6-5.572.924c-.626.083-1.569.259-2.168.331a21.089 21.089 0 0 1-4.018.34 3.2 3.2 0 0 1-.451-.194c-.49-.251-1.008-.645-1.024-.945-.023-.439.334-.863.954-1.171.274-.044 3.93-.942 3.994-.97l3.847-1 6.622-1.717 1.181-.375a11.463 11.463 0 0 1 2.533-.586c.323-.033.6-.075.776-.092a2.347 2.347 0 0 1 1.235.181c.017.005.224.16.239.17z" transform="translate(-212.062 791.549)" style="fill:#9fa4d8;opacity:.19"/>
                        <path data-name="패스 17035" d="M325.874 346.373c.383.212.437.416.309.627 0 .072-.195.2-.195.307 0 .385-1.126.933-1.543 1.2l-4.334 2.506a3.694 3.694 0 0 1-1.423.44 2.81 2.81 0 0 1-1.168-.109s-3.208.641-5.492.945c-.589.078-1.573.273-2.137.34a21.118 21.118 0 0 1-3.963.352 2.888 2.888 0 0 1-.445-.19c-.461-.237-1-.638-1.023-.92-.029-.423.339-.83.977-1.129.343-.055 3.906-.912 3.986-.948l3.836-.991 6.6-1.706 1.172-.388a11.824 11.824 0 0 1 2.511-.627c.316-.034.594-.081.771-.1a2.337 2.337 0 0 1 1.232.169c.022.007.221.155.24.166z" transform="translate(-212.274 791.353)" style="fill:#9ba0d5;opacity:.238"/>
                        <path data-name="패스 17036" d="M326.071 346.588c.4.222.451.444.3.657 0 .067-.232.193-.232.3 0 .361-1.288.92-1.679 1.168l-4.3 2.422a3.835 3.835 0 0 1-1.4.434 2.936 2.936 0 0 1-1.152-.085s-3.271.681-5.413.966c-.552.073-1.577.285-2.105.35a21.578 21.578 0 0 1-3.909.364 2.613 2.613 0 0 1-.44-.185c-.432-.223-1-.631-1.022-.9-.035-.407.344-.8 1-1.086.411-.066 3.882-.883 3.978-.925l3.825-.985 6.585-1.7 1.162-.4a12.3 12.3 0 0 1 2.488-.668c.308-.035.585-.087.767-.109a2.328 2.328 0 0 1 1.229.156c.026.008.218.149.241.163z" transform="translate(-212.486 791.158)" style="fill:#979bd2;opacity:.286"/>
                        <path data-name="패스 17037" d="M326.266 346.8c.411.232.465.472.284.687 0 .063-.27.19-.27.288 0 .337-1.451.908-1.816 1.139l-4.268 2.337a4 4 0 0 1-1.386.428 3.086 3.086 0 0 1-1.136-.061s-3.334.721-5.333.987c-.516.068-1.581.3-2.074.36a21.723 21.723 0 0 1-3.855.376 2.381 2.381 0 0 1-.434-.18c-.4-.209-1-.625-1.021-.871-.04-.392.349-.763 1.023-1.044.48-.077 3.858-.854 3.97-.9l3.814-.978 6.566-1.684 1.152-.415a12.868 12.868 0 0 1 2.466-.709c.3-.036.575-.094.763-.118a2.32 2.32 0 0 1 1.227.144c.03.009.216.143.243.16z" transform="translate(-212.697 790.964)" style="fill:#9397cf;opacity:.333"/>
                        <path data-name="패스 17038" d="M326.461 347.015c.426.242.48.5.272.718 0 .058-.307.188-.307.278 0 .313-1.613.9-1.952 1.11l-4.235 2.253a4.188 4.188 0 0 1-1.368.422 3.26 3.26 0 0 1-1.121-.037s-3.4.762-5.254 1.008c-.479.064-1.585.313-2.043.37a21.862 21.862 0 0 1-3.8.388 2.188 2.188 0 0 1-.429-.176c-.374-.194-.992-.618-1.02-.846-.046-.377.355-.73 1.046-1 .548-.087 3.833-.825 3.961-.881l3.8-.972 6.547-1.673 1.142-.429a13.544 13.544 0 0 1 2.443-.75c.294-.037.565-.1.759-.127a2.314 2.314 0 0 1 1.224.132c.035.01.213.138.244.156z" transform="translate(-212.908 790.771)" style="fill:#8f92cc;opacity:.381"/>
                        <path data-name="패스 17039" d="M326.657 347.227c.441.252.494.529.259.748 0 .054-.344.185-.344.269 0 .289-1.776.883-2.089 1.081l-4.2 2.169a4.414 4.414 0 0 1-1.35.416 3.48 3.48 0 0 1-1.1-.012s-3.46.8-5.174 1.029c-.442.059-1.589.327-2.012.38a21.989 21.989 0 0 1-3.746.4 2.022 2.022 0 0 1-.423-.171c-.344-.18-.988-.612-1.018-.822-.052-.363.36-.7 1.069-.958.617-.1 3.809-.8 3.953-.859l3.792-.966 6.528-1.662 1.132-.442a14.367 14.367 0 0 1 2.421-.791c.287-.039.555-.106.755-.135a2.309 2.309 0 0 1 1.221.119 2.731 2.731 0 0 1 .245.153z" transform="translate(-213.118 790.579)" style="fill:#8b8ec9;opacity:.429"/>
                        <path data-name="패스 17040" d="M326.851 347.437c.455.262.508.558.247.778 0 .049-.382.183-.382.26 0 .265-1.938.87-2.225 1.052l-4.169 2.084a4.681 4.681 0 0 1-1.331.41 3.735 3.735 0 0 1-1.089.012s-3.524.842-5.094 1.05c-.405.054-1.593.341-1.98.389a22.152 22.152 0 0 1-3.692.412 1.877 1.877 0 0 1-.418-.167c-.316-.166-.985-.605-1.017-.8-.058-.349.365-.664 1.093-.916.686-.109 3.785-.766 3.945-.836l3.781-.959 6.51-1.651 1.123-.456a15.36 15.36 0 0 1 2.4-.832c.28-.04.546-.112.75-.144a2.307 2.307 0 0 1 1.218.107 2.445 2.445 0 0 1 .246.15z" transform="translate(-213.328 790.388)" style="fill:#8789c6;opacity:.476"/>
                        <path data-name="패스 17041" d="M326.968 347.647c.469.272.522.586.235.809 0 .045-.419.18-.419.25 0 .241-2.1.858-2.361 1.023l-4.136 2a5.01 5.01 0 0 1-1.313.4 4.064 4.064 0 0 1-1.074.036s-3.587.882-5.015 1.071c-.368.049-1.6.355-1.949.4a22.323 22.323 0 0 1-3.638.424 1.75 1.75 0 0 1-.412-.162c-.286-.151-1.016-.6-1.016-.772-.126-.317.37-.631 1.116-.873.754-.12 3.761-.737 3.937-.814l3.77-.953 6.491-1.64 1.113-.469a16.626 16.626 0 0 1 2.376-.873c.272-.041.536-.118.746-.153a2.3 2.3 0 0 1 1.215.095 2.242 2.242 0 0 1 .247.147z" transform="translate(-213.461 790.199)" style="fill:#8385c2;opacity:.524"/>
                        <path data-name="패스 17042" d="M327.152 347.854c.484.282.536.614.222.839 0 .04-.457.178-.457.241 0 .217-2.263.845-2.5.994l-4.1 1.916a5.412 5.412 0 0 1-1.3.4 4.456 4.456 0 0 1-1.058.06s-3.65.922-4.935 1.092c-.331.044-1.6.369-1.917.409a22.53 22.53 0 0 1-3.583.436 1.629 1.629 0 0 1-.407-.157c-.258-.136-1.015-.588-1.015-.747-.137-.3.375-.6 1.139-.831.823-.131 3.737-.708 3.929-.792l3.759-.946 6.472-1.629 1.1-.483a18.2 18.2 0 0 1 2.354-.913c.265-.042.526-.124.742-.161a2.3 2.3 0 0 1 1.212.082 2.032 2.032 0 0 1 .248.143z" transform="translate(-213.66 790.012)" style="fill:#7f80bf;opacity:.571"/>
                        <path data-name="패스 17043" d="M327.335 348.06c.5.292.551.643.21.869 0 .036-.494.176-.494.231a20.385 20.385 0 0 1-2.634.965l-4.07 1.831a5.907 5.907 0 0 1-1.277.392 4.971 4.971 0 0 1-1.042.085s-3.713.962-4.855 1.114c-.295.039-1.6.383-1.886.419a22.727 22.727 0 0 1-3.529.448 1.53 1.53 0 0 1-.4-.153c-.229-.122-1.014-.582-1.014-.723-.149-.283.38-.565 1.162-.788.891-.142 3.713-.679 3.921-.77l3.748-.94 6.453-1.619 1.093-.5a20.156 20.156 0 0 1 2.331-.954c.258-.043.516-.13.738-.17a2.3 2.3 0 0 1 1.21.07 1.875 1.875 0 0 1 .249.14z" transform="translate(-213.859 789.825)" style="fill:#7b7cbc;opacity:.619"/>
                        <path data-name="패스 17044" d="M327.519 348.265c.513.3.565.671.2.9 0 .031-.532.173-.532.222a26.21 26.21 0 0 1-2.771.936l-4.037 1.747a6.561 6.561 0 0 1-1.259.386 5.653 5.653 0 0 1-1.026.109s-3.776 1-4.776 1.135c-.258.034-1.608.4-1.855.429a22.931 22.931 0 0 1-3.475.459 1.435 1.435 0 0 1-.4-.148c-.2-.107-1.012-.575-1.012-.7-.16-.266.385-.531 1.185-.746.96-.153 3.689-.65 3.913-.748l3.737-.934 6.435-1.607 1.083-.51a22.831 22.831 0 0 1 2.309-1c.251-.044.507-.136.734-.179a2.3 2.3 0 0 1 1.207.058 1.729 1.729 0 0 1 .25.137z" transform="translate(-214.058 789.64)" style="fill:#7777b9;opacity:.667"/>
                        <path data-name="패스 17045" d="M327.7 348.468c.527.312.579.7.185.93 0 .027-.569.171-.569.213 0 .144-2.75.808-2.907.907l-4 1.663a7.422 7.422 0 0 1-1.24.38 6.566 6.566 0 0 1-1.011.133s-3.839 1.042-4.7 1.156c-.221.029-1.612.412-1.823.438a23.2 23.2 0 0 1-3.42.471 1.352 1.352 0 0 1-.39-.144 4.6 4.6 0 0 1-1.011-.674c-.172-.249.39-.5 1.208-.7 1.028-.164 3.665-.62 3.9-.726l3.726-.927 6.416-1.6 1.073-.523c.089-.057 2.023-.988 2.287-1.036.244-.045.5-.142.729-.188a2.3 2.3 0 0 1 1.2.045 1.627 1.627 0 0 1 .251.134z" transform="translate(-214.255 789.457)" style="fill:#7373b6;opacity:.714"/>
                        <path data-name="패스 17046" d="M327.883 348.67c.542.322.593.728.173.96 0 .022-.607.168-.607.2 0 .12-2.913.8-3.043.878l-3.971 1.578a8.629 8.629 0 0 1-1.222.374 7.841 7.841 0 0 1-.995.157s-3.9 1.082-4.616 1.177c-.184.024-1.616.426-1.792.448a23.48 23.48 0 0 1-3.366.483 1.275 1.275 0 0 1-.385-.139 5.53 5.53 0 0 1-1.01-.649c-.183-.231.4-.465 1.231-.661 1.1-.175 3.641-.591 3.9-.7l3.715-.921 6.4-1.586 1.064-.537c.074-.047 2.044-1.035 2.264-1.077.238-.046.488-.147.725-.2a2.3 2.3 0 0 1 1.2.033 1.507 1.507 0 0 1 .252.13z" transform="translate(-214.453 789.275)" style="fill:#6f6eb3;opacity:.762"/>
                        <path data-name="패스 17047" d="M328.065 348.87c.556.332.607.757.161.99 0 .018-.644.166-.644.194 0 .1-3.075.783-3.18.849l-3.938 1.494a10.473 10.473 0 0 1-1.2.368 9.88 9.88 0 0 1-.979.182s-3.966 1.122-4.537 1.2c-.147.02-1.62.44-1.761.458a23.744 23.744 0 0 1-3.312.5 1.2 1.2 0 0 1-.379-.134 6.948 6.948 0 0 1-1.009-.624c-.195-.214.4-.432 1.254-.618 1.165-.186 3.617-.562 3.889-.681l3.7-.914 6.378-1.575 1.054-.55c.059-.038 2.066-1.082 2.242-1.118.231-.047.478-.153.721-.2a2.3 2.3 0 0 1 1.2.021 1.411 1.411 0 0 1 .253.127z" transform="translate(-214.651 789.095)" style="fill:#6b6ab0;opacity:.81"/>
                        <path data-name="패스 17048" d="M328.247 349.068c.571.342.622.785.148 1.021 0 .013-.682.163-.682.184 0 .072-3.238.771-3.316.82l-3.905 1.41c-.061.039-1.108.357-1.186.362s-.915.231-.964.206c0 0-4.029 1.162-4.457 1.219-.111.015-1.624.454-1.729.468a24.1 24.1 0 0 1-3.258.507 1.134 1.134 0 0 1-.374-.13 9.3 9.3 0 0 1-1.008-.6c-.206-.2.405-.4 1.278-.576 1.234-.2 3.592-.533 3.88-.659l3.693-.908 6.36-1.564 1.044-.564c.045-.028 2.088-1.131 2.22-1.159.224-.048.468-.158.717-.214a2.307 2.307 0 0 1 1.2.008 1.342 1.342 0 0 1 .254.124z" transform="translate(-214.848 788.917)" style="fill:#6765ac;opacity:.857"/>
                        <path data-name="패스 17049" d="M328.428 349.265c.585.352.636.813.136 1.051 0 .009-.719.161-.719.175 0 .048-3.4.758-3.452.791l-3.872 1.326c-.041.026-1.116.353-1.168.356s-.915.247-.948.23c0 0-4.092 1.2-4.377 1.24-.074.01-1.628.468-1.7.478a24.385 24.385 0 0 1-3.2.519 1.07 1.07 0 0 1-.368-.125c-.057-.031-1.007-.54-1.007-.575-.218-.18.41-.366 1.3-.533 1.3-.208 3.568-.5 3.873-.637l3.682-.9 6.341-1.553 1.034-.577c.03-.019 2.11-1.18 2.2-1.2.218-.049.459-.164.712-.222a2.308 2.308 0 0 1 1.193 0 1.259 1.259 0 0 1 .255.12z" transform="translate(-215.045 788.74)" style="fill:#6361a9;opacity:.905"/>
                        <path data-name="패스 17050" d="M328.609 349.46c.6.362.65.842.124 1.081 0 0-.756.159-.756.166 0 .024-3.563.746-3.589.762l-3.839 1.241c-.021.013-1.123.348-1.149.35s-.916.263-.932.254c0 0-4.155 1.242-4.3 1.261-.037 0-1.632.483-1.667.487a24.8 24.8 0 0 1-3.149.531 1.012 1.012 0 0 1-.362-.121c-.028-.016-1.006-.533-1.006-.55-.229-.163.415-.333 1.324-.49 1.371-.219 3.544-.474 3.864-.614l3.671-.9 6.322-1.542 1.024-.591c.015-.009 2.131-1.23 2.175-1.241.211-.05.449-.169.708-.231a2.311 2.311 0 0 1 1.19-.017 1.194 1.194 0 0 1 .256.117z" transform="translate(-215.242 788.565)" style="fill:#5f5ca6;opacity:.952"/>
                        <path data-name="패스 17051" d="m312.676 355.212 5.853-1.779 5.853-1.779 4.519-.89c.553-.242.5-.739-.112-1.112l-.088-.04a2.623 2.623 0 0 0-2.149.155l-3.167 1.886-9.963 2.42c-.553.242-5.818.668-5.2 1.04l1 .526c.616.373 1.71-.178 3.454-.427z" transform="translate(-215.438 788.392)" style="fill:#5b58a3"/>
                    </g>
                    <path data-name="패스 17052" d="M425.685 350.357s-.18.719.343.784a8.772 8.772 0 0 0 2.205-.474c.588-.147 1.127-.376 1.029-1.111s-1.682-.343-1.682-.343z" transform="translate(-315.591 788.669)" style="fill:#ced3f4"/>
                    <path data-name="패스 17053" d="M427.875 354.938c-.539.082-.849.261-1.47.343a.767.767 0 0 1-.748-.33c0 .215.051.5.372.542a8.775 8.775 0 0 0 2.205-.474c.5-.124.957-.308 1.029-.8-.352.649-.897.645-1.388.719z" transform="translate(-315.592 784.317)" style="fill:#afb6e5"/>
                    <g data-name="그룹 2583">
                        <path data-name="패스 17054" d="M440.172 349.591a.074.074 0 0 1-.07-.1l.258-.738a.074.074 0 1 1 .139.049l-.258.738a.074.074 0 0 1-.069.051z" transform="translate(-327.903 789.014)" style="fill:#ebeeff"/>
                    </g>
                    <g data-name="그룹 2584">
                        <path data-name="패스 17055" d="M439.537 349.741a.073.073 0 0 1-.049-.019l-.615-.553a.074.074 0 1 1 .1-.11l.615.553a.074.074 0 0 1-.049.129z" transform="translate(-326.839 788.728)" style="fill:#ebeeff"/>
                    </g>
                    <path data-name="패스 17056" d="M307.568 373.166a.359.359 0 0 0 .157.388c.377.24 1.137.718 1.307.78.229.083.959-.167 1-.354s.083-.521-.083-.625a.576.576 0 0 0-.271-.1l.625-1.063-1.334-.9a3.942 3.942 0 0 0-1.042.792 4.747 4.747 0 0 0-.359 1.082z" transform="translate(-214.916 769.76)" style="fill:#ced3f4"/>
                    <path data-name="패스 17057" d="M310.033 376.33a1.58 1.58 0 0 0 .026-.147 1.454 1.454 0 0 1-.526.314c-.167 0-.333-.354-.333-.688s.188-1.271-.313-1.584a1.323 1.323 0 0 0-.553-.177 1.678 1.678 0 0 0-.405.385 4.747 4.747 0 0 0-.36 1.083.36.36 0 0 0 .157.388c.377.24 1.137.718 1.307.78.228.083.958-.167 1-.354z" transform="translate(-214.916 767.41)" style="fill:#afb6e5"/>
                    <path data-name="패스 17058" d="m314.915 304.94 6.286-4.46.617-7.164 4.6 1s-1.708 7.069-2.42 7.639-7.567 4.08-7.567 4.08a3.891 3.891 0 0 0-.712-.807 1.926 1.926 0 0 0-.804-.288z" transform="translate(-221.188 836.232)" style="fill:url(#o1bm2safxa)"/>
                    <path data-name="패스 17059" d="M330.5 298.876a43.289 43.289 0 0 1-1.815 7.046c-.293.381-5.226 3.227-6.952 4.217a4.834 4.834 0 0 1 .512.633s6.856-3.511 7.567-4.08 2.42-7.639 2.42-7.639z" transform="translate(-227.003 831.492)" style="isolation:isolate;mix-blend-mode:multiply;fill:#ced3f4"/>
                    <path data-name="패스 17060" d="M375.135 288.061a2.523 2.523 0 0 0 3.665 2.139c1.554-.622 3.962-1.708 3.962-1.708s-.213 6.737-.166 7.022.809.219 1.257.024c.409-.178.664-.308.783-.783s1.044-7.852.664-8.8-1.708-1.162-3.274-.807-5.432 1.091-5.432 1.091a2.145 2.145 0 0 0-1.459 1.822z" transform="translate(-272.524 843.337)" style="fill:url(#y94ui0zepf)"/>
                    <path data-name="패스 17061" d="M359.822 223.866c-.733.167-1.467.412-1.538 2.227-.058 1.491-.024 10.162-.024 10.162s1.039 1 4.473.747c2.343-.169 2.681-1.708 2.681-1.708s-.1-3.789-.144-7.061c-.022-1.528-.235-1.915-.74-2.311a21.613 21.613 0 0 0-2.319-1.5 4.28 4.28 0 0 0-2.389-.556z" transform="translate(-258.13 895.464)" style="fill:url(#om8lasa09c)"/>
                    <path data-name="패스 17062" d="m391.891 249.286-2.172-.581c-.51 4.306.5 9.112-.217 9.489 2.227-.215 2.554-1.7 2.554-1.7s-.1-3.782-.144-7.051c-.007-.051-.012-.106-.021-.157z" transform="translate(-284.771 874.261)" style="isolation:isolate;mix-blend-mode:multiply;fill:#ced3f4"/>
                    <path data-name="패스 17063" d="M372.923 226.527c-.02.388-.66.67-1.429.63s-1.376-.386-1.356-.774.66-.67 1.429-.63 1.376.387 1.356.774z" transform="translate(-268.264 893.83)" style="fill:#fff"/>
                    <path data-name="패스 17064" d="M370.438 198.757a.276.276 0 0 0 .05.257 1.583 1.583 0 0 0 1.138.472 1.9 1.9 0 0 0 1.069-.228.323.323 0 0 0 .148-.223l.026-.861s.637.019.818-.227.726-3.292-.2-4.02-2.9-.454-3.169.932a3.664 3.664 0 0 0 .435 2.427 4.234 4.234 0 0 1-.315 1.471z" transform="translate(-268.361 921.292)" style="fill:#ffd4c0"/>
                    <path data-name="패스 17065" d="M408.6 326.484a1.718 1.718 0 0 0 .147.681c.14.231.252.368.331.373s.258-.5.258-.5z" transform="translate(-301.049 807.957)" style="fill:#ffd4c0"/>
                    <path data-name="패스 17066" d="m427.068 303.338-1.233.8s-.214 6.737-.166 7.022c.034.2.431.227.819.154z" transform="translate(-315.596 827.688)" style="isolation:isolate;mix-blend-mode:multiply;fill:#ced3f4"/>
                    <g data-name="그룹 2586">
                        <path data-name="패스 17067" d="M417.443 313.882a.619.619 0 0 1-.259.563c-.005 0-.58.326-.586.323-.2-.1-.321 0-.652-.188a2.3 2.3 0 0 1-1.108-1.747.672.672 0 0 1 .126-.483c.007-.014.607-.35.622-.356a.935.935 0 0 1 .749.141 2.3 2.3 0 0 1 1.108 1.747z" transform="translate(-306.37 820.336)" style="fill:url(#9fn072q17g)"/>
                        <path data-name="패스 17068" d="M416.3 315.861c0 .611-.5.82-1.106.467a2.294 2.294 0 0 1-1.106-1.744c0-.611.5-.82 1.106-.467a2.294 2.294 0 0 1 1.106 1.744z" transform="translate(-305.727 818.646)" style="fill:#f36dd4"/>
                        <path data-name="패스 17069" d="M417.074 316.906c0 .519-.421.7-.94.4a1.949 1.949 0 0 1-.94-1.482c0-.519.421-.7.94-.4a1.949 1.949 0 0 1 .94 1.482z" transform="translate(-306.674 817.51)" style="fill:#bb6df3"/>
                        <g data-name="그룹 2585">
                            <path data-name="패스 17070" d="M405.194 320.8a.176.176 0 0 1-.074.16l-2.621 1.452c-.058.032-.092 0-.186-.056a.653.653 0 0 1-.315-.5c0-.085-.023-.113.032-.138l2.636-1.459a.266.266 0 0 1 .213.04.653.653 0 0 1 .315.501z" transform="translate(-295.42 813.271)" style="fill:url(#ae4k8v93ib)"/>
                            <path data-name="패스 17071" d="M402.312 330.628c0 .174-.141.234-.315.133a.653.653 0 0 1-.315-.5c0-.174.141-.234.315-.133a.653.653 0 0 1 .315.5z" transform="translate(-295.155 804.89)" style="fill:#72b5e8"/>
                        </g>
                    </g>
                    <g data-name="그룹 2588">
                        <path data-name="패스 17072" d="M396.046 326.193a.619.619 0 0 1-.259.563c-.005 0-.58.326-.586.323-.2-.1-.321 0-.652-.188a2.3 2.3 0 0 1-1.108-1.747.671.671 0 0 1 .126-.483c.007-.014.607-.35.622-.356a.935.935 0 0 1 .749.141 2.3 2.3 0 0 1 1.108 1.747z" transform="translate(-288.129 809.841)" style="fill:url(#9fn072q17g)"/>
                        <path data-name="패스 17073" d="M394.9 328.172c0 .611-.5.82-1.106.467a2.294 2.294 0 0 1-1.106-1.744c0-.611.5-.82 1.106-.467a2.294 2.294 0 0 1 1.106 1.744z" transform="translate(-287.487 808.151)" style="fill:#f36dd4"/>
                        <path data-name="패스 17074" d="M395.678 329.217c0 .519-.421.7-.94.4a1.949 1.949 0 0 1-.94-1.482c0-.519.421-.7.94-.4a1.949 1.949 0 0 1 .94 1.482z" transform="translate(-288.433 807.015)" style="fill:#bb6df3"/>
                        <path data-name="패스 17075" d="M394.176 327.64a.488.488 0 0 0-.327.523 1.949 1.949 0 0 0 .94 1.482.866.866 0 0 0 .562.138.815.815 0 0 1-.613-.126 1.949 1.949 0 0 1-.94-1.482.479.479 0 0 1 .378-.535z" transform="translate(-288.433 806.972)" style="isolation:isolate;mix-blend-mode:multiply;fill:#afb6e5"/>
                        <g data-name="그룹 2587">
                            <path data-name="패스 17076" d="M397.6 333.168a.163.163 0 0 1-.068.148l-.27.152c-.054.03-.085 0-.172-.052a.6.6 0 0 1-.292-.46c0-.079-.022-.1.03-.128l.284-.158a.246.246 0 0 1 .2.037.605.605 0 0 1 .288.461z" transform="translate(-290.983 802.69)" style="fill:url(#uwslhj2hdh)"/>
                            <path data-name="패스 17077" d="M397.085 334.187c0 .161-.131.216-.292.123a.606.606 0 0 1-.292-.46c0-.161.131-.216.292-.123a.6.6 0 0 1 .292.46z" transform="translate(-290.737 801.821)" style="fill:#273b98"/>
                        </g>
                    </g>
                    <path data-name="패스 17078" d="M394.246 253.185a6.053 6.053 0 0 1-.47-.666c-.174-.53-1.093-3.464-1.236-3.97a21.189 21.189 0 0 1-.116-3.668c0-1.925.322-3.866-1.091-3.345-.777.286-.985 1.2-1.008 2.39a36.493 36.493 0 0 0 .455 4.732c.129.626 1.881 4.1 2.012 4.371a2.293 2.293 0 0 0 .106.8 5.817 5.817 0 0 0 .575.866s-.108.29-.015.341.243-.065.243-.065a.284.284 0 0 0 .124.03c.063 0 .127-.123.127-.123a.223.223 0 0 0 .161.072.527.527 0 0 0 .224-.129.3.3 0 0 0 .238.02c.139-.043.329-.647.323-.835s-.492-.641-.652-.821z" transform="translate(-285.472 880.446)" style="fill:#ffd4c0"/>
                    <path data-name="패스 17079" d="M391.563 243.182c.036-2.384.007-3.558-1.366-3.052-.777.286-1.179 1.451-1.2 2.638 0 .191 0 .426.015.689z" transform="translate(-284.338 881.67)" style="fill:url(#2eo5eabpri)"/>
                    <path data-name="패스 17080" d="M389.036 261.735c0 .08.006.161.01.247l2.553-.275v-.243z" transform="translate(-284.374 863.385)" style="fill:#fff"/>
                    <path data-name="패스 17081" d="M369.066 194.885a2.74 2.74 0 0 0 1.069.059c.545-.211.4-1.5.751-1.833.207-.2.417-.01.418.223 0 .192.057.318.13.333a6.331 6.331 0 0 0 .334-1.139s1.45-.9.878-2.136c-.456.375-3.743-.843-4.406 1.507-.525 1.854.474 2.918.826 2.986z" transform="translate(-266.518 923.971)" style="fill:url(#xm61rlfxtj)"/>
                </g>
                <g data-name="그룹 2597">
                    <g data-name="그룹 2568" style="opacity:.2">
                        <path data-name="패스 16913" d="m483.622 289.061.633-.568c.01-.006.75-.674.761-.673a1.721 1.721 0 0 1 .585-.187 2.053 2.053 0 0 1 .279-.016 1.468 1.468 0 0 1 .71.178l3.8 2.137.2.11 4 2.248a.852.852 0 0 1 .369.4.688.688 0 0 1 .049.239.857.857 0 0 1-.485.739l-.748.367c-.016.009-1.381.668-1.4.66a1.792 1.792 0 0 1-.862.2 1.47 1.47 0 0 1-.71-.179l-3.164-1.865-.462-.272-3.627-2.137a.848.848 0 0 1-.374-.416.691.691 0 0 1-.044-.227.856.856 0 0 1 .49-.738z" transform="translate(-363.803 839.454)" style="fill:#abb2e2;opacity:.048"/>
                        <path data-name="패스 16914" d="m483.8 289.766.629-.553c.019-.011.736-.649.759-.648a1.746 1.746 0 0 1 .577-.172 2.252 2.252 0 0 1 .274-.01 1.492 1.492 0 0 1 .7.183l3.752 2.109.193.108 3.945 2.217a.884.884 0 0 1 .368.394.691.691 0 0 1 .054.233.828.828 0 0 1-.472.73l-.738.362c-.032.019-1.355.645-1.383.629a1.814 1.814 0 0 1-.848.17 1.5 1.5 0 0 1-.7-.183l-3.123-1.838-.456-.268-3.58-2.107a.882.882 0 0 1-.373-.406.694.694 0 0 1-.049-.221.826.826 0 0 1 .471-.729z" transform="translate(-363.974 838.774)" style="fill:#a7addf;opacity:.095"/>
                        <path data-name="패스 16915" d="m483.978 290.458.625-.538c.029-.017.722-.624.757-.622a1.777 1.777 0 0 1 .57-.157 2.5 2.5 0 0 1 .268 0 1.525 1.525 0 0 1 .685.187l3.7 2.08.19.107 3.891 2.188a.925.925 0 0 1 .367.384.7.7 0 0 1 .058.227.8.8 0 0 1-.459.72l-.728.357c-.048.028-1.328.623-1.37.6a1.841 1.841 0 0 1-.834.144 1.529 1.529 0 0 1-.686-.188l-3.082-1.811-.45-.264-3.533-2.076a.922.922 0 0 1-.373-.4.7.7 0 0 1-.053-.215.8.8 0 0 1 .457-.723z" transform="translate(-364.142 838.106)" style="fill:#a3a9dc;opacity:.143"/>
                        <path data-name="패스 16916" d="m484.153 291.136.621-.523c.039-.022.708-.6.754-.6a1.807 1.807 0 0 1 .562-.142c.076-.008.186 0 .263 0a1.559 1.559 0 0 1 .673.191l3.647 2.052.187.105 3.836 2.158a.969.969 0 0 1 .366.374.694.694 0 0 1 .062.221.769.769 0 0 1-.446.71l-.719.352a11.86 11.86 0 0 1-1.358.568 1.88 1.88 0 0 1-.819.118 1.567 1.567 0 0 1-.675-.192l-3.041-1.785-.444-.26-3.486-2.046a.966.966 0 0 1-.372-.385.705.705 0 0 1-.058-.209.767.767 0 0 1 .447-.707z" transform="translate(-364.308 837.453)" style="fill:#9fa4d8;opacity:.19"/>
                        <path data-name="패스 16917" d="m484.325 291.806.617-.509c.048-.028.694-.574.752-.571a1.841 1.841 0 0 1 .554-.127c.072-.007.185.008.258.008a1.6 1.6 0 0 1 .661.2l3.595 2.023.184.1 3.781 2.129a1.022 1.022 0 0 1 .365.363.707.707 0 0 1 .067.215.74.74 0 0 1-.432.7l-.709.348a9.111 9.111 0 0 1-1.346.537 1.928 1.928 0 0 1-.805.092 1.609 1.609 0 0 1-.663-.2l-3-1.758-.438-.256-3.439-2.016a1.02 1.02 0 0 1-.372-.375.717.717 0 0 1-.062-.2.737.737 0 0 1 .432-.703z" transform="translate(-364.472 836.807)" style="fill:#9ba0d5;opacity:.238"/>
                        <path data-name="패스 16918" d="m484.494 292.472.613-.494a7.767 7.767 0 0 1 .75-.545 1.876 1.876 0 0 1 .547-.112c.067-.006.185.013.253.013a1.647 1.647 0 0 1 .648.2l3.542 1.995.181.1 3.727 2.1a1.081 1.081 0 0 1 .364.353.629.629 0 0 1-.348.9l-.7.343a7.294 7.294 0 0 1-1.333.507 1.994 1.994 0 0 1-.791.065 1.659 1.659 0 0 1-.651-.2l-2.959-1.732-.431-.253-3.392-1.985a1.08 1.08 0 0 1-.371-.364.727.727 0 0 1-.067-.2.709.709 0 0 1 .418-.691z" transform="translate(-364.633 836.165)" style="fill:#979bd2;opacity:.286"/>
                        <path data-name="패스 16919" d="m484.661 293.111.609-.479a6.4 6.4 0 0 1 .747-.519 4.15 4.15 0 0 1 .539-.1 1.473 1.473 0 0 1 .248.019 1.7 1.7 0 0 1 .636.2l3.489 1.966.178.1 3.672 2.069a1.152 1.152 0 0 1 .364.343.728.728 0 0 1 .076.2.685.685 0 0 1-.406.682l-.69.338a6.012 6.012 0 0 1-1.321.476 2.074 2.074 0 0 1-.777.039 1.718 1.718 0 0 1-.639-.206l-2.918-1.705-.425-.249-3.343-1.945a1.155 1.155 0 0 1-.371-.354.745.745 0 0 1-.071-.192.681.681 0 0 1 .403-.683z" transform="translate(-364.792 835.55)" style="fill:#9397cf;opacity:.333"/>
                        <path data-name="패스 16920" d="m484.826 293.774.605-.464a5.377 5.377 0 0 1 .745-.494c.169-.059.359-.039.532-.082a1.475 1.475 0 0 1 .243.025 1.775 1.775 0 0 1 .624.208l3.437 1.938.175.1 3.617 2.039a1.237 1.237 0 0 1 .363.333.748.748 0 0 1 .08.2.658.658 0 0 1-.392.672l-.68.333a5.058 5.058 0 0 1-1.308.445c-.154.089-.567.013-.763.013a1.789 1.789 0 0 1-.627-.21l-2.877-1.679-.419-.245-3.3-1.925a1.238 1.238 0 0 1-.37-.343.764.764 0 0 1-.075-.186.654.654 0 0 1 .39-.678z" transform="translate(-364.948 834.912)" style="fill:#8f92cc;opacity:.381"/>
                        <path data-name="패스 16921" d="m484.988 294.436.6-.449a4.587 4.587 0 0 1 .742-.468c.169-.054.356-.023.524-.067a1.458 1.458 0 0 1 .237.031 1.855 1.855 0 0 1 .612.213l3.384 1.909.172.1 3.562 2.01a1.336 1.336 0 0 1 .362.323.763.763 0 0 1 .084.19.632.632 0 0 1-.379.662l-.67.328a4.331 4.331 0 0 1-1.3.415c-.142.082-.567-.013-.748-.013a1.872 1.872 0 0 1-.615-.215l-2.836-1.652-.413-.241-3.252-1.895a1.338 1.338 0 0 1-.37-.333.794.794 0 0 1-.08-.18.628.628 0 0 1 .384-.668z" transform="translate(-365.102 834.273)" style="fill:#8b8ec9;opacity:.429"/>
                        <path data-name="패스 16922" d="m485.148 295.1.6-.434a3.968 3.968 0 0 1 .74-.443c.168-.049.353-.007.516-.052a1.459 1.459 0 0 1 .232.036 1.951 1.951 0 0 1 .6.217l3.331 1.881.17.1 3.507 1.98a1.459 1.459 0 0 1 .361.312.791.791 0 0 1 .089.184.606.606 0 0 1-.366.652l-.66.324a3.75 3.75 0 0 1-1.283.384c-.13.075-.568-.04-.734-.04a1.975 1.975 0 0 1-.6-.219l-2.795-1.626-.407-.237-3.2-1.864a1.465 1.465 0 0 1-.37-.323.838.838 0 0 1-.084-.174.6.6 0 0 1 .353-.658z" transform="translate(-365.253 833.636)" style="fill:#8789c6;opacity:.476"/>
                        <path data-name="패스 16923" d="m485.305 295.76.593-.419a3.466 3.466 0 0 1 .738-.417c.168-.044.35.01.509-.037.043-.013.181.042.227.042a2.07 2.07 0 0 1 .587.222l3.279 1.849.167.094 3.452 1.95a1.613 1.613 0 0 1 .36.3.834.834 0 0 1 .093.177.581.581 0 0 1-.353.643l-.651.319a3.287 3.287 0 0 1-1.271.354c-.119.068-.569-.066-.72-.066a2.1 2.1 0 0 1-.592-.224l-2.754-1.6-.4-.233-3.158-1.834a1.62 1.62 0 0 1-.369-.312.9.9 0 0 1-.089-.168.577.577 0 0 1 .352-.64z" transform="translate(-365.402 832.998)" style="fill:#8385c2;opacity:.524"/>
                        <path data-name="패스 16924" d="m485.46 296.421.589-.4a3.051 3.051 0 0 1 .736-.391c.167-.038.347.026.5-.022.038-.012.181.048.222.048a2.222 2.222 0 0 1 .575.226l3.226 1.824.164.093 3.4 1.92a1.381 1.381 0 0 1 .36.292.482.482 0 0 1 .1.171c.071.223-.048.465-.339.633l-.641.314a2.9 2.9 0 0 1-1.259.323c-.107.062-.57-.092-.705-.092a2.256 2.256 0 0 1-.58-.229l-2.713-1.573-.395-.229-3.111-1.8a1.385 1.385 0 0 1-.369-.3.481.481 0 0 1-.093-.163c-.078-.232.041-.476.333-.645z" transform="translate(-365.549 832.362)" style="fill:#7f80bf;opacity:.571"/>
                        <path data-name="패스 16925" d="m485.613 297.077.585-.39a2.71 2.71 0 0 1 .733-.366c.167-.033.344.042.493-.007.034-.011.18.054.217.054a2.409 2.409 0 0 1 .563.23l3.174 1.8.161.091 3.342 1.89a1.506 1.506 0 0 1 .359.282.47.47 0 0 1 .1.165c.078.217-.037.457-.326.623l-.631.309a2.588 2.588 0 0 1-1.246.293c-.095.055-.571-.118-.691-.118a2.458 2.458 0 0 1-.568-.233l-2.672-1.546-.389-.225-3.064-1.773a1.526 1.526 0 0 1-.368-.291.47.47 0 0 1-.1-.157c-.077-.221.037-.463.328-.631z" transform="translate(-365.693 831.729)" style="fill:#7b7cbc;opacity:.619"/>
                        <path data-name="패스 16926" d="m485.763 297.531.581-.375a2.434 2.434 0 0 1 .731-.34 1.263 1.263 0 0 1 .486.008c.031 0 .18.059.212.059a2.659 2.659 0 0 1 .551.234l3.121 1.767.158.089 3.288 1.861a1.68 1.68 0 0 1 .358.272.463.463 0 0 1 .106.159c.084.211-.026.449-.313.614l-.621.3a2.323 2.323 0 0 1-1.234.262c-.083.048-.571-.144-.677-.144a2.717 2.717 0 0 1-.556-.238l-2.631-1.519-.382-.221-3.017-1.743a1.7 1.7 0 0 1-.368-.281.467.467 0 0 1-.1-.151c-.091-.207.018-.444.307-.613z" transform="translate(-365.835 831.3)" style="fill:#7777b9;opacity:.667"/>
                        <path data-name="패스 16927" d="m485.911 298.121.577-.36a2.195 2.195 0 0 1 .728-.314 1.221 1.221 0 0 1 .478.023c.027 0 .179.065.206.065a2.992 2.992 0 0 1 .539.239l3.069 1.738.155.088 3.233 1.831a1.92 1.92 0 0 1 .357.262.459.459 0 0 1 .111.153c.09.205-.015.44-.3.6l-.612.3a2.1 2.1 0 0 1-1.221.231c-.071.041-.572-.171-.662-.171a3.063 3.063 0 0 1-.544-.242l-2.59-1.493-.376-.217-2.971-1.712a1.944 1.944 0 0 1-.367-.27.462.462 0 0 1-.106-.145c-.095-.203.01-.44.296-.606z" transform="translate(-365.975 830.734)" style="fill:#7373b6;opacity:.714"/>
                        <path data-name="패스 16928" d="m486.057 298.7.573-.345a1.993 1.993 0 0 1 .726-.289 1.179 1.179 0 0 1 .471.038c.022 0 .178.071.2.071a3.47 3.47 0 0 1 .526.243l3.016 1.709.152.086 3.178 1.8a2.248 2.248 0 0 1 .356.251.455.455 0 0 1 .115.147c.1.2 0 .432-.286.595l-.6.295a1.905 1.905 0 0 1-1.209.2 5.446 5.446 0 0 1-.648-.2 3.555 3.555 0 0 1-.533-.247l-2.549-1.466-.37-.213-2.924-1.682a2.292 2.292 0 0 1-.367-.26.457.457 0 0 1-.111-.139c-.1-.194-.001-.427.284-.594z" transform="translate(-366.112 830.177)" style="fill:#6f6eb3;opacity:.762"/>
                        <path data-name="패스 16929" d="m486.2 299.273.569-.33a1.825 1.825 0 0 1 .724-.263 1.136 1.136 0 0 1 .463.053c.018 0 .178.077.2.077a4.189 4.189 0 0 1 .514.247l2.964 1.681.149.085 3.123 1.771a2.76 2.76 0 0 1 .356.241.451.451 0 0 1 .12.141c.1.194.007.423-.273.585l-.592.29a1.741 1.741 0 0 1-1.2.17c-.047.027-.574-.223-.634-.223a4.3 4.3 0 0 1-.521-.251l-2.508-1.44-.364-.209-2.877-1.652a2.805 2.805 0 0 1-.367-.249.454.454 0 0 1-.115-.133c-.108-.196-.013-.428.269-.591z" transform="translate(-366.247 829.63)" style="fill:#6b6ab0;opacity:.81"/>
                        <path data-name="패스 16930" d="m486.343 299.833.565-.315a1.677 1.677 0 0 1 .721-.238 1.094 1.094 0 0 1 .455.068c.013 0 .177.082.191.082a5.373 5.373 0 0 1 .5.252l2.911 1.652.146.083 3.068 1.742a3.582 3.582 0 0 1 .355.231.449.449 0 0 1 .124.134c.11.188.018.415-.259.575l-.583.285a1.6 1.6 0 0 1-1.184.139c-.036.021-.574-.249-.62-.249a5.566 5.566 0 0 1-.509-.256l-2.466-1.413-.358-.205-2.83-1.621a3.643 3.643 0 0 1-.366-.239.453.453 0 0 1-.119-.127c-.113-.188-.023-.413.258-.58z" transform="translate(-366.381 829.094)" style="fill:#6765ac;opacity:.857"/>
                        <path data-name="패스 16931" d="m486.482 300.379.561-.3a1.551 1.551 0 0 1 .719-.212 1.052 1.052 0 0 1 .448.083c.009 0 .176.088.186.088.026 0 .471.245.49.256l2.858 1.624.144.082 3.013 1.712c.017.01.348.205.354.221a.448.448 0 0 1 .128.128c.116.181.029.406-.246.566l-.573.28a1.476 1.476 0 0 1-1.172.109c-.024.014-.575-.276-.605-.276s-.478-.25-.5-.26l-2.425-1.387-.352-.2-2.783-1.591a5.42 5.42 0 0 1-.366-.228.458.458 0 0 1-.124-.122c-.119-.184-.037-.412.245-.573z" transform="translate(-366.512 828.573)" style="fill:#6361a9;opacity:.905"/>
                        <path data-name="패스 16932" d="m486.62 300.917.557-.285a1.441 1.441 0 0 1 .717-.186 1.01 1.01 0 0 1 .44.1s.176.094.181.094.468.255.477.26l2.806 1.6.141.08 2.958 1.682c.009 0 .35.2.353.211a.456.456 0 0 1 .133.122c.123.175.04.4-.233.556l-.563.275a1.368 1.368 0 0 1-1.159.078c-.012.007-.576-.3-.591-.3s-.476-.26-.485-.265l-2.384-1.36-.346-.2-2.736-1.561a10.66 10.66 0 0 1-.365-.218.464.464 0 0 1-.128-.116c-.131-.184-.05-.408.227-.567z" transform="translate(-366.641 828.059)" style="fill:#5f5ca6;opacity:.952"/>
                        <path data-name="패스 16933" d="m493.46 305.976-3.394-1.931-3.394-1.931c-.294-.17-.257-.466.082-.662l.553-.271a1.274 1.274 0 0 1 1.147-.047l3.394 1.931 3.394 1.935c.294.17.257.466-.082.662l-.553.271a1.275 1.275 0 0 1-1.147.043z" transform="translate(-366.768 827.549)" style="fill:#5b58a3"/>
                    </g>
                    <g data-name="그룹 2570">
                        <g data-name="그룹 2569">
                            <path data-name="패스 16934" d="m474.123 93.916-8.135-4.7a3.979 3.979 0 0 1-1.662-3.175V64.378c0-.622-.512-.76-.2-.983.012-.009 1.242-.56 1.255-.565a1.2 1.2 0 0 1 1.124.065l8.135 4.7a3.979 3.979 0 0 1 1.662 3.175v21.663a1.5 1.5 0 0 1-.544 1.326c-.02.012-1.4.649-1.418.656-.299.098.184-.268-.217-.499z" transform="translate(-346.823 1039.262)" style="fill:#afb6e5"/>
                            <path data-name="패스 16935" d="m474.123 93.975-8.135-4.7a3.979 3.979 0 0 1-1.662-3.175V64.437c0-.622-.512-.76-.2-.983.012-.009 1.221-.552 1.235-.558a1.2 1.2 0 0 1 1.123.065l8.136 4.7a3.979 3.979 0 0 1 1.661 3.175V92.5a1.5 1.5 0 0 1-.544 1.326c-.02.013-1.376.641-1.4.649-.296.098.187-.268-.214-.5z" transform="translate(-346.823 1039.202)" style="fill:url(#ft4hf080sk)"/>
                            <path data-name="패스 16936" d="m474.123 94.035-8.135-4.7a3.979 3.979 0 0 1-1.662-3.175V64.5c0-.622-.512-.76-.2-.983.012-.009 1.2-.545 1.215-.55a1.2 1.2 0 0 1 1.124.065l8.135 4.7a3.979 3.979 0 0 1 1.66 3.168v21.666a1.5 1.5 0 0 1-.545 1.326c-.02.013-1.356.634-1.378.641-.296.099.187-.267-.214-.498z" transform="translate(-346.823 1039.143)" style="fill:url(#q6le1nds6l)"/>
                            <path data-name="패스 16937" d="m474.123 94.093-8.135-4.7a3.979 3.979 0 0 1-1.662-3.175V64.556c0-.622-.512-.76-.2-.983.012-.009 1.181-.538 1.195-.543a1.2 1.2 0 0 1 1.123.065l8.135 4.7a3.979 3.979 0 0 1 1.662 3.175v21.663a1.5 1.5 0 0 1-.544 1.326c-.02.012-1.336.626-1.358.634-.298.098.185-.268-.216-.5z" transform="translate(-346.823 1039.084)" style="fill:url(#m2n8f8s9lm)"/>
                            <path data-name="패스 16938" d="m474.123 94.153-8.135-4.7a3.979 3.979 0 0 1-1.662-3.175V64.615c0-.622-.512-.76-.2-.983.012-.009 1.161-.53 1.175-.535a1.2 1.2 0 0 1 1.124.065l8.135 4.7a3.979 3.979 0 0 1 1.662 3.175V92.7a1.5 1.5 0 0 1-.545 1.326c-.02.013-1.316.619-1.338.626-.298.098.185-.268-.216-.499z" transform="translate(-346.823 1039.025)" style="fill:url(#enfhmde1en)"/>
                            <path data-name="패스 16939" d="m474.123 94.212-8.135-4.7a3.979 3.979 0 0 1-1.662-3.175V64.674c0-.622-.512-.76-.2-.983.012-.009 1.141-.523 1.155-.528a1.2 1.2 0 0 1 1.123.065l8.136 4.7a3.979 3.979 0 0 1 1.66 3.172v21.666a1.5 1.5 0 0 1-.545 1.326c-.02.012-1.3.611-1.318.619-.296.099.187-.267-.214-.499z" transform="translate(-346.823 1038.965)" style="fill:url(#9dh98uez1o)"/>
                            <path data-name="패스 16940" d="m474.123 94.271-8.135-4.7a3.979 3.979 0 0 1-1.662-3.175V64.733c0-.622-.512-.76-.2-.983.012-.009 1.121-.515 1.135-.52a1.2 1.2 0 0 1 1.124.065l8.135 4.7a3.98 3.98 0 0 1 1.662 3.175v21.663a1.5 1.5 0 0 1-.545 1.326c-.02.012-1.276.6-1.3.611-.296.099.187-.27-.214-.499z" transform="translate(-346.823 1038.906)" style="fill:url(#v084ethvwp)"/>
                            <path data-name="패스 16941" d="m474.123 94.33-8.135-4.7a3.979 3.979 0 0 1-1.662-3.175V64.793c0-.622-.512-.76-.2-.983.012-.009 1.1-.508 1.115-.513a1.2 1.2 0 0 1 1.124.065l8.135 4.7a3.979 3.979 0 0 1 1.662 3.175V92.9a1.5 1.5 0 0 1-.544 1.326c-.02.013-1.256.6-1.278.6-.299.102.184-.264-.217-.496z" transform="translate(-346.823 1038.847)" style="fill:url(#71fg6gsvmq)"/>
                            <path data-name="패스 16942" d="m474.123 94.39-8.135-4.7a3.979 3.979 0 0 1-1.662-3.175V64.852c0-.622-.512-.76-.2-.983.012-.009 1.081-.5 1.095-.506a1.2 1.2 0 0 1 1.123.065l8.135 4.7a3.979 3.979 0 0 1 1.661 3.172v21.666a1.5 1.5 0 0 1-.545 1.326c-.02.012-1.235.589-1.258.6-.296.095.187-.271-.214-.502z" transform="translate(-346.823 1038.788)" style="fill:url(#wag9zy8uer)"/>
                            <path data-name="패스 16943" d="m474.123 94.449-8.135-4.7a3.979 3.979 0 0 1-1.662-3.175V64.911c0-.622-.512-.76-.2-.983.012-.009 1.061-.493 1.075-.5a1.2 1.2 0 0 1 1.123.065l8.136 4.7a3.98 3.98 0 0 1 1.662 3.175v21.664a1.5 1.5 0 0 1-.544 1.326c-.02.013-1.215.582-1.238.589-.299.099.184-.267-.217-.498z" transform="translate(-346.823 1038.729)" style="fill:url(#qm01f5aevs)"/>
                            <path data-name="패스 16944" d="m474.123 94.508-8.135-4.7a3.979 3.979 0 0 1-1.662-3.175V64.97c0-.622-.512-.76-.2-.983.012-.009 1.041-.486 1.054-.491a1.2 1.2 0 0 1 1.124.065l8.136 4.7a3.98 3.98 0 0 1 1.662 3.175V93.1a1.5 1.5 0 0 1-.545 1.326c-.02.013-1.2.574-1.217.582-.299.098.184-.268-.217-.5z" transform="translate(-346.823 1038.669)" style="fill:url(#rhijxa42jt)"/>
                            <path data-name="패스 16945" d="m474.123 94.567-8.135-4.7a3.979 3.979 0 0 1-1.662-3.175V65.029c0-.622-.512-.76-.2-.983.012-.009 1.021-.478 1.034-.483a1.2 1.2 0 0 1 1.124.065l8.135 4.7a3.98 3.98 0 0 1 1.661 3.172v21.666a1.5 1.5 0 0 1-.545 1.326c-.02.012-1.175.567-1.2.574-.294.099.189-.266-.212-.499z" transform="translate(-346.823 1038.61)" style="fill:url(#cr5rzvvn5u)"/>
                            <path data-name="패스 16946" d="m474.123 94.626-8.135-4.7a3.979 3.979 0 0 1-1.662-3.175V65.088c0-.622-.512-.76-.2-.983.012-.009 1-.471 1.014-.476a1.2 1.2 0 0 1 1.123.065l8.136 4.7a3.979 3.979 0 0 1 1.662 3.175v21.663a1.5 1.5 0 0 1-.544 1.326c-.02.013-1.155.559-1.177.567-.299.099.184-.267-.217-.499z" transform="translate(-346.823 1038.551)" style="fill:url(#6n89mq9gjv)"/>
                            <path data-name="패스 16947" d="m474.123 94.685-8.135-4.7a3.979 3.979 0 0 1-1.662-3.175V65.148c0-.622-.512-.76-.2-.983.012-.009.981-.463.994-.468a1.2 1.2 0 0 1 1.124.065l8.136 4.7a3.979 3.979 0 0 1 1.662 3.175V93.3a1.5 1.5 0 0 1-.545 1.326c-.02.013-1.135.552-1.157.559-.299.098.184-.268-.217-.5z" transform="translate(-346.823 1038.492)" style="fill:url(#3xocdm2bqw)"/>
                            <path data-name="패스 16948" d="m474.123 94.745-8.135-4.7a3.979 3.979 0 0 1-1.662-3.175V65.207c0-.622-.512-.76-.2-.983.012-.009.961-.456.974-.461a1.2 1.2 0 0 1 1.124.065l8.135 4.7a3.98 3.98 0 0 1 1.662 3.175v21.663a1.5 1.5 0 0 1-.545 1.326c-.02.012-1.115.545-1.137.552-.298.098.185-.268-.216-.499z" transform="translate(-346.823 1038.433)" style="fill:url(#c6cgmb5mbx)"/>
                            <path data-name="패스 16949" d="m474.123 94.8-8.135-4.7a3.979 3.979 0 0 1-1.662-3.175V65.266c0-.622-.512-.76-.2-.983.012-.009.941-.448.954-.454a1.2 1.2 0 0 1 1.124.065l8.135 4.7A3.979 3.979 0 0 1 476 71.767v21.665a1.5 1.5 0 0 1-.545 1.326c-.02.013-1.1.537-1.117.545-.297.097.186-.267-.215-.503z" transform="translate(-346.823 1038.373)" style="fill:url(#yq2bln9xfy)"/>
                            <path data-name="패스 16950" d="m474.123 94.863-8.135-4.7a3.979 3.979 0 0 1-1.662-3.175V65.326c0-.622-.512-.76-.2-.983.012-.009.921-.441.934-.446a1.2 1.2 0 0 1 1.124.065l8.135 4.7a3.979 3.979 0 0 1 1.662 3.175V93.5a1.5 1.5 0 0 1-.544 1.326c-.02.012-1.075.53-1.1.537-.296.098.187-.263-.214-.5z" transform="translate(-346.823 1038.314)" style="fill:url(#canitydc5z)"/>
                            <path data-name="패스 16951" d="m474.123 94.922-8.135-4.7a3.979 3.979 0 0 1-1.662-3.175V65.384c0-.622-.512-.76-.2-.983.012-.009.9-.434.914-.439a1.2 1.2 0 0 1 1.124.065l8.136 4.7a3.98 3.98 0 0 1 1.662 3.175v21.664a1.5 1.5 0 0 1-.545 1.326c-.02.012-1.055.522-1.077.53-.299.098.184-.268-.217-.5z" transform="translate(-346.823 1038.255)" style="fill:url(#ufib14f6gA)"/>
                            <path data-name="패스 16952" d="m474.123 94.982-8.135-4.7a3.979 3.979 0 0 1-1.662-3.175V65.444c0-.622-.512-.76-.2-.983.012-.009.88-.426.894-.431a1.2 1.2 0 0 1 1.124.065l8.135 4.7a3.979 3.979 0 0 1 1.662 3.175v21.662a1.5 1.5 0 0 1-.545 1.326c-.02.013-1.035.515-1.057.522-.298.099.185-.267-.216-.498z" transform="translate(-346.823 1038.196)" style="fill:url(#ingzpvmn2B)"/>
                            <path data-name="패스 16953" d="m474.123 95.041-8.135-4.7a3.979 3.979 0 0 1-1.662-3.175V65.5c0-.622-.512-.76-.2-.983.012-.009.861-.419.874-.424a1.2 1.2 0 0 1 1.124.065l8.135 4.7a3.98 3.98 0 0 1 1.662 3.175V93.7a1.5 1.5 0 0 1-.545 1.326 83.25 83.25 0 0 1-1.037.515c-.298.098.185-.269-.216-.5z" transform="translate(-346.823 1038.136)" style="fill:url(#6kbq4svvgC)"/>
                            <path data-name="패스 16954" d="m474.123 95.1-8.135-4.7a3.979 3.979 0 0 1-1.662-3.175V65.562c0-.622-.512-.76-.2-.983.012-.009.84-.411.854-.416a1.2 1.2 0 0 1 1.124.065l8.135 4.7A3.98 3.98 0 0 1 475.9 72.1v21.665a1.5 1.5 0 0 1-.545 1.326c-.02.013-.995.5-1.017.507-.297.102.186-.267-.215-.498z" transform="translate(-346.823 1038.077)" style="fill:url(#26ny46yw9D)"/>
                            <path data-name="패스 16955" d="m474.123 95.159-8.135-4.7a3.979 3.979 0 0 1-1.662-3.175V65.622c0-.622-.512-.76-.2-.983.012-.009.82-.4.834-.409a1.2 1.2 0 0 1 1.123.065l8.136 4.7a3.979 3.979 0 0 1 1.662 3.175v21.662a1.5 1.5 0 0 1-.544 1.326c-.02.013-.975.493-1 .5-.296.099.187-.267-.214-.499z" transform="translate(-346.823 1038.018)" style="fill:url(#t3lmhtj67E)"/>
                        </g>
                        <path data-name="패스 16956" d="m469.561 98.815-8.136-4.7a3.979 3.979 0 0 1-1.662-3.175V69.277c0-1.224.744-1.786 1.662-1.256l8.136 4.7a3.98 3.98 0 0 1 1.662 3.175v21.662c0 1.224-.744 1.786-1.662 1.257z" transform="translate(-343.037 1034.73)" style="fill:#fff"/>
                        <path data-name="패스 16957" d="M471.531 100.161a1.167 1.167 0 0 1-.577-.177l-8.136-4.7a3.8 3.8 0 0 1-1.579-3.032V70.588c0-.784.329-1.291.837-1.291a1.168 1.168 0 0 1 .577.177l8.136 4.7a3.8 3.8 0 0 1 1.579 3.032V98.87c.001.784-.328 1.291-.837 1.291z" transform="translate(-344.347 1033.419)" style="fill:url(#27nese6cmF)"/>
                        <path data-name="패스 16958" d="M464.7 97.166V75.584c0-.9.546-1.311 1.219-.922l7.92 4.572a2.92 2.92 0 0 1 1.219 2.33v21.583c0 .9-.546 1.31-1.219.922l-7.92-4.572a2.92 2.92 0 0 1-1.219-2.331z" transform="translate(-347.419 1028.782)" style="fill:#afb6e5"/>
                        <path data-name="패스 16959" d="M467.3 76.71c-.635-.366-1.149-.073-1.149.655V99.19a2.532 2.532 0 0 0 1.149 1.982l7.736 4.467c.635.366 1.149.073 1.149-.655V83.158a2.532 2.532 0 0 0-1.149-1.982z" transform="translate(-348.708 1026.973)" style="fill:#35417b"/>
                        <path data-name="패스 16960" d="M506.532 110.524c0 .235-.166.329-.371.211a.817.817 0 0 1-.371-.639c0-.235.166-.33.371-.211a.817.817 0 0 1 .371.639z" transform="translate(-383.705 997.404)" style="fill:url(#kry2k4uo3G)"/>
                    </g>
                    <g data-name="그룹 2574">
                        <g data-name="그룹 2572">
                            <g data-name="그룹 2571" style="opacity:.5;isolation:isolate;mix-blend-mode:multiply">
                                <path data-name="패스 16962" d="M469.614 65.038c-.606-.35-1.1-.07-1.1.625v11.509a2.417 2.417 0 0 0 1.1 1.892l.567.415a.827.827 0 0 0 1.318-.66V67.31a2.62 2.62 0 0 0-1.318-1.857z" transform="translate(-351.436 1037.336)" style="opacity:.091;fill:#afb6e5"/>
                                <path data-name="패스 16963" d="M469.393 65.543c-.6-.348-1.091-.069-1.091.622V77.6a2.4 2.4 0 0 0 1.091 1.882l.586.425a.806.806 0 0 0 1.291-.654V67.819a2.585 2.585 0 0 0-1.291-1.851z" transform="translate(-351.245 1036.887)" style="opacity:.182;fill:#afb6e5"/>
                                <path data-name="패스 16964" d="M469.173 66.046c-.6-.346-1.086-.069-1.086.619v11.353a2.393 2.393 0 0 0 1.086 1.873l.6.436a.786.786 0 0 0 1.263-.647V68.327a2.551 2.551 0 0 0-1.263-1.845z" transform="translate(-351.054 1036.439)" style="opacity:.273;fill:#afb6e5"/>
                                <path data-name="패스 16965" d="M468.953 66.549c-.6-.344-1.081-.069-1.081.616v11.276a2.381 2.381 0 0 0 1.081 1.864l.623.446a.766.766 0 0 0 1.236-.641V68.835A2.517 2.517 0 0 0 469.576 67z" transform="translate(-350.863 1035.991)" style="opacity:.364;fill:#afb6e5"/>
                                <path data-name="패스 16966" d="M468.732 67.053c-.594-.343-1.075-.068-1.075.613v11.2a2.369 2.369 0 0 0 1.075 1.855l.642.457a.746.746 0 0 0 1.208-.634v-11.2a2.484 2.484 0 0 0-1.208-1.834z" transform="translate(-350.672 1035.543)" style="opacity:.455;fill:#afb6e5"/>
                                <path data-name="패스 16967" d="M468.512 67.557c-.591-.341-1.07-.068-1.07.61v11.12a2.358 2.358 0 0 0 1.07 1.845l.661.467a.727.727 0 0 0 1.181-.628V69.852a2.451 2.451 0 0 0-1.181-1.828z" transform="translate(-350.481 1035.095)" style="opacity:.545;fill:#afb6e5"/>
                                <path data-name="패스 16968" d="M468.291 68.061c-.588-.339-1.064-.068-1.064.607v11.043a2.345 2.345 0 0 0 1.064 1.836l.68.478a.708.708 0 0 0 1.153-.621V70.361a2.419 2.419 0 0 0-1.153-1.822z" transform="translate(-350.29 1034.647)" style="opacity:.636;fill:#afb6e5"/>
                                <path data-name="패스 16969" d="M468.071 68.564c-.585-.338-1.059-.067-1.059.6v10.969a2.334 2.334 0 0 0 1.059 1.827l.7.489c.585.338 1.126.057 1.126-.614V70.868a2.388 2.388 0 0 0-1.126-1.816z" transform="translate(-350.099 1034.199)" style="opacity:.727;fill:#afb6e5"/>
                                <path data-name="패스 16970" d="M467.851 69.067c-.582-.336-1.054-.067-1.054.6v10.89a2.322 2.322 0 0 0 1.054 1.818l.718.5c.582.336 1.1.06 1.1-.608v-10.89a2.358 2.358 0 0 0-1.1-1.811z" transform="translate(-349.908 1033.751)" style="opacity:.818;fill:#afb6e5"/>
                                <path data-name="패스 16971" d="M467.63 69.571c-.579-.334-1.048-.067-1.048.6V80.98a2.31 2.31 0 0 0 1.048 1.808l.737.509c.579.334 1.071.063 1.071-.6V71.885a2.327 2.327 0 0 0-1.071-1.8z" transform="translate(-349.717 1033.303)" style="opacity:.909;fill:#afb6e5"/>
                                <path data-name="패스 16972" d="M467.41 70.075c-.576-.333-1.043-.066-1.043.595V81.4a2.3 2.3 0 0 0 1.043 1.8l.756.52c.576.333 1.043.066 1.043-.595V72.394a2.3 2.3 0 0 0-1.043-1.8z" transform="translate(-349.526 1032.854)" style="fill:#afb6e5"/>
                            </g>
                            <path data-name="패스 16973" d="m452.881 74.167-2.581-1.692a2.284 2.284 0 0 1-.787-1.73V59.793c0-.664.354-.972.787-.684l2.581 1.692a2.284 2.284 0 0 1 .787 1.73v10.951c.001.664-.354.972-.787.685z" transform="translate(-333.93 1042.566)" style="opacity:.9;fill:url(#3v2gof5vgd)"/>
                            <path data-name="패스 16974" d="m452.881 60.8-2.581-1.691c-.433-.287-.787.02-.787.684v.1c0-.664.354-.972.787-.684l2.581 1.692a2.284 2.284 0 0 1 .787 1.73v-.1a2.284 2.284 0 0 0-.787-1.731z" transform="translate(-333.93 1042.566)" style="mix-blend-mode:color-dodge;fill:url(#gfz1opo8oH);isolation:isolate"/>
                        </g>
                        <path data-name="패스 16976" d="M461.032 107.587c-.485-.28-.88-.055-.88.5a1.942 1.942 0 0 0 .88 1.518c.485.28.88.055.88-.5a1.942 1.942 0 0 0-.88-1.518zm0 1.87a1.654 1.654 0 0 1-.75-1.293c0-.474.336-.666.75-.427a1.654 1.654 0 0 1 .75 1.293c-.001.47-.337.665-.75.426zm.065-.861v-.712a.144.144 0 0 0-.065-.112c-.036-.021-.065 0-.065.037v.727a.2.2 0 0 0 .028.1l.28.488a.133.133 0 0 0 .046.049.047.047 0 0 0 .046 0c.026-.014.026-.061 0-.105zm-.065.617c-.03-.017-.054 0-.054.031a.12.12 0 0 0 .054.094c.03.017.054 0 .054-.031a.12.12 0 0 0-.054-.095zm.6-.341c-.03-.017-.054 0-.054.031a.12.12 0 0 0 .054.094c.03.017.054 0 .054-.031a.12.12 0 0 0-.057-.095zm-1.195-.69c-.03-.017-.054 0-.054.031a.12.12 0 0 0 .054.094c.03.017.054 0 .054-.031a.12.12 0 0 0-.057-.095z" transform="translate(-343.382 1001.02)" style="fill:#fff"/>
                        <g data-name="그룹 2573">
                            <path data-name="패스 16978" d="m463.754 92.027-.3.482a.054.054 0 0 1-.046.025h-.008a.054.054 0 0 1-.044-.038l-.267-.884-.3.336a.054.054 0 0 1-.059.014l-.112-.043a9.4 9.4 0 0 0 .605.935s.879-.162.921-.7z" transform="translate(-345.57 1013.593)" style="fill:#fff"/>
                            <path data-name="패스 16979" d="m460 84.525.179.068.341-.379a.055.055 0 0 1 .052-.017.054.054 0 0 1 .04.037l.261.863.262-.418a.054.054 0 0 1 .063-.023l.39.13a1.092 1.092 0 0 0-.485-.771c-.189-.109-.353-.081-.435.051a1.081 1.081 0 0 0-.435-.553c-.271-.156-.491-.031-.491.28a1.841 1.841 0 0 0 .245.73z" transform="translate(-343.019 1020.848)" style="fill:#fff"/>
                        </g>
                        <path data-name="패스 16980" d="M460.047 155.557c-.493-.285-.893-.181-.893.232a1 1 0 0 0 .107.41l-.182.379.554.146a1.974 1.974 0 0 0 .413.327c.493.285.893.181.893-.232a1.752 1.752 0 0 0-.892-1.262zm.5 1.27a.054.054 0 0 1-.074.02l-.879-.5a.054.054 0 0 1 .053-.093l.879.5a.054.054 0 0 1 .016.073zm0-.215a.054.054 0 0 1-.074.02l-.879-.5a.054.054 0 0 1 .053-.094l.879.5a.054.054 0 0 1 .016.074zm0-.215a.054.054 0 0 1-.047.027.055.055 0 0 1-.027-.007l-.879-.5a.054.054 0 0 1 .053-.093l.879.5a.054.054 0 0 1 .016.076z" transform="translate(-342.429 956.924)" style="fill:#fff"/>
                    </g>
                    <g data-name="그룹 2581">
                        <g data-name="그룹 2575" style="isolation:isolate;mix-blend-mode:multiply;opacity:.2">
                            <path data-name="패스 16982" d="m478.913 242.842.041-.015.113-.042a.975.975 0 0 1 .511.061l.306.12a4.324 4.324 0 0 1 .956.484l.438.275 2.4 1.465 1.392.85c.005 0 1.427.867 1.453.879a.641.641 0 0 1 .193.611c-.037.118-.209.206-.416.256a1.79 1.79 0 0 1-.318.046 5.908 5.908 0 0 1-1.185-.433c-.376-.159-.855-.382-1.278-.573s-.883-.412-1.23-.573c-.538-.25-.955-.455-.955-.455a1.022 1.022 0 0 1-.508-.066 1.359 1.359 0 0 1-.534-.359l-.342-.394-1.088-1.244a.858.858 0 0 1-.2-.354.519.519 0 0 1 0-.259c.063-.178.048-.24.251-.28z" transform="translate(-359.819 879.297)" style="fill:#abb2e2;opacity:.048"/>
                            <path data-name="패스 16983" d="m478.952 242.953.041-.015s.11-.041.113-.041a.968.968 0 0 1 .509.065c.062.024.173.07.3.123a4.4 4.4 0 0 1 .943.5l.432.279 2.394 1.458 1.389.846c.011.009 1.4.844 1.452.869a.613.613 0 0 1 .207.6c-.037.112-.221.2-.418.247a1.5 1.5 0 0 1-.316.042 6.183 6.183 0 0 1-1.176-.438c-.357-.151-.866-.4-1.267-.579s-.89-.426-1.22-.579a32.239 32.239 0 0 1-.947-.459 1.065 1.065 0 0 1-.5-.076 1.417 1.417 0 0 1-.532-.358l-.345-.388-1.1-1.217a.917.917 0 0 1-.2-.345.5.5 0 0 1 0-.257c.049-.174.039-.238.241-.277z" transform="translate(-359.854 879.196)" style="fill:#a7addf;opacity:.095"/>
                            <path data-name="패스 16984" d="m478.988 243.063.041-.014c.005 0 .108-.04.113-.04a.963.963 0 0 1 .507.069c.064.026.173.074.3.126a4.5 4.5 0 0 1 .929.51l.427.284 2.389 1.452 1.386.842a87.9 87.9 0 0 0 1.451.859.59.59 0 0 1 .222.584c-.036.106-.233.194-.42.239a1.3 1.3 0 0 1-.314.038 6.488 6.488 0 0 1-1.168-.443c-.338-.143-.875-.414-1.255-.586s-.9-.439-1.209-.584c-.484-.225-.94-.462-.94-.462a1.118 1.118 0 0 1-.5-.085 1.483 1.483 0 0 1-.53-.356l-.347-.381-1.112-1.19a.989.989 0 0 1-.209-.336.484.484 0 0 1-.006-.254c.048-.168.045-.235.245-.272z" transform="translate(-359.886 879.095)" style="fill:#a3a9dc;opacity:.143"/>
                            <path data-name="패스 16985" d="m479.022 243.173.041-.014c.007 0 .106-.038.113-.038a.956.956 0 0 1 .5.074c.066.027.173.077.3.129a4.634 4.634 0 0 1 .916.524l.422.288 2.383 1.446 1.382.839c.022.019 1.348.8 1.45.85.206.193.3.4.236.57-.036.1-.246.188-.422.231a1.156 1.156 0 0 1-.312.034 6.993 6.993 0 0 1-1.16-.448c-.319-.136-.885-.43-1.244-.592s-.9-.453-1.2-.59c-.457-.212-.932-.466-.932-.466a1.176 1.176 0 0 1-.491-.1 1.553 1.553 0 0 1-.528-.354l-.35-.374L479 244.02a1.074 1.074 0 0 1-.215-.327.467.467 0 0 1-.011-.251c.047-.163.05-.229.248-.269z" transform="translate(-359.916 878.994)" style="fill:#9fa4d8;opacity:.19"/>
                            <path data-name="패스 16986" d="m479.054 243.282.04-.013c.008 0 .1-.037.113-.037a.951.951 0 0 1 .5.078c.068.029.173.081.295.132a4.791 4.791 0 0 1 .9.537l.416.292 2.377 1.439 1.379.835c.027.023 1.322.778 1.449.84.214.192.311.394.25.556-.035.093-.258.182-.424.222a1.046 1.046 0 0 1-.311.03 7.441 7.441 0 0 1-1.151-.453c-.3-.128-.9-.446-1.233-.6s-.911-.466-1.189-.6c-.43-.2-.924-.47-.924-.47a1.246 1.246 0 0 1-.485-.1 1.635 1.635 0 0 1-.525-.353l-.353-.368-1.137-1.136a1.173 1.173 0 0 1-.222-.318.454.454 0 0 1-.017-.248c.048-.158.056-.224.252-.265z" transform="translate(-359.945 878.895)" style="fill:#9ba0d5;opacity:.238"/>
                            <path data-name="패스 16987" d="m479.085 243.391.04-.013c.01 0 .1-.035.112-.035a.948.948 0 0 1 .5.083c.07.03.174.084.292.135a4.965 4.965 0 0 1 .889.55l.411.3 2.371 1.433 1.376.831c.033.028 1.3.756 1.448.83.223.19.325.387.264.542-.034.087-.27.176-.426.214a.955.955 0 0 1-.309.026 7.943 7.943 0 0 1-1.143-.459c-.282-.12-.905-.462-1.222-.6s-.918-.48-1.179-.6c-.4-.187-.916-.474-.916-.474a1.322 1.322 0 0 1-.479-.115 1.727 1.727 0 0 1-.523-.351l-.355-.361-1.149-1.109a1.3 1.3 0 0 1-.229-.309.441.441 0 0 1-.022-.245c.041-.164.054-.232.249-.273z" transform="translate(-359.972 878.795)" style="fill:#979bd2;opacity:.286"/>
                            <path data-name="패스 16988" d="m479.114 243.5.04-.012c.012 0 .1-.034.112-.034a.943.943 0 0 1 .5.087c.072.032.174.087.289.138a5.2 5.2 0 0 1 .875.563l.405.3 2.365 1.427 1.372.828c.038.032 1.269.734 1.447.82.231.189.34.38.278.528-.033.08-.282.17-.428.205a.882.882 0 0 1-.307.022 8.544 8.544 0 0 1-1.134-.464c-.263-.113-.915-.478-1.211-.611s-.925-.493-1.168-.606c-.377-.175-.909-.478-.909-.478a1.412 1.412 0 0 1-.474-.125 1.83 1.83 0 0 1-.521-.349l-.358-.355-1.162-1.082a1.445 1.445 0 0 1-.235-.3.428.428 0 0 1-.027-.243c.037-.15.058-.219.251-.259z" transform="translate(-359.997 878.696)" style="fill:#9397cf;opacity:.333"/>
                            <path data-name="패스 16989" d="m479.142 243.608.04-.012c.014 0 .1-.032.112-.033a.941.941 0 0 1 .494.091c.074.034.174.091.287.141a5.479 5.479 0 0 1 .862.577l.4.3 2.359 1.42 1.369.824c.044.037 1.242.712 1.446.81.239.187.355.373.293.515-.033.074-.295.164-.43.2a.822.822 0 0 1-.305.018 9.225 9.225 0 0 1-1.126-.469c-.244-.1-.925-.494-1.2-.618s-.932-.506-1.158-.611c-.35-.162-.9-.482-.9-.482a1.523 1.523 0 0 1-.468-.134 1.956 1.956 0 0 1-.519-.348l-.361-.348-1.174-1.055a1.63 1.63 0 0 1-.242-.291.418.418 0 0 1-.032-.24c.038-.145.062-.215.253-.255z" transform="translate(-360.022 878.598)" style="fill:#8f92cc;opacity:.381"/>
                            <path data-name="패스 16990" d="m479.169 243.715.04-.011c.015 0 .1-.031.112-.031a.939.939 0 0 1 .492.1c.075.035.174.094.284.144a5.8 5.8 0 0 1 .848.59l.394.309 2.353 1.414 1.366.82c.049.042 1.216.69 1.445.8.247.186.37.365.307.5-.031.068-.307.158-.431.189a.771.771 0 0 1-.3.014 10.055 10.055 0 0 1-1.118-.475c-.225-.1-.935-.51-1.188-.624s-.94-.52-1.148-.617c-.323-.15-.893-.486-.893-.486a1.654 1.654 0 0 1-.462-.144 2.094 2.094 0 0 1-.516-.346l-.364-.342-1.186-1.028a1.861 1.861 0 0 1-.248-.282.407.407 0 0 1-.038-.237c.032-.146.062-.216.251-.257z" transform="translate(-360.045 878.501)" style="fill:#8b8ec9;opacity:.429"/>
                            <path data-name="패스 16991" d="m479.195 243.822.04-.011a1.054 1.054 0 0 1 .112-.03.936.936 0 0 1 .489.1c.077.037.175.1.281.146a6.2 6.2 0 0 1 .835.6l.389.313 2.348 1.407 1.363.817c.054.046 1.189.667 1.444.79.256.184.385.357.321.487a1.166 1.166 0 0 1-.433.18.726.726 0 0 1-.3.01 11.017 11.017 0 0 1-1.109-.48c-.206-.089-.945-.525-1.177-.63s-.947-.533-1.138-.622c-.3-.137-.885-.489-.885-.489a1.82 1.82 0 0 1-.456-.154 2.268 2.268 0 0 1-.514-.344l-.366-.335-1.2-1a2.145 2.145 0 0 1-.255-.273.4.4 0 0 1-.043-.234.274.274 0 0 1 .254-.248z" transform="translate(-360.067 878.403)" style="fill:#8789c6;opacity:.476"/>
                            <path data-name="패스 16992" d="m479.206 243.928.04-.01a.678.678 0 0 1 .6.076c.079.039.175.1.278.149a6.711 6.711 0 0 1 .821.616l.384.317 2.342 1.4 1.359.813c.06.051 1.163.645 1.444.781.264.183.422.364.335.473-.018.059-.332.146-.435.172a.689.689 0 0 1-.3.006c-.184-.036-.571-.256-1.1-.485-.187-.081-.955-.541-1.166-.637s-.954-.547-1.127-.627c-.269-.125-.877-.493-.877-.493a2.012 2.012 0 0 1-.451-.164 2.47 2.47 0 0 1-.512-.343l-.369-.329-1.211-.974c-.048-.055-.25-.205-.262-.263a.3.3 0 0 1-.048-.231.277.277 0 0 1 .255-.247z" transform="translate(-360.075 878.307)" style="fill:#8385c2;opacity:.524"/>
                            <path data-name="패스 16993" d="m479.231 244.034.04-.01a.853.853 0 0 1 .111-.027.934.934 0 0 1 .484.109c.081.04.175.1.275.152a7.352 7.352 0 0 1 .808.63l.378.322 2.336 1.395 1.356.81c.065.055 1.137.623 1.443.771.272.181.438.358.349.459-.016.054-.344.14-.437.163a.654.654 0 0 1-.3 0c-.19-.041-.57-.264-1.092-.49-.169-.073-.964-.557-1.155-.643s-.961-.56-1.117-.633c-.242-.112-.87-.5-.87-.5a2.256 2.256 0 0 1-.445-.173 2.721 2.721 0 0 1-.51-.341l-.372-.322-1.223-.947c-.043-.049-.258-.2-.268-.254a.288.288 0 0 1-.053-.228c.031-.128.079-.202.262-.243z" transform="translate(-360.096 878.21)" style="fill:#7f80bf;opacity:.571"/>
                            <path data-name="패스 16994" d="m479.257 244.14.04-.009a.777.777 0 0 1 .111-.025.933.933 0 0 1 .481.113c.083.042.175.107.273.155a8.158 8.158 0 0 1 .794.643l.373.326 2.33 1.388 1.353.806c.07.06 1.11.6 1.442.761.28.18.455.352.363.445-.014.048-.356.134-.439.155a.623.623 0 0 1-.3 0c-.2-.047-.568-.272-1.084-.5-.15-.065-.974-.573-1.143-.649s-.968-.574-1.107-.638c-.215-.1-.862-.5-.862-.5a2.57 2.57 0 0 1-.439-.183 3.028 3.028 0 0 1-.508-.339l-.375-.316-1.235-.92c-.038-.044-.265-.2-.275-.245a.278.278 0 0 1-.059-.226c.032-.127.085-.201.266-.242z" transform="translate(-360.118 878.114)" style="fill:#7b7cbc;opacity:.619"/>
                            <path data-name="패스 16995" d="m479.281 244.244.04-.009a.73.73 0 0 1 .111-.024.932.932 0 0 1 .479.118c.085.044.175.111.27.158a9.189 9.189 0 0 1 .781.656l.368.33 2.324 1.382 1.349.8c.076.064 1.084.579 1.441.751.289.178.472.346.378.431a1.738 1.738 0 0 1-.441.146.6.6 0 0 1-.294-.006c-.2-.052-.567-.279-1.076-.5-.131-.057-.984-.589-1.132-.656s-.975-.587-1.1-.644c-.188-.087-.854-.5-.854-.5a2.977 2.977 0 0 1-.433-.193 3.426 3.426 0 0 1-.506-.338l-.377-.309-1.248-.893c-.033-.038-.273-.2-.281-.236a.269.269 0 0 1-.064-.223c.028-.124.084-.199.265-.241z" transform="translate(-360.139 878.019)" style="fill:#7777b9;opacity:.667"/>
                            <path data-name="패스 16996" d="m479.306 244.348.04-.008a.667.667 0 0 1 .111-.023.933.933 0 0 1 .476.122c.087.046.175.114.267.161s.739.637.767.669l.362.334 2.318 1.375 1.346.8c.081.069 1.057.557 1.44.741.3.176.488.34.392.417a2.07 2.07 0 0 1-.443.138.572.572 0 0 1-.293-.01c-.209-.058-.565-.287-1.067-.506-.112-.049-.994-.605-1.121-.662s-.982-.6-1.086-.649c-.161-.075-.846-.508-.846-.508a3.533 3.533 0 0 1-.427-.2 3.949 3.949 0 0 1-.5-.336l-.38-.3-1.26-.866a3.018 3.018 0 0 1-.288-.227.262.262 0 0 1-.069-.22c.02-.123.083-.2.261-.242z" transform="translate(-360.16 877.925)" style="fill:#7373b6;opacity:.714"/>
                            <path data-name="패스 16997" d="m479.329 244.453.04-.008a.623.623 0 0 1 .11-.021.931.931 0 0 1 .474.126c.089.047.176.117.264.164s.73.656.754.683l.357.338 2.312 1.369 1.343.8c.087.074 1.031.535 1.439.731.3.175.5.335.406.4a2.526 2.526 0 0 1-.445.13.549.549 0 0 1-.291-.014c-.216-.064-.564-.3-1.059-.512-.093-.041-1-.621-1.109-.669s-.989-.614-1.076-.654c-.135-.062-.838-.512-.838-.512a4.351 4.351 0 0 1-.422-.212 4.686 4.686 0 0 1-.5-.334l-.383-.3-1.272-.839c-.024-.027-.289-.189-.295-.218a.254.254 0 0 1-.074-.217c.021-.112.09-.189.265-.231z" transform="translate(-360.18 877.83)" style="fill:#6f6eb3;opacity:.762"/>
                            <path data-name="패스 16998" d="m479.353 244.556.039-.007a.589.589 0 0 1 .11-.02.932.932 0 0 1 .471.131c.09.049.176.121.262.167.064.035.722.674.74.7l.351.343 2.306 1.363 1.339.791c.092.078 1 .512 1.438.722.313.173.521.329.42.39a3.238 3.238 0 0 1-.447.121.528.528 0 0 1-.289-.018c-.222-.07-.562-.3-1.05-.517-.075-.033-1.014-.637-1.1-.675s-1-.628-1.066-.66c-.108-.05-.83-.516-.83-.516-.029.006-.381-.209-.416-.222a5.835 5.835 0 0 1-.5-.333l-.385-.29-1.284-.812c-.019-.022-.3-.186-.3-.209a.249.249 0 0 1-.08-.214c.024-.114.098-.191.271-.235z" transform="translate(-360.2 877.736)" style="fill:#6b6ab0;opacity:.81"/>
                            <path data-name="패스 16999" d="m479.376 244.659.039-.007a.558.558 0 0 1 .11-.018.933.933 0 0 1 .469.135c.092.051.176.124.259.17.048.026.713.693.727.709l.346.347 2.3 1.356 1.336.788c.1.083.978.49 1.437.712.322.172.538.323.434.376a4.419 4.419 0 0 1-.449.113.51.51 0 0 1-.287-.022c-.228-.076-.561-.311-1.042-.522-.056-.025-1.024-.653-1.087-.681s-1-.641-1.056-.665c-.081-.037-.823-.52-.823-.52-.022 0-.384-.222-.41-.232s-.477-.308-.5-.331l-.388-.283-1.3-.785c-.014-.016-.3-.183-.308-.2a.243.243 0 0 1-.085-.211c.027-.107.102-.188.278-.229z" transform="translate(-360.219 877.643)" style="fill:#6765ac;opacity:.857"/>
                            <path data-name="패스 17000" d="m479.4 244.762.039-.006a.513.513 0 0 1 .11-.017.932.932 0 0 1 .466.14c.094.053.176.127.256.173.032.018.7.712.713.722l.34.351 2.295 1.35 1.333.784c.1.087.952.468 1.436.7.33.17.555.317.448.362 0 .012-.43.1-.45.1a.494.494 0 0 1-.285-.026c-.233-.082-.559-.319-1.034-.527-.037-.017-1.034-.669-1.076-.688s-1.011-.655-1.045-.671a38.2 38.2 0 0 1-.815-.524l-.4-.242a17.675 17.675 0 0 1-.495-.329l-.391-.276-1.309-.758c-.009-.011-.312-.18-.314-.191a.239.239 0 0 1-.09-.209c.013-.095.098-.18.268-.218z" transform="translate(-360.239 877.549)" style="fill:#6361a9;opacity:.905"/>
                            <path data-name="패스 17001" d="m479.422 244.864.039-.006a.482.482 0 0 1 .11-.016.932.932 0 0 1 .464.144c.1.055.176.13.253.175.016.009.7.73.7.735l.335.355 2.289 1.344 1.33.781c.108.092.925.446 1.435.692.338.169.572.311.463.348 0 .006-.442.093-.452.1a.479.479 0 0 1-.284-.03c-.239-.088-.558-.326-1.025-.533-.019-.008-1.044-.684-1.065-.694s-1.018-.668-1.035-.676-.807-.528-.807-.528-.39-.248-.4-.251-.486-.32-.492-.328l-.394-.27-1.321-.731c0-.005-.32-.176-.321-.182a.235.235 0 0 1-.1-.206c.02-.099.11-.18.278-.223z" transform="translate(-360.258 877.457)" style="fill:#5f5ca6;opacity:.952"/>
                            <path data-name="패스 17002" d="m485.089 249.028-2.078-1.382-2.079-1.382-1.661-.878c-.188-.159-.11-.348.174-.421l.039-.005a1.071 1.071 0 0 1 .821.313l1.016 1.108 3.609 2.114c.188.159 2.195.943 1.911 1.017l-.454.088c-.287.074-.646-.27-1.298-.572z" transform="translate(-360.276 877.365)" style="fill:#5b58a3"/>
                        </g>
                        <path data-name="패스 17003" d="M515.45 182.7c.512-.018.727.7.547 1.283a5.454 5.454 0 0 0-.251 1.139 9.139 9.139 0 0 1-.35 1.058 11.957 11.957 0 0 0-.396 1.69c-.009.368.126.7.09.78a1.748 1.748 0 0 0-.117.664c.045.126-.063.117-.1.117s-.09-.072-.09-.072a.262.262 0 0 0-.1-.072.449.449 0 0 1-.126-.09s-.063.054-.09.045a.821.821 0 0 1-.117-.081 2.745 2.745 0 0 1-.036-.44c0-.242.2-.565.188-.709a15.332 15.332 0 0 1 .072-1.668c.063-.422.3-1.049.3-1.292s.081-.727.054-.888a2.893 2.893 0 0 1 .045-1.009c.095-.249.217-.443.477-.455z" transform="translate(-391.507 932.665)" style="fill:#ffd4c0"/>
                        <path data-name="패스 17004" d="M478.681 239.877s-.4-.056-.439-.007a.624.624 0 0 0-.042.394.7.7 0 0 0 .105.33c.042.063.112-.007.148.134s.049.267.141.337a2.47 2.47 0 0 0 .879.239c.134-.035.105-.162.1-.246a6.066 6.066 0 0 0-.34-.664 2.234 2.234 0 0 0-.552-.517z" transform="translate(-359.41 881.893)" style="fill:#ced3f4"/>
                        <path data-name="패스 17005" d="M479.563 241.206c-.109.139-.6-.07-.829-.169s-.225-.267-.316-.45a1.353 1.353 0 0 1-.041-.736c-.063 0-.119 0-.135.019a.624.624 0 0 0-.042.394.7.7 0 0 0 .105.33c.042.063.112-.007.148.134s.049.267.141.337a2.471 2.471 0 0 0 .879.239.125.125 0 0 0 .1-.1s-.007-.004-.01.002z" transform="translate(-359.41 881.893)" style="fill:#afb6e5"/>
                        <path data-name="패스 17006" d="M534.816 277.337c.006.145-.019.208.1.277a2.244 2.244 0 0 0 .327.138 1.249 1.249 0 0 0 .648.346c.321.019.579-.05.547-.308s-.3-.365-.472-.466a4.411 4.411 0 0 1-.417-.29z" transform="translate(-409.716 848.856)" style="fill:#ced3f4"/>
                        <path data-name="패스 17007" d="M536.094 280.959a1.124 1.124 0 0 1-.8-.319 4.088 4.088 0 0 0-.47-.319c0 .1 0 .155.1.213a2.245 2.245 0 0 0 .327.138 1.248 1.248 0 0 0 .648.346c.262.015.482-.028.537-.185a.629.629 0 0 1-.342.126z" transform="translate(-409.727 845.938)" style="fill:#afb6e5"/>
                        <path data-name="패스 17008" d="M485.711 224.747s-.242 3.041-.726 3.189a22.144 22.144 0 0 1-3.973-.866.684.684 0 0 1-.194-.521.955.955 0 0 1 .085-.375l2.844.416.027-2.126z" transform="translate(-361.742 895.563)" style="fill:url(#c7l0oveuyI)"/>
                        <path data-name="패스 17009" d="m485.9 224.747-1.937-.283-.027 2.126-2.844-.416a.992.992 0 0 0-.061.179l3.362.614s.148-.811.39-.852c.164-.027.86.053.872-.014.167-.888.245-1.354.245-1.354z" transform="translate(-361.934 895.563)" style="isolation:isolate;mix-blend-mode:multiply;fill:#ced3f4"/>
                        <path data-name="패스 17010" d="M500.859 223.62c-.063.448-.341 1.516.834 1.884s2.834.955 2.834.955-.014 3.288.05 3.392.5.041.61-.02c.147-.083.218-.133.226-.222a36.859 36.859 0 0 0 .442-3.756c-.06-.43-1.139-1.031-1.776-1.345s-1.076-.493-1.076-.493z" transform="translate(-379.482 896.313)" style="fill:url(#bpv2qkjhiJ)"/>
                        <g data-name="그룹 2576">
                            <path data-name="패스 17011" d="m485.044 233.42.5-.446.133-.655-.368-.212-.5.446-.135.657z" transform="translate(-365.169 888.772)" style="fill:#2be9a3"/>
                            <path data-name="패스 17012" d="m485.044 236.975.5-.446-.739-.421-.135.657z" transform="translate(-365.169 885.218)" style="fill:#00c7c5"/>
                            <path data-name="패스 17013" d="m488.339 235.307.5-.446.135-.657-.369-.211-.5.446-.135.657z" transform="translate(-368.097 887.096)" style="fill:#00a3a2"/>
                        </g>
                        <g data-name="그룹 2578">
                            <g data-name="그룹 2577">
                                <path data-name="패스 17014" d="M491.145 238.417a.092.092 0 0 0 .039.083l1.366.757c.03.017.048 0 .1-.029a.341.341 0 0 0 .164-.259c0-.044.012-.059-.017-.072l-1.374-.76a.139.139 0 0 0-.111.021.341.341 0 0 0-.167.259z" transform="translate(-370.917 883.42)" style="fill:#e5e9ff"/>
                                <path data-name="패스 17015" d="M503.374 245.2c0 .091.074.122.164.069a.341.341 0 0 0 .164-.259c0-.091-.074-.122-.164-.069a.341.341 0 0 0-.164.259z" transform="translate(-381.782 877.398)" style="fill:#72b5e8"/>
                            </g>
                        </g>
                        <path data-name="패스 17016" d="M504.87 226.094c-.162-.162-2.012-.743-2.711-1.03-.613-.251-.75-1.292-.753-1.343h-.025a1 1 0 0 0-.232.116c-.014-.02-.1-.1-.208-.2l-.082-.015c-.063.448-.341 1.516.834 1.884s2.834.955 2.834.955-.014 3.288.05 3.392c.025.04.1.055.2.056.055-1.468.123-3.622.093-3.815z" transform="translate(-379.482 896.313)" style="isolation:isolate;mix-blend-mode:multiply;fill:#ced3f4"/>
                        <g data-name="그룹 2580">
                            <path data-name="패스 17017" d="m500.816 242.636.5-.446.133-.655-.368-.212-.5.446-.135.657z" transform="translate(-379.181 880.585)" style="fill:#2be9a3"/>
                            <path data-name="패스 17018" d="m500.816 246.19.5-.446-.738-.421-.135.657z" transform="translate(-379.181 877.03)" style="fill:#00c7c5"/>
                            <path data-name="패스 17019" d="m504.111 244.523.5-.446.135-.657-.369-.211-.5.446-.135.657z" transform="translate(-382.108 878.908)" style="fill:#00a3a2"/>
                            <g data-name="그룹 2579">
                                <path data-name="패스 17020" d="M506.9 247.571a.092.092 0 0 0 .039.083l.152.086c.03.017.048 0 .1-.029a.341.341 0 0 0 .164-.259c0-.045.012-.059-.017-.072l-.16-.089a.139.139 0 0 0-.111.021.341.341 0 0 0-.167.259z" transform="translate(-384.911 875.286)" style="fill:#e5e9ff"/>
                                <path data-name="패스 17021" d="M508.239 248.329c0 .091.074.122.164.069a.34.34 0 0 0 .164-.259c0-.091-.073-.122-.164-.069a.341.341 0 0 0-.164.259z" transform="translate(-386.104 874.612)" style="fill:#ced3f4"/>
                            </g>
                        </g>
                        <path data-name="패스 17022" d="M505.276 182.85c0 .458-.471 4.278-.471 4.278a3.131 3.131 0 0 1-.632.135 4.079 4.079 0 0 1-1.924-.345s.114-1.342.121-2.2c.007-.837-.074-1.448-.021-1.807.03-.2.465-.469 1.135-.77a2.027 2.027 0 0 1 1.213-.085.828.828 0 0 1 .579.794z" transform="translate(-380.782 933.288)" style="fill:url(#qao4xaf7zK)"/>
                        <path data-name="패스 17023" d="M510.546 183.9c0 .358.914.733.914.733s.453-.368.453-.733c0-.217-.306-.393-.684-.393s-.683.177-.683.393z" transform="translate(-388.154 931.95)" style="fill:#ffd4c0"/>
                        <path data-name="패스 17024" d="M513.339 175.555c.013-.142-.174-.277-.418-.3s-.454.07-.47.212l-.187 1.033c-.017.171.207.334.5.364s.547-.085.564-.256l.01-1.051z" transform="translate(-389.679 939.286)" style="fill:#ffd4c0"/>
                        <path data-name="패스 17025" d="M514.491 175.969a1.64 1.64 0 0 1-.075-.607.529.529 0 0 1 .415-.108c.244.025.431.159.418.3s-.01 1.05-.01 1.051a.2.2 0 0 1-.045.1 1.339 1.339 0 0 1-.703-.736z" transform="translate(-391.589 939.286)" style="fill:#f1d5be;isolation:isolate;mix-blend-mode:multiply"/>
                        <path data-name="패스 17026" d="M514.367 168.419c.226.38.093 1.656-.308 1.676s-.8-.454-.915-.774-.146-1 .2-1.184a.762.762 0 0 1 1.023.282z" transform="translate(-390.392 945.688)" style="fill:#ffd4c0"/>
                        <path data-name="패스 17027" d="M513.33 167.081c.092.261-.1.528-.574.526a1.937 1.937 0 0 1-.692-.1s.009.383-.044.4-.111-.275-.226-.221.009.462-.086.542-.152-.16-.173-.45-.139-1.028.5-1.121a1.333 1.333 0 0 1 1.295.424z" transform="translate(-389.012 946.936)" style="fill:#45138a"/>
                        <path data-name="패스 17028" d="M503.123 195.235a.745.745 0 0 1-.241-.594c0-.5.112-2.335.112-3.1l-.654-.489c-.029.368.036.942.03 1.708-.007.858-.121 2.2-.121 2.2a4.621 4.621 0 0 0 .874.275z" transform="translate(-380.782 925.252)" style="isolation:isolate;mix-blend-mode:multiply;fill:#ced3f4"/>
                        <path data-name="패스 17029" d="M495.9 189.044c.511-.018.726.7.547 1.283a10.971 10.971 0 0 0-.26 1.117c-.076.309-.269.812-.341 1.081a11.949 11.949 0 0 0-.395 1.686c-.009.368.125.7.09.78a.972.972 0 0 0-.085.493c.045.126-.054.112-.09.112a.253.253 0 0 1-.1-.045.639.639 0 0 1-.135-.023.45.45 0 0 1-.13-.1.371.371 0 0 1-.094 0 .528.528 0 0 1-.1-.081s-.04-.036-.04-.278.2-.565.188-.709a15.329 15.329 0 0 1 .072-1.668c.063-.422.29-.91.287-1.153 0-.435.1-1 .072-1.166a2.147 2.147 0 0 1 .036-.87c.098-.256.22-.45.478-.459z" transform="translate(-374.139 927.031)" style="fill:#ffd4c0"/>
                    </g>
                    <g data-name="그룹 2591">
                        <g data-name="그룹 2590">
                            <path data-name="패스 17082" d="m483.429 266.751-7.475-4.317a.456.456 0 0 1-.191-.364c0-.14.085-.2.191-.144l7.475 4.317a.457.457 0 0 1 .191.364c0 .141-.085.205-.191.144z" transform="translate(-357.252 862.3)" style="fill:#e5e9ff"/>
                            <path data-name="패스 17083" d="M476.455 263.071a.358.358 0 0 1-.162-.28c0-.1.073-.144.162-.093l7.413 4.281a.358.358 0 0 1 .162.28c0 .1-.073.144-.162.092z" transform="translate(-357.722 861.613)" style="fill:#8d97d6"/>
                            <path data-name="패스 17084" d="m482.255 266.042-5.8-3.344c-.09-.052-.162-.01-.162.093a.358.358 0 0 0 .162.28l5.8 3.343z" transform="translate(-357.722 861.613)" style="fill:url(#830p5k80mL)"/>
                        </g>
                    </g>
                    <g data-name="그룹 2593">
                        <g data-name="그룹 2592">
                            <path data-name="패스 17085" d="M519.82 122.72a4 4 0 0 1 1.813 3.127c0 1.147-.813 1.61-1.813 1.033a4 4 0 0 1-1.813-3.126c0-1.147.813-1.611 1.813-1.034zm0 3.985c.916.529 1.661.1 1.661-.947a3.664 3.664 0 0 0-1.661-2.864c-.916-.529-1.661-.1-1.661.947a3.664 3.664 0 0 0 1.661 2.865z" transform="translate(-394.783 986.177)" style="fill:#fff"/>
                            <path data-name="패스 17086" d="M522.92 124.614a4 4 0 0 1 1.813 3.127c0 1.147-.813 1.61-1.813 1.033a3.815 3.815 0 0 1-1.406-1.579c-.027-.053-.022-.1.011-.116s.08.022.107.074a3.5 3.5 0 0 0 1.288 1.447c.916.529 1.661.1 1.661-.947a3.664 3.664 0 0 0-1.661-2.864.168.168 0 0 1-.076-.131c0-.049.034-.068.076-.044z" transform="translate(-397.883 984.283)" style="fill:url(#p8kpxfxv5M)"/>
                        </g>
                    </g>
                    <g data-name="그룹 2594">
                        <path data-name="패스 17087" d="m518 295.631-.446-.258v-.231l.663.383v.221l-.346 1.193-.225-.13z" transform="translate(-394.377 832.768)" style="fill:#afb6e5"/>
                        <path data-name="패스 17088" d="m524.834 302.518-.422-.244v-.231l.4-.858.241.139v1.091l.1.06v.23l-.1-.06v.293l-.221-.128zm0-.23v-.63l-.217.5z" transform="translate(-400.472 827.4)" style="fill:#afb6e5"/>
                        <path data-name="패스 17089" d="M532.031 304.827a.454.454 0 0 1-.054-.223v-.4q0-.125.054-.16t.159.025a.413.413 0 0 1 .159.159.453.453 0 0 1 .054.223v.4q0 .125-.054.16t-.159-.025a.411.411 0 0 1-.159-.159zm.231-.046v-.426a.151.151 0 0 0-.072-.143q-.073-.042-.072.06v.426a.151.151 0 0 0 .072.143q.072.041.072-.061zm.438-.4.141.081-.545 1.3-.141-.081zm-.052 1.54a.453.453 0 0 1-.054-.223v-.4q0-.125.054-.16t.159.025a.411.411 0 0 1 .159.159.453.453 0 0 1 .054.223v.4c0 .083-.018.136-.054.16s-.089.016-.159-.025a.411.411 0 0 1-.159-.157zm.231-.046v-.427a.151.151 0 0 0-.072-.143q-.072-.042-.072.06v.427a.152.152 0 0 0 .072.143c.048.029.072.009.072-.058z" transform="translate(-407.194 824.875)" style="fill:#afb6e5"/>
                    </g>
                    <g data-name="그룹 2595">
                        <path data-name="패스 17090" d="m527.37 132.561-.253-.146v-.2a.717.717 0 0 0 .166.076.122.122 0 0 0 .1-.009.205.205 0 0 0 .066-.1l.163.094v1.768l-.242-.14z" transform="translate(-402.876 977.544)" style="fill:#afb6e5"/>
                        <path data-name="패스 17091" d="M534.2 137.086a.664.664 0 0 1 .053-.294.5.5 0 0 1 .189-.19.576.576 0 0 0 .186-.173.407.407 0 0 0 .052-.213.4.4 0 0 0-.032-.176.237.237 0 0 0-.094-.1q-.126-.072-.125.1v.189l-.229-.132v-.172q0-.215.092-.276t.268.04a.7.7 0 0 1 .269.27.783.783 0 0 1 .092.383.541.541 0 0 1-.067.277.681.681 0 0 1-.232.219.46.46 0 0 0-.145.13.288.288 0 0 0-.037.154v.038l.46.266v.252l-.7-.4z" transform="translate(-409.167 974.486)" style="fill:#afb6e5"/>
                    </g>
                </g>
            </g>
        </g>
    </g>
</svg>
