<svg xmlns="http://www.w3.org/2000/svg" width="24" height="24" viewBox="0 0 24 24">
    <circle data-name="타원 209" cx="12" cy="12" r="12" style="fill:#c8c8c8"/>
    <g data-name="그룹 1039">
        <path data-name="타원 212" d="M5.479 1.73a3.749 3.749 0 1 0 3.749 3.749A3.753 3.753 0 0 0 5.479 1.73m0-1.73A5.479 5.479 0 1 1 0 5.479 5.479 5.479 0 0 1 5.479 0z" style="fill:#fff" transform="translate(5.5 5.775)"/>
        <path data-name="선 59" d="M3 3.9a.9.9 0 0 1-.636-.264l-3-3a.9.9 0 0 1 0-1.273.9.9 0 0 1 1.273 0l3 3A.9.9 0 0 1 3 3.9z" transform="translate(14.5 14.5)" style="fill:#fff"/>
    </g>
</svg>
