<svg xmlns="http://www.w3.org/2000/svg" width="60" height="60" viewBox="0 0 60 60">
    <circle data-name="타원 203" cx="30" cy="30" r="30" style="opacity:.05;fill:#26c8a8"/>
    <circle data-name="타원 206" cx="26" cy="26" r="26" transform="translate(4 4)" style="opacity:.15;fill:#26c8a8"/>
    <g data-name="그룹 842" transform="translate(9.036 8.798)">
        <circle data-name="타원 205" cx="21" cy="21" r="21" transform="translate(-.036 .202)" style="fill:#26c8a8"/>
    </g>
    <path data-name="패스 15125" d="m42.4 41.778 3.7-1.363a1.189 1.189 0 0 1 1.365.41L49.9 44.1a1.167 1.167 0 0 1-.043 1.451l-1.507 1.77a1.166 1.166 0 0 0-.06 1.428 18.2 18.2 0 0 0 1.81 2.19 18.473 18.473 0 0 0 2.485 2.147 1.183 1.183 0 0 0 1.45-.051l1.691-1.421a1.181 1.181 0 0 1 1.458-.044l3.3 2.413a1.174 1.174 0 0 1 .412 1.355l-1.306 3.515a1.039 1.039 0 0 1-.619.656 3.649 3.649 0 0 1-.907.019c-2.877.041-7.5-2.631-10.718-5.948a21.9 21.9 0 0 1-5.675-10.459 1.157 1.157 0 0 1 .729-1.343z" transform="translate(-20.989 -20.329)" style="fill:#fff;fill-rule:evenodd"/>
</svg>
