<svg xmlns="http://www.w3.org/2000/svg" width="24" height="24" viewBox="0 0 24 24">
    <g data-name="Icon / v3_ic_24_fill_mission_kakaoch">
        <path data-name="사각형 1024" style="fill:transparent" d="M0 0h24v24H0z"/>
        <path data-name="패스 17092" d="M521.84 455.694c-6.266 0-11.346 4.7-11.346 10.495 0 4.281 1.793 6.324 4.248 8.187l.012.005v5.019a.289.289 0 0 0 .461.232l4.3-3.2.093.04a12.3 12.3 0 0 0 2.23.2c6.266 0 11.346-4.7 11.346-10.495s-5.078-10.483-11.344-10.483z" transform="translate(-510.494 -455.693)" style="fill:#fae100"/>
        <g data-name="그룹 2607">
            <path data-name="패스 17093" d="M17.75 9.21a2.426 2.426 0 0 1 .631 1.776v3.588h-1.503v-3.4a1.082 1.082 0 0 0-1.157-1.2c-.783 0-1.285.479-1.285 1.449v3.156h-1.508V6.261h1.508V9.39a1.933 1.933 0 0 1 1.741-.818 2.07 2.07 0 0 1 1.573.638z"/>
            <path data-name="패스 17094" d="M9.892 11.461a2.369 2.369 0 0 1-2.349 1.694 2.634 2.634 0 0 1-2.67-2.671 2.568 2.568 0 0 1 2.67-2.694 2.339 2.339 0 0 1 2.366 1.777h1.641A3.941 3.941 0 0 0 7.543 6.23a4.254 4.254 0 1 0 0 8.508 3.936 3.936 0 0 0 3.995-3.277z"/>
        </g>
    </g>
</svg>
