<svg xmlns="http://www.w3.org/2000/svg" width="32" height="32" viewBox="0 0 32 32">
    <defs>
        <linearGradient id="xrngujnn0a" x1=".081" y1=".076" x2="1" y2="1" gradientUnits="objectBoundingBox">
            <stop offset="0" stop-color="#19d3c5"/>
            <stop offset=".52" stop-color="#0095ff"/>
            <stop offset=".82" stop-color="#9b78f0"/>
            <stop offset="1" stop-color="#cb8bda"/>
        </linearGradient>
    </defs>
    <g transform="translate(-.014 -.014)">
        <circle cx="16" cy="16" r="16" transform="translate(.014 .014)" style="fill:url(#xrngujnn0a)"/>
        <path d="M3.147 12.59H.214L0 12.377V.214L.214 0h4.859l.4.012a5.659 5.659 0 0 1 2.154.523 4.088 4.088 0 0 1 1.751 1.542A4.2 4.2 0 0 1 10 4.34a3.737 3.737 0 0 1-1.351 3.008 5.3 5.3 0 0 1-3.256 1.108l-.375.008H3.361v3.915l-.213.213zm.214-9.9v3.082h1.706A1.616 1.616 0 0 0 6.218 5.4 1.367 1.367 0 0 0 6.6 4.357a1.765 1.765 0 0 0-.4-1.218 1.35 1.35 0 0 0-.9-.437l-.2-.011H3.36z" transform="translate(12.014 10.014)" style="fill:#fff"/>
    </g>
</svg>
