<svg xmlns="http://www.w3.org/2000/svg" width="16" height="16" viewBox="0 0 16 16">
    <g data-name="Object / v3_ic_16_fill_floating_qna">
        <path data-name="사각형 881" style="fill:transparent" d="M0 0h16v16H0z"/>
        <path data-name="빼기 2" d="M-11034.141-12947.457h-6.041a.523.523 0 0 1-.443-.244.513.513 0 0 1-.031-.5l.881-1.91a.546.546 0 0 0-.045-.514 7.054 7.054 0 0 1-1.09-5.035 7.066 7.066 0 0 1 5.93-5.847 7.5 7.5 0 0 1 1.038-.074 7.094 7.094 0 0 1 5.161 2.238 7 7 0 0 1 1.885 5.3 7.176 7.176 0 0 1-7.245 6.586zm3.2-8.123a1 1 0 0 0-1 1 1 1 0 0 0 1 1 1 1 0 0 0 1-1 1 1 0 0 0-.998-1zm-3 0a1 1 0 0 0-1 1 1 1 0 0 0 1 1 1 1 0 0 0 1-1 1 1 0 0 0-.998-1zm-3 0a1 1 0 0 0-1 1 1 1 0 0 0 1 1 1 1 0 0 0 1-1 1 1 0 0 0-.997-1z" transform="translate(11042 12962.517)" style="fill:#fff"/>
    </g>
</svg>
