<svg xmlns="http://www.w3.org/2000/svg" width="24" height="24" viewBox="0 0 24 24">
    <path data-name="사각형 763" style="fill:transparent" d="M0 0h24v24H0z"/>
    <circle data-name="타원 205" cx="12" cy="12" r="12" style="fill:#c8c8c8"/>
    <g data-name="그룹 2316" transform="translate(-.5)">
        <rect data-name="사각형 869" width="11" height="14" rx="1" transform="translate(7 6)" style="fill:#fff"/>
        <path data-name="패스 16684" d="M.5 1a4.962 4.962 0 0 1 3.356 1.04C5.414 3.283 8.5 1 8.5 1a.5.5 0 0 1 .5.5V4a1 1 0 0 1-1 1H1a1 1 0 0 1-1-1V1.5A.5.5 0 0 1 .5 1z" transform="translate(8 13.513)" style="fill:#868686"/>
        <path data-name="선 63" d="M1.862.3H0A.3.3 0 0 1-.3 0 .3.3 0 0 1 0-.3h1.862a.3.3 0 0 1 .3.3.3.3 0 0 1-.3.3z" transform="translate(14.638 8.5)" style="fill:#868686"/>
        <path data-name="선 64" d="M1.242.3H0A.3.3 0 0 1-.3 0 .3.3 0 0 1 0-.3h1.242a.3.3 0 0 1 .3.3.3.3 0 0 1-.3.3z" transform="translate(15.258 10.5)" style="fill:#868686"/>
        <path data-name="선 65" d="M1.242.3H0A.3.3 0 0 1-.3 0 .3.3 0 0 1 0-.3h1.242a.3.3 0 0 1 .3.3.3.3 0 0 1-.3.3z" transform="translate(15.258 12.5)" style="fill:#868686"/>
        <path data-name="사각형 870" d="M.5 0h8a.5.5 0 0 1 .5.5V2H0V.5A.5.5 0 0 1 .5 0z" transform="translate(8 4)" style="fill:#fff"/>
    </g>
    <g data-name="그룹 2317" transform="translate(-.5)">
        <rect data-name="사각형 869" width="11" height="14" rx="1" transform="translate(7 6)" style="fill:#fff"/>
        <path data-name="패스 16684" d="M.5 1a4.962 4.962 0 0 1 3.356 1.04C5.414 3.283 8.5 1 8.5 1a.5.5 0 0 1 .5.5V4a1 1 0 0 1-1 1H1a1 1 0 0 1-1-1V1.5A.5.5 0 0 1 .5 1z" transform="translate(8 13.513)" style="fill:#868686"/>
        <path data-name="선 63" d="M1.862.3H0A.3.3 0 0 1-.3 0 .3.3 0 0 1 0-.3h1.862a.3.3 0 0 1 .3.3.3.3 0 0 1-.3.3z" transform="translate(14.638 8.5)" style="fill:#868686"/>
        <path data-name="선 64" d="M1.242.3H0A.3.3 0 0 1-.3 0 .3.3 0 0 1 0-.3h1.242a.3.3 0 0 1 .3.3.3.3 0 0 1-.3.3z" transform="translate(15.258 10.5)" style="fill:#868686"/>
        <path data-name="선 65" d="M1.242.3H0A.3.3 0 0 1-.3 0 .3.3 0 0 1 0-.3h1.242a.3.3 0 0 1 .3.3.3.3 0 0 1-.3.3z" transform="translate(15.258 12.5)" style="fill:#868686"/>
        <path data-name="사각형 870" d="M.5 0h8a.5.5 0 0 1 .5.5V2H0V.5A.5.5 0 0 1 .5 0z" transform="translate(8 4)" style="fill:#fff"/>
    </g>
</svg>
