<svg xmlns="http://www.w3.org/2000/svg" width="44" height="44" viewBox="0 0 44 44">
    <g transform="translate(-315 -560)">
        <rect data-name="사각형 304" width="44" height="44" rx="17" transform="translate(315 560)" style="fill:#fde404"/>
        <path transform="translate(319 564)" style="fill:none" d="M0 0h36v36H0z"/>
        <g data-name="그룹 354" transform="translate(326.657 571.941)">
            <ellipse data-name="타원 2" cx="10.344" cy="8.933" rx="10.344" ry="8.933" style="fill:#3b1f1e"/>
            <path data-name="패스 8669" d="m4.27 0 1.986 7.413L0 8.339z" transform="rotate(-165.02 5.413 10.538)" style="fill:#3b1f1e"/>
        </g>
        <g data-name="그룹 355">
            <path data-name="패스 9360" d="M-11.968-3.041a2.1 2.1 0 0 0 1.327-.41 1.347 1.347 0 0 0 .563-1.014h2.013a2.549 2.549 0 0 1-.554 1.459 3.539 3.539 0 0 1-1.407 1.072 4.664 4.664 0 0 1-1.916.395 4.344 4.344 0 0 1-3.165-1.138 4.181 4.181 0 0 1-1.169-3.143v-.193a4.115 4.115 0 0 1 1.16-3.061 4.3 4.3 0 0 1 3.165-1.149 4.236 4.236 0 0 1 2.765.871 2.959 2.959 0 0 1 1.121 2.286h-2.013a1.626 1.626 0 0 0-.558-1.184 1.931 1.931 0 0 0-1.332-.464 1.985 1.985 0 0 0-1.6.662 3.075 3.075 0 0 0-.571 2.008v.3a3.121 3.121 0 0 0 .558 2.032 1.981 1.981 0 0 0 1.613.671zM-5.383-6.8a2.293 2.293 0 0 1 1.739-.73A1.922 1.922 0 0 1-1.5-5.365v3.67h-1.735v-3.627a.98.98 0 0 0-.241-.728 1.119 1.119 0 0 0-.8-.236 1.229 1.229 0 0 0-1.107.519v4.072h-1.738v-8.134h1.738z" transform="translate(345.909 585.998)" style="fill:#fbe300"/>
        </g>
    </g>
</svg>
