<svg xmlns="http://www.w3.org/2000/svg" width="24" height="24" viewBox="0 0 24 24">
    <defs>
        <linearGradient id="qn1duxecaa" x1=".5" x2=".5" y2="1" gradientUnits="objectBoundingBox">
            <stop offset="0" stop-color="#cae4ff"/>
            <stop offset="1" stop-color="#afd6ff"/>
        </linearGradient>
    </defs>
    <path data-name="사각형 763" style="fill:transparent" d="M0 0h24v24H0z"/>
    <circle data-name="타원 205" cx="12" cy="12" r="12" style="fill:#0095ff"/>
    <g data-name="그룹 1043" transform="translate(-12.699 32.602)">
        <path data-name="패스 15138" d="M23.063-15.177a4.432 4.432 0 0 1-4.056-1.89 3.9 3.9 0 0 1-.606-1.949V-25.4h2.805v1.6H20v4.778a2.372 2.372 0 0 0 .39 1.147 3 3 0 0 0 2.672 1.1 3.355 3.355 0 0 0 2.832-1.137 2.679 2.679 0 0 0 .506-1.153V-23.8h-1.26v-1.6H28V-18.945a4.143 4.143 0 0 1-.768 1.918 4.816 4.816 0 0 1-4.169 1.85z" transform="translate(-.001 -2.003)" style="fill:url(#qn1duxecaa)"/>
        <path data-name="패스 15139" d="M66.458 53.29a4.006 4.006 0 0 1-4.363-4.14v-1.66h1.6v1.7a2.72 2.72 0 0 0 .716 1.826 3.045 3.045 0 0 0 2.37.666 3.54 3.54 0 0 0 2.55-.981 2.326 2.326 0 0 0 .561-1.487V45.2h1.6v3.937a3.861 3.861 0 0 1-.961 2.621 5.047 5.047 0 0 1-3.659 1.518q-.213.014-.414.014z" transform="translate(-39.693 -65.256)" style="fill:url(#qn1duxecaa)"/>
        <ellipse data-name="타원 213" cx="2" cy="2.005" rx="2" ry="2.005" transform="translate(28.997 -22.622)" style="fill:#0f48a4"/>
    </g>
</svg>
