<svg xmlns="http://www.w3.org/2000/svg" width="48" height="48" viewBox="0 0 48 48">
    <defs>
        <clipPath id="l0cslh47ia">
            <circle data-name="타원 281" cx="24" cy="24" r="24" transform="translate(92 1099)" style="fill:#398afa"/>
        </clipPath>
    </defs>
    <g data-name="Object / v3_img_48_fill_mission_bmi" transform="translate(-92 -1099)">
        <path data-name="사각형 782" transform="translate(92 1099)" style="fill:transparent" d="M0 0h48v48H0z"/>
        <circle data-name="타원 279" cx="24" cy="24" r="24" transform="translate(92 1099)" style="fill:#3894ff"/>
        <g data-name="마스크 그룹 13" style="clip-path:url(#l0cslh47ia)">
            <g data-name="그룹 2540">
                <path data-name="패스 16790" d="m341.258 179.095-12.607-7.279a2.828 2.828 0 0 0-2.543.106l-12.149 7.014c-.753.435-.834 1.092-.182 1.469l11.443 6.606h-1.62v.926h3.8v-.006a2.972 2.972 0 0 0 1.527-.354l12.149-7.014c.752-.435.834-1.092.182-1.468z" transform="translate(-209.382 950.467)" style="fill:rgba(0,0,0,.2)"/>
                <g data-name="그룹 2535">
                    <path data-name="패스 16791" d="M337.347 180.452a.121.121 0 0 1 0-.015v-2.214l-1.362 1.04-12.858-7.424a3.082 3.082 0 0 0-2.772.115l-12.6 7.275-1.317-1.006v2.232a.8.8 0 0 0 .476.745l13.741 7.934a3.083 3.083 0 0 0 2.772-.115l13.241-7.644a1.13 1.13 0 0 0 .677-.918z" transform="translate(-206.753 949.994)" style="fill:#998a86"/>
                    <path data-name="패스 16792" d="M347.936 181.722v2.232a1.133 1.133 0 0 1-.679.919l-12.8 7.39-.232.134v-11.652h8.853l3.494 2.016z" transform="translate(-217.342 946.496)" style="fill:#4d403d"/>
                    <path data-name="패스 16793" d="M332.327 193.931v3.355l-.232.134-.21.121a3.083 3.083 0 0 1-2.773.114l-.482-.279v-3.445z" transform="translate(-215.208 941.471)" style="fill:#6b5955"/>
                    <path data-name="패스 16794" d="m323.126 168.208 13.741 7.933c.711.41.621 1.127-.2 1.6l-13.241 7.644a3.082 3.082 0 0 1-2.772.115l-13.741-7.933c-.711-.41-.622-1.127.2-1.6l13.241-7.645a3.083 3.083 0 0 1 2.772-.114z" transform="translate(-206.752 951.378)" style="fill:#dbc6c0"/>
                    <path data-name="패스 16795" d="m323.8 169.363 12.618 7.285c.652.377.571 1.035-.183 1.469l-12.159 7.02a2.829 2.829 0 0 1-2.545.105l-12.618-7.285c-.652-.377-.571-1.035.183-1.469l12.159-7.02a2.829 2.829 0 0 1 2.545-.105z" transform="translate(-207.529 950.929)" style="fill:#fff"/>
                    <g data-name="그룹 2533">
                        <path data-name="패스 16796" d="m324.24 189.67-.011.006a2.556 2.556 0 0 1-.506.22l-14.852-8.575a1.64 1.64 0 0 1 .379-.294l.009-.006z" transform="translate(-207.679 946.39)" style="fill:#f4ebe9"/>
                        <path data-name="패스 16797" d="m326.485 188.351-.454.26-14.981-8.647.454-.262z" transform="translate(-208.51 946.893)" style="fill:#f4ebe9"/>
                        <path data-name="패스 16798" d="m328.77 187.032-.452.26-14.981-8.649.452-.26z" transform="translate(-209.381 947.396)" style="fill:#f4ebe9"/>
                        <path data-name="패스 16799" d="m331.055 185.712-.454.26-14.981-8.649.454-.262z" transform="translate(-210.252 947.899)" style="fill:#f4ebe9"/>
                        <path data-name="패스 16800" d="m333.342 184.391-.454.262-14.98-8.653.454-.262z" transform="translate(-211.123 948.402)" style="fill:#f4ebe9"/>
                        <path data-name="패스 16801" d="m335.629 183.072-.454.262-14.981-8.649.454-.262z" transform="translate(-211.994 948.905)" style="fill:#f4ebe9"/>
                        <path data-name="패스 16802" d="m337.915 181.752-.454.262-14.981-8.649.454-.262z" transform="translate(-212.865 949.407)" style="fill:#f4ebe9"/>
                        <path data-name="패스 16803" d="m340.2 180.43-.454.262-14.981-8.649.454-.262z" transform="translate(-213.737 949.911)" style="fill:#f4ebe9"/>
                        <path data-name="패스 16804" d="m342.489 179.111-.454.262-14.981-8.649.454-.262z" transform="translate(-214.608 950.414)" style="fill:#f4ebe9"/>
                        <path data-name="패스 16805" d="M344.664 177.768a1.363 1.363 0 0 1-.346.324l-14.968-8.642a2.638 2.638 0 0 1 .56-.2z" transform="translate(-215.483 950.875)" style="fill:#f4ebe9"/>
                    </g>
                    <g data-name="그룹 2534">
                        <path data-name="패스 16806" d="M323.782 186.355v.187l-5.836-3.37a1.547 1.547 0 0 0-1.39.058l-1.147.662h-.517v.551a.407.407 0 0 0 .237.354l6.01 3.47a1.547 1.547 0 0 0 1.39-.058l1.325-.765a.559.559 0 0 0 .335-.459v-.6z" transform="translate(-209.974 945.623)" style="fill:#4d403d"/>
                        <path data-name="패스 16807" d="m321.141 187.318-6.01-3.47c-.356-.206-.311-.564.1-.8l1.324-.765a1.547 1.547 0 0 1 1.39-.058l6.01 3.47c.356.206.311.565-.1.8l-1.325.765a1.548 1.548 0 0 1-1.389.058z" transform="translate(-209.974 945.985)" style="fill:#dbc6c0"/>
                        <path data-name="패스 16808" d="m321.472 187.084-4.436-2.561c-.263-.152-.23-.417.074-.592l.977-.565a1.142 1.142 0 0 1 1.026-.043l4.436 2.561c.263.152.23.417-.074.592l-.977.564a1.14 1.14 0 0 1-1.026.044z" transform="translate(-210.724 945.552)" style="fill:#fff"/>
                    </g>
                </g>
                <g data-name="그룹 2536">
                    <path data-name="패스 16809" d="M319.312 63.8a7.778 7.778 0 0 0-.585 1.606q-.974 3.4-2.241 6.7a9.841 9.841 0 0 0-.651 2.148 3.056 3.056 0 0 0 .422 2.157 1.013 1.013 0 0 0 .743.489 1.222 1.222 0 0 0 .892-.55 15.305 15.305 0 0 0 1.763-2.751c1.5-2.84 2.655-5.989 2.417-9.191a2.611 2.611 0 0 0-.326-1.232c-.754-1.176-1.958-.252-2.434.624z" transform="translate(-210.32 991.503)" style="fill:#ffb78c"/>
                    <path data-name="패스 16810" d="M315.456 65.488c-.293-.67-.741-1.292-1.068-1.941a49.2 49.2 0 0 1-2.217-5.438 3.576 3.576 0 0 1-.267-1.693 2.938 2.938 0 0 1 .287-1.1.444.444 0 0 0-.262-.628c-.354-.1-.417.231-.5.48a2.057 2.057 0 0 1-.086-.672l-.063-3.678a4.975 4.975 0 0 0-.046-.718 2.524 2.524 0 0 0-.163-.564.873.873 0 0 0-.2-.308.38.38 0 0 0-.338-.1c-.209.052-.291.3-.319.517-.115.875.073 1.773-.087 2.641a.857.857 0 0 1-.227.478c-.144.114-.39.056-.552.027-.295-.051-.8-.117-.983.17a1.513 1.513 0 0 0-.165.915c0 .041.006.081.009.121a13.758 13.758 0 0 0 .535 2.839 11.862 11.862 0 0 0 .651 1.219 4.956 4.956 0 0 1 .314 1.387c.124 1.1.22 2.185.328 3.286.063.631.137 1.261.236 1.889a14 14 0 0 0 2.37 6.238 2.462 2.462 0 0 0 .7.694 1.007 1.007 0 0 0 .951.07 1.462 1.462 0 0 0 .483-.49 5.689 5.689 0 0 0 .758-1.2 6.135 6.135 0 0 0 .334-1.485 6.285 6.285 0 0 0-.279-2.578 2.42 2.42 0 0 0-.134-.378z" transform="translate(-207.425 996.647)" style="fill:#ffb78c"/>
                    <path data-name="패스 16811" d="M306.819 54.663a.807.807 0 0 0-.067.428 3.949 3.949 0 0 0 .28 1.086 5.1 5.1 0 0 0 .491 1.067.516.516 0 0 0 .246.228.162.162 0 0 0 .1 0 .193.193 0 0 0 .071-.051.959.959 0 0 0 .145-.761c.031.03.08-.009.1-.045a1.988 1.988 0 0 0 .272-.911c.03-.319.023-.641.064-.958a.1.1 0 0 1 .034-.077.123.123 0 0 1 .075-.012.441.441 0 0 0 .4-.417.987.987 0 0 0-.188-.6.821.821 0 0 0-.42-.382.621.621 0 0 0-.633.23 1.333 1.333 0 0 0-.251.659c-.025.17-.024.339-.038.508-.133-.041-.18-.188-.334-.207a.368.368 0 0 0-.347.215z" transform="translate(-206.872 995.075)" style="fill:#ffe5cc"/>
                    <path data-name="패스 16812" d="M312.129 49.844a.774.774 0 0 0 .089.407c.07.123.162.233.239.352a2.006 2.006 0 0 1 .249.6 3.562 3.562 0 0 1 .029.706q.028.74.128 1.475c.155-.261.349-.5.518-.748a1.78 1.78 0 0 0 .347-.848 1.955 1.955 0 0 0-.163-.862 4.083 4.083 0 0 0-.173-.391.587.587 0 0 0-.115-.165c-.062-.057-.143-.088-.209-.139-.16-.126-.181-.326-.286-.487a.478.478 0 0 0-.423-.206.31.31 0 0 0-.23.306z" transform="translate(-208.921 996.491)" style="fill:#ffe5cc"/>
                    <path data-name="패스 16813" d="M331.578 147.057a4.725 4.725 0 0 0-.406-1.1 7.687 7.687 0 0 1-.571-2.993 14.759 14.759 0 0 1 .116-3.5c.2-1.051.494-2.129.675-3.2.435-2.574-.184-5.218-.474-7.774-.378-3.321-1.177-6.588-1.51-9.906-.41-4.093-1.388-8.31-4.023-11.468a6.681 6.681 0 0 0-2.458-1.967c-.479-.2-1.147-.054-1.559-.382-.27-.215-.678-.959-.495-1.3-1.838 3.472-1.685 7.86-1.064 11.624a30.4 30.4 0 0 0 .708 3.174c.75 2.7 1.819 5.294 2.626 7.972a70.286 70.286 0 0 1 1.973 8.392c.28 1.633 1.6 9.176 1.48 10.03a3.916 3.916 0 0 1-1 2.256 7.809 7.809 0 0 1-1.819 1.292 16.352 16.352 0 0 0-1.629.809 2.59 2.59 0 0 0-.919 1.237 2.627 2.627 0 0 0-.106 1.32c.074.421.311.579.7.755a3.884 3.884 0 0 0 2.694.177 4.091 4.091 0 0 0 2.18-1.6 3.815 3.815 0 0 1 .852-1.086 2.582 2.582 0 0 1 1.1-.348c.448-.069.9-.134 1.336-.246a3.254 3.254 0 0 0 1.336-.633 1.551 1.551 0 0 0 .257-1.535z" transform="translate(-211.687 975.942)" style="fill:#f6948d"/>
                    <path data-name="패스 16814" d="M342.506 117.825c.013-.122.025-.244.036-.367a35.789 35.789 0 0 0-.025-5.554 9.889 9.889 0 0 0-.933-4.291 10.574 10.574 0 0 1-5.776 4.515c-.87.275-2.113.405-2.8 1.065a3.951 3.951 0 0 0-.894 2.393 41.15 41.15 0 0 0 .758 11.263c.248 1.434.525 2.863.8 4.292.548 2.815 1.831 5.416 2.3 8.253a61.76 61.76 0 0 1 .2 7.05 6.811 6.811 0 0 1-.979 3.7 33.139 33.139 0 0 1-2.65 3.047 34.26 34.26 0 0 0-1.5 1.689c-.594.725-.82 1.524.139 2.015a2.721 2.721 0 0 0 1.1.24 7.457 7.457 0 0 0 3.917-.784 5.318 5.318 0 0 0 2.588-2.978 1.582 1.582 0 0 1 .173-.42c.227-.331.685-.395 1-.638a2.033 2.033 0 0 0 .711-1.545 3.467 3.467 0 0 0-.305-1.731c-.418-1.086.1-2.337.327-3.4l.857-4a11.825 11.825 0 0 0 .391-3.634 15.823 15.823 0 0 0-1.2-3.879c-1.353-3.624-.032-7.765.844-11.341a37.575 37.575 0 0 0 .921-4.96z" transform="translate(-215.936 974.36)" style="fill:#feb9b8"/>
                    <path data-name="패스 16815" d="M319.988 64.882a9.738 9.738 0 0 1-.433 4.087c-.442 1.211-1.451 2.216-1.558 3.546a5.407 5.407 0 0 0 .891 2.866 8.881 8.881 0 0 1 .928 2.8 19.8 19.8 0 0 1 .527 3.908 13.138 13.138 0 0 1-.655 3.861 1.941 1.941 0 0 0-.152.811 1.806 1.806 0 0 0 .233.621c.971 1.846 2.084 3.829 4.01 4.631a6.876 6.876 0 0 0 3.935.2 14.144 14.144 0 0 0 8.447-5.22.96.96 0 0 0 .24-.491.989.989 0 0 0-.121-.465l-1.88-4.221a2.362 2.362 0 0 1-.217-1.969l1.676-7.136a33.026 33.026 0 0 1 .821-3.365c.4-1.148.816-2.293 1.225-3.439a4.152 4.152 0 0 0 .232-1.286c.023-.456.219-.887-.093-1.3a1.634 1.634 0 0 0-.458-.373c-1.531-.967-3.063-1.934-4.637-2.83a96.568 96.568 0 0 0-3.07-1.661 5.468 5.468 0 0 0-2.836-.943 5.557 5.557 0 0 0-2.308.728 10.905 10.905 0 0 0-1.843 1.188 13.2 13.2 0 0 0-1.557 1.72 4.33 4.33 0 0 0-1.118 1.544 6.028 6.028 0 0 0-.229 2.188z" transform="translate(-211.154 993.451)" style="fill:#ffe5cc"/>
                    <path data-name="패스 16816" d="M320.839 104.36a4.783 4.783 0 0 1-.072-2.063c-.019.1-.173.246-.225.34a2.776 2.776 0 0 0-.166.36 3.612 3.612 0 0 0-.188.765c-.274 1.928.656 3.5 1.8 4.975q.532.686 1.1 1.348a68.2 68.2 0 0 0 4.912 5.036 2.3 2.3 0 0 1 .453-1.692 7.547 7.547 0 0 1 1.253-1.226 30.367 30.367 0 0 1 2.267-1.727 21.669 21.669 0 0 1 5.676-2.756.481.481 0 0 1 .669.209 7.732 7.732 0 0 0-.364-2.732 11.73 11.73 0 0 0-.437-1.316 21.264 21.264 0 0 0-.264-.645c-.043-.1-.266-.454-.238-.553a6.75 6.75 0 0 1-2.766 3.292 15.5 15.5 0 0 1-5.948 2.878 5.928 5.928 0 0 1-2.562.137 6.461 6.461 0 0 1-4.9-4.63z" transform="translate(-211.974 976.386)" style="fill:#b38e57"/>
                    <path data-name="패스 16817" d="M323.454 78.706a4.46 4.46 0 0 1 .12 1.273 5.226 5.226 0 0 1-.321 1.8 2.8 2.8 0 0 1-1.141 1.4l1.476.218a2.947 2.947 0 0 1 .621.139 1.371 1.371 0 0 1-.243-.423 3.653 3.653 0 0 1 1.289-4.336 2.441 2.441 0 0 1 .581-.313 2.7 2.7 0 0 0-1.954 1.118 2.77 2.77 0 0 0-.277-1.32 1.637 1.637 0 0 0-1.015-.848 2.723 2.723 0 0 1 .864 1.292z" transform="translate(-212.726 985.865)" style="fill:#ffb78c"/>
                    <path data-name="패스 16818" d="M317.884 45.3a5.67 5.67 0 0 0-.753.449 5.883 5.883 0 0 0-2.3 3.391 8.656 8.656 0 0 0 .566 5.047 8.288 8.288 0 0 0 .672 1.414 10.375 10.375 0 0 0 .969 1.268q.689.806 1.4 1.6c.34.38 1.02.888 1.185 1.359.937-.95 1.78-1.986 2.654-2.992q.99-1.137 1.955-2.3c.165-.2.306-.409.473-.607a.213.213 0 0 0 .063-.2 12.354 12.354 0 0 0-.448-2.046c-.188-.744-.337-1.5-.5-2.248a20.483 20.483 0 0 0-.85-3.1 2.069 2.069 0 0 0-1.875-1.624 5.894 5.894 0 0 0-3.211.589z" transform="translate(-209.887 998.34)" style="fill:#e06641"/>
                    <path data-name="패스 16819" d="M329.187 63.835a.926.926 0 0 0 .736.188 4.688 4.688 0 0 0 1.859-.557 11.558 11.558 0 0 0 2.287-1.556 6.35 6.35 0 0 0 1.63-2.217 1.492 1.492 0 0 0 .08-1.251c-.244-.462-.825-.6-1.3-.815a5.683 5.683 0 0 1-2.076-1.973 2.26 2.26 0 0 0-.413-.471.66.66 0 0 0-1.086.278 6.31 6.31 0 0 0-.231 1.691 4.25 4.25 0 0 1-.531 1.658 10.854 10.854 0 0 1-.852 1.095 1.839 1.839 0 0 0-.4 2.151c.118.176.321.35.344.575.038.376-.335.8-.075 1.163a.408.408 0 0 0 .028.041z" transform="translate(-215.224 994.406)" style="fill:#ffb78c"/>
                    <path data-name="패스 16820" d="M319.8 67.771a10.887 10.887 0 0 0-1.433 2.373 5.881 5.881 0 0 0-.431 2.923 8.522 8.522 0 0 0 .926 2.724 4.737 4.737 0 0 0 .6 1.1c.277.3.345.111.532-.126a2.939 2.939 0 0 1 .516-.525 1.433 1.433 0 0 1 1.253-.295 2.5 2.5 0 0 1 .9.647 7.291 7.291 0 0 0 5.987 1.829c.878-.137 1.728-.436 2.612-.529a6.9 6.9 0 0 1 1.764.059c.29.045.578.1.863.172.146.035.291.073.436.113.041.011.137.059.176.041a2.377 2.377 0 0 0 .192-1.008c-.019.1-.067.2-.169.216a1.854 1.854 0 0 1-.37-.014 3.748 3.748 0 0 1-.7-.123 3.936 3.936 0 0 1-1.275-.613 3.639 3.639 0 0 1-.946-1.009 6.506 6.506 0 0 1-.712-1.857 23.924 23.924 0 0 1-.733-6.045 11.579 11.579 0 0 1 .3-2.928 22.568 22.568 0 0 0 .61-3.258 6.06 6.06 0 0 0-.1-2.408 7 7 0 0 0-1.456-2.337 20.451 20.451 0 0 1-1.341 11.093 19 19 0 0 1-3.448 5.434c-.319.35-.654.652-.963 1.01a2.564 2.564 0 0 1-1.126.844.675.675 0 0 1-.4.012.955.955 0 0 1-.3-.186 4.908 4.908 0 0 1-1.719-2.445c-.615-2.3.782-4.865 1.876-6.8.578-1.021 1.129-2.019 1.6-3.091a39.433 39.433 0 0 0-2.512 3.62c-.309.475-.664.929-1.009 1.387z" transform="translate(-211.122 993.685)" style="fill:#b38e57"/>
                    <path data-name="패스 16821" d="M326.088 55.093a7.214 7.214 0 0 0-.2-.9c-.064-.216-.264-.5-.016-.66a2.525 2.525 0 0 0 .9-1.779 7.494 7.494 0 0 0-.4-4.559 6.235 6.235 0 0 0-2.262-2.427 6.836 6.836 0 0 0-5.867-.4 5.294 5.294 0 0 0-.808.42 5.564 5.564 0 0 0-1.88 2.051 8.6 8.6 0 0 0-.466 1.225 6.99 6.99 0 0 0-.116 3.848 8.714 8.714 0 0 0 .594 1.724 3.47 3.47 0 0 0 .9 1.437c.355.231.862.215 1.132.542a1.356 1.356 0 0 1 .219.758 13.663 13.663 0 0 0 .219 1.494.912.912 0 0 0 .1.3.723.723 0 0 0 .925.15 2.146 2.146 0 0 1 .445-.21.359.359 0 0 1 .42.17c.02.05.022.106.044.155.068.157.276.178.442.222.431.115.734.52 1.159.659a1.688 1.688 0 0 0 1.121-.117 6.919 6.919 0 0 0 3.058-2.69 2.064 2.064 0 0 0 .358-.744 1.937 1.937 0 0 0-.021-.669z" transform="translate(-209.922 998.638)" style="fill:#ffe5cc"/>
                    <path data-name="패스 16822" d="M325.96 64.217a.845.845 0 1 1-.719-.955.845.845 0 0 1 .719.955z" transform="translate(-213.551 991.262)" style="fill:#ff8c8c"/>
                    <path data-name="패스 16823" d="M320.895 60.927c.183-.1.367-.2.558-.28a3.728 3.728 0 0 1 .557-.188 3.947 3.947 0 0 1 1.263-.109 17.21 17.21 0 0 0-2.083.85 2.982 2.982 0 0 1-.883.357c-.086.013-.249.01-.255-.113 0-.087.108-.11.171-.144.225-.122.446-.251.672-.373z" transform="translate(-211.941 992.372)" style="fill:#e06641"/>
                    <path data-name="패스 16824" d="M316.465 60.461a2.03 2.03 0 0 0 .812.749.928.928 0 0 0 .36.11.072.072 0 0 0 .047-.009c.033-.024.012-.074-.012-.106a6.492 6.492 0 0 0-.575-.656 2.908 2.908 0 0 0-.519-.461.187.187 0 0 0-.127-.04c-.17.033-.032.34.014.413z" transform="translate(-210.537 992.484)" style="fill:#e06641"/>
                    <path data-name="패스 16825" d="M322.582 40.025a8.329 8.329 0 0 0-4.726.921 6.63 6.63 0 0 0-2.972 3.195 7.676 7.676 0 0 0-.5 3.527c.077.933.129 2.167 1.143 2.589a2.845 2.845 0 0 0 1.369.207c1.25-.125 2.345-1.071 3.6-1.023a2.375 2.375 0 0 1 1.849 1.03 6.5 6.5 0 0 0 .667 1.045 2.167 2.167 0 0 0 1.572.507 4.6 4.6 0 0 1-.35-1.087 2.955 2.955 0 0 1-.059-1.162 1.59 1.59 0 0 1 1.2-1.406.6.6 0 0 1 .36.041.592.592 0 0 1 .216.212 1.706 1.706 0 0 1 .145 1.324 13.671 13.671 0 0 1-.468 1.287 7.172 7.172 0 0 0-.28 3.2 18.209 18.209 0 0 0 .54 2.6c.1.376.221.74.334 1.112.035.118.46 1.123.425 1.158.933-.951 1.788-1.994 2.662-3q.99-1.137 1.955-2.3c.165-.2.306-.409.473-.607a.274.274 0 0 0 .054-.081.281.281 0 0 0 .009-.12 12.368 12.368 0 0 0-.448-2.046c-.187-.744-.337-1.5-.5-2.248a15.374 15.374 0 0 0-1.415-4.321 10.053 10.053 0 0 0-1.575-2.088A7.762 7.762 0 0 0 325.6 40.8a9.012 9.012 0 0 0-3.018-.775z" transform="translate(-209.771 1000.125)" style="fill:#e06641"/>
                    <path data-name="패스 16826" d="M348.444 68.407a6.1 6.1 0 0 0-2.535-2.758 2.952 2.952 0 0 0-3.188.8 5.918 5.918 0 0 0-1.606 3.352c-.277 1.49-.636 5.172 1.908 4.489a24.786 24.786 0 0 1 .9 2.67l.917 2.756a20.593 20.593 0 0 0 1.567 3.825 6.9 6.9 0 0 0 2.9 2.865 1.855 1.855 0 0 0 .847.22 1.53 1.53 0 0 0 1.163-.733 4.539 4.539 0 0 0 .522-1.323 9.319 9.319 0 0 0 .348-1.619 10.831 10.831 0 0 0-1.006-4.535 35.869 35.869 0 0 1-1.32-4.715 22.325 22.325 0 0 0-1.417-5.294z" transform="translate(-219.892 990.432)" style="fill:#ffb78c"/>
                    <path data-name="패스 16827" d="M352.809 64.351a1.826 1.826 0 0 0 .038-.371 2.227 2.227 0 0 0-.064-.428 11.633 11.633 0 0 0-.241-.974 4.675 4.675 0 0 1-.321-1.274.662.662 0 0 1 .1-.412.589.589 0 0 1 .339-.2.483.483 0 0 1 .275 0 .434.434 0 0 1 .237.257 1.721 1.721 0 0 1 .077.351 17.476 17.476 0 0 0 .594 1.91 2.518 2.518 0 0 1 .118.792 3.207 3.207 0 0 1-.1.6 12.373 12.373 0 0 1-.474 1.674.942.942 0 0 1-.19.334.661.661 0 0 1-.74.085.546.546 0 0 1-.264-.24c-.161-.331.14-.67.264-.954a5.321 5.321 0 0 0 .352-1.15z" transform="translate(-224.171 992.246)" style="fill:#ffb78c"/>
                    <path data-name="패스 16828" d="M353.7 79.681c-.25-1.286-.684-2.528-1.024-3.793a33.585 33.585 0 0 1-.857-3.481 2.225 2.225 0 0 1-.035-.528 2.96 2.96 0 0 1 .242-.814 4.4 4.4 0 0 0 .394-2.09 2.364 2.364 0 0 0-1.008-1.424c-.144-.115-.161-.267-.282-.4-.338-.366-1-.349-1.242-.784a1.163 1.163 0 0 1 .008-.876 15.279 15.279 0 0 1 .782-2.116 3.909 3.909 0 0 0 .443-1.322.29.29 0 0 0-.022-.159c-.083-.155-.321-.076-.46.033a4.683 4.683 0 0 0-1.411 2.053 18.389 18.389 0 0 0-.653 2.433 3.335 3.335 0 0 1-.6 1.443.446.446 0 0 1-.437.2c-.17-.054-.228-.26-.275-.432a3.112 3.112 0 0 0-1.313-1.779.5.5 0 0 0-.36-.105.363.363 0 0 0-.249.346 1.007 1.007 0 0 0 .115.439 19.08 19.08 0 0 1 1.083 2.614 14.432 14.432 0 0 0 .485 1.89 2.163 2.163 0 0 0 .787.981 1.7 1.7 0 0 0 .46.214 17.144 17.144 0 0 1 .4 1.816 16.837 16.837 0 0 1 .213 4.228 9.8 9.8 0 0 0-.01 3.869 6.392 6.392 0 0 0 1.736 2.459 2.237 2.237 0 0 0 .821.588 1.471 1.471 0 0 0 1.395-.345 2.833 2.833 0 0 0 .765-1.274 7.778 7.778 0 0 0 .109-3.884z" transform="translate(-221.576 991.812)" style="fill:#ffe5cc"/>
                    <path data-name="패스 16829" d="M352.045 68.445a1.892 1.892 0 0 0-.546.781 4.972 4.972 0 0 1-.477.79 3.173 3.173 0 0 0-.74 1.265.232.232 0 0 0 0 .109c.028.087.138.116.23.118a1.421 1.421 0 0 0 .954-.386 3.5 3.5 0 0 0 .642-.83c.138-.229.323-.494.59-.484a.189.189 0 0 1 .186.121c.02.088-.058.166-.132.219a3.7 3.7 0 0 0-.949.7 1.988 1.988 0 0 0-.21.408 6.214 6.214 0 0 0-.489 1.508c-.018.132 0 .312.136.332a.261.261 0 0 0 .178-.062 3.932 3.932 0 0 0 .982-.949c.092-.126.2-.27.35-.285.185-.019.325.152.48.254a.745.745 0 0 0 .891-.072.891.891 0 0 0 .193-.928 1.626 1.626 0 0 0-.863-.879 3.442 3.442 0 0 0-.267-1.427.816.816 0 0 0-.652-.4.668.668 0 0 0-.487.097z" transform="translate(-223.457 989.327)" style="fill:#ffb78c"/>
                    <path data-name="패스 16830" d="M326.738 106.352a.632.632 0 0 0-.058.156.109.109 0 0 0 .165.124.45.45 0 0 0 .173-.222 1.285 1.285 0 0 0 .179-.636c-.017-.22-.318-.865-.534-.441-.179.352.23.65.075 1.019z" transform="translate(-214.442 975.282)" style="fill:#ffb78c"/>
                </g>
            </g>
            <g data-name="그룹 2541">
                <path data-name="패스 16831" d="M92.208 730.828c-.35-4.876-1.132-9.674-1.626-14.529l-.513-5.041-.154-1.512a1.261 1.261 0 0 0-.253-.764 1.484 1.484 0 0 0-.4-.258 8.184 8.184 0 0 1-3-3.592L84.7 702.28a4.311 4.311 0 0 0-1.495-1.733 1.73 1.73 0 0 1-.639-.628c-.106-.172-.259-.915-.372-.99s-.214.07-.258.185a26.681 26.681 0 0 0-1.559 11.486 32.412 32.412 0 0 0 .994 6.3c.926 3.065 2.305 5.819 2.993 8.965.458 2.1 1.155 4.33 1.553 6.433q.461 2.439.779 4.9c.107.829.464 4.14.534 4.97a.366.366 0 0 0 .025.125c.071.157.59.3.748.362a4.894 4.894 0 0 0 2.717.13 3.28 3.28 0 0 0 1.111-.38.424.424 0 0 0 .146-.129.476.476 0 0 0 .031-.308c-.092-.751.684-7.489.666-8.271s-.41-2.097-.466-2.869z" transform="translate(27.245 377.109)" style="fill:#a955b2"/>
                <path data-name="패스 16832" d="M102.422 733.334c-.236-1.2-.7-2.338-1.052-3.508-.68-2.262.234-4.641.292-6.966.06-2.409.763-4.823 1.067-7.216l.018-.148q.032-.26.061-.519a36.715 36.715 0 0 0-.259-9.882c-.256-1.572-1.284-3.143-1.96-4.594.3.608-.819 1.2-1.21 1.463a11.336 11.336 0 0 1-5.859 1.936 10.7 10.7 0 0 1-1.373-.032c-.565-.05-1.125-.143-1.69-.186a6.923 6.923 0 0 1-1.95-.07 3.348 3.348 0 0 1-1.309-1.3 16.884 16.884 0 0 0-.134 3.937 7.483 7.483 0 0 0 .788 2.673 4.249 4.249 0 0 0 1.762 1.617 2.989 2.989 0 0 1 .786.587 2.532 2.532 0 0 1 .425 1.255 108.485 108.485 0 0 0 3.947 16.762 30.259 30.259 0 0 1 1.023 4.639c.356 2.275.389 11.706.42 12.4a.935.935 0 0 0 .033.245.855.855 0 0 0 .429.43 4.873 4.873 0 0 0 4.49.141c.009-.669.767-6.221.984-7.385a16.751 16.751 0 0 0 .271-6.279z" transform="translate(23.649 376.527)" style="fill:#c16dca"/>
            </g>
        </g>
    </g>
</svg>
