<svg xmlns="http://www.w3.org/2000/svg" width="48" height="48" viewBox="0 0 48 48">
    <defs>
        <linearGradient id="x2peobemza" x1=".373" y1=".185" x2=".891" y2=".754" gradientUnits="objectBoundingBox">
            <stop offset="0" stop-color="#ffc567"/>
            <stop offset="1" stop-color="#ffb652"/>
        </linearGradient>
        <linearGradient id="sis7hk3qlb" x1=".505" y1="-.29" x2=".5" y2="1" gradientUnits="objectBoundingBox">
            <stop offset="0" stop-color="#e37a00"/>
            <stop offset="1" stop-color="#ffa252"/>
        </linearGradient>
        <linearGradient id="svwiua544c" x1=".5" x2=".5" y2="1" gradientUnits="objectBoundingBox">
            <stop offset="0" stop-color="#ffc567"/>
            <stop offset="1" stop-color="#feba57"/>
        </linearGradient>
    </defs>
    <g data-name="Object / v3_ic_48_fill_take_medicine_bell">
        <path data-name="사각형 782" style="fill:transparent" d="M0 0h48v48H0z"/>
        <g data-name="im02_돈보낼때" transform="translate(5.466 -10.759)">
            <path data-name="패스 15233" d="M77.553 21.683a1.755 1.755 0 0 1-.737-2.37l1.373-2.613a1.755 1.755 0 1 1 3.111 1.631l-1.374 2.615a1.755 1.755 0 0 1-2.373.737z" transform="translate(-49.344)" style="fill:#fc9f4b;fill-rule:evenodd"/>
            <path data-name="패스 15234" d="M34.938 47.523c-.062-.275-.18-.764-.21-.851-.644-1.771.98-4.854 1.853-6.507l2.254-4.289c3.122-5.941.192-13.269-5.994-16.52s-13.7-1.411-16.823 4.53L13.8 28.113c-.826 1.54-2.543 4.745-4.425 5.235-.091.023-.25.048-.422.074a4.191 4.191 0 0 0-2.513 1.667l-.694 1.047 28.667 15.469.525-1.581a6.89 6.89 0 0 0 0-2.501z" transform="translate(-3.38 -1.301)" style="fill:url(#x2peobemza)"/>
            <ellipse data-name="타원 258" cx="16.286" cy="3.695" rx="16.286" ry="3.695" transform="rotate(28.57 -60.262 23.847)" style="fill:url(#sis7hk3qlb)"/>
            <circle data-name="타원 259" cx="3.756" cy="3.756" r="3.756" transform="translate(11.353 41.38)" style="fill:url(#svwiua544c)"/>
        </g>
    </g>
</svg>
