<svg xmlns="http://www.w3.org/2000/svg" width="24" height="24" viewBox="0 0 24 24">
    <path data-name="사각형 776" style="fill:transparent" d="M0 0h24v24H0z"/>
    <g data-name="Group 814428" transform="translate(2.09 1.274)">
        <rect data-name="사각형 779" width="15" height="17" rx="1" transform="translate(.91 1.727)" style="fill:#c0dffd"/>
        <path data-name="패스 15164" d="M16.517 7.182H7.209a.846.846 0 0 0-.846.846v9.308a.846.846 0 0 0 .846.846h9.308a.846.846 0 0 0 .846-.846V8.028a.846.846 0 0 0-.846-.846z" transform="translate(-3.453 -4.455)" style="fill:#fff"/>
        <path data-name="패스 15167" d="M9.637 1.727h5" transform="translate(-3.727 1)" style="stroke:#0f49a4;stroke-linecap:round;stroke-miterlimit:10;fill:none;stroke-width:2px"/>
        <path data-name="빼기 5" d="M-7569.091-11599.274a.746.746 0 0 1-.744-.585.744.744 0 0 0-.163-.319.773.773 0 0 0-.29-.209.784.784 0 0 0-.288-.057.433.433 0 0 0-.062 0 .783.783 0 0 0-.34.109.763.763 0 0 1-.4.116.792.792 0 0 1-.673-.4.743.743 0 0 1 .019-.768.783.783 0 0 0 .109-.34.724.724 0 0 0-.057-.351.7.7 0 0 0-.209-.289.735.735 0 0 0-.316-.162.747.747 0 0 1-.584-.745.746.746 0 0 1 .584-.744.8.8 0 0 0 .316-.163.728.728 0 0 0 .209-.289.732.732 0 0 0 .057-.354.737.737 0 0 0-.109-.34.742.742 0 0 1-.02-.766.791.791 0 0 1 .674-.4.753.753 0 0 1 .4.117.766.766 0 0 0 .4.112.767.767 0 0 0 .746-.588.748.748 0 0 1 .744-.584.748.748 0 0 1 .744.584.809.809 0 0 0 .163.319.832.832 0 0 0 .29.21.738.738 0 0 0 .291.059h.062a.764.764 0 0 0 .34-.11.754.754 0 0 1 .4-.117.787.787 0 0 1 .672.4.744.744 0 0 1-.021.766.789.789 0 0 0-.11.34.807.807 0 0 0 .057.354.793.793 0 0 0 .21.289.823.823 0 0 0 .316.163.748.748 0 0 1 .587.744.749.749 0 0 1-.587.745.758.758 0 0 0-.316.162.734.734 0 0 0-.21.289.738.738 0 0 0-.057.351.764.764 0 0 0 .11.34.743.743 0 0 1 .021.768.789.789 0 0 1-.672.4.763.763 0 0 1-.4-.116.783.783 0 0 0-.34-.109.426.426 0 0 0-.062 0 .739.739 0 0 0-.291.06.771.771 0 0 0-.29.21.779.779 0 0 0-.163.315.746.746 0 0 1-.747.583zm0-5.332a1.334 1.334 0 0 0-1.335 1.331 1.336 1.336 0 0 0 1.335 1.333 1.334 1.334 0 0 0 1.331-1.333 1.332 1.332 0 0 0-1.329-1.331z" transform="translate(7584 11620)" style="fill:#0f48a4"/>
        <g data-name="그룹 1202">
            <path data-name="선 57" transform="translate(8.41 5.729)" style="stroke:#26c8a8;fill:none;stroke-width:2px" d="M0 0v5"/>
            <path data-name="선 58" transform="rotate(90 1.341 9.569)" style="stroke:#26c8a8;fill:none;stroke-width:2px" d="M0 0v5"/>
        </g>
    </g>
</svg>
