<svg xmlns="http://www.w3.org/2000/svg" xmlns:xlink="http://www.w3.org/1999/xlink" width="48" height="48" viewBox="0 0 48 48">
    <defs>
        <linearGradient id="3v7dd660sa" x1="1" y1=".5" x2="0" y2=".5" gradientUnits="objectBoundingBox">
            <stop offset=".049" stop-color="#feb9b8"/>
            <stop offset=".992" stop-color="#fea5a4"/>
        </linearGradient>
        <linearGradient id="rk74w32brc" x1="1" y1=".5" x2="0" y2=".5" xlink:href="#3v7dd660sa"/>
        <linearGradient id="77u0ek1d1d" x1="1" y1=".5" x2="0" y2=".5" xlink:href="#3v7dd660sa"/>
        <linearGradient id="y9hpmrx42e" x1="1" y1=".5" x2="0" y2=".5" xlink:href="#3v7dd660sa"/>
        <linearGradient id="pjwpy5d2af" x1="1" y1=".5" x2="0" y2=".5" xlink:href="#3v7dd660sa"/>
        <clipPath id="1uswfpdqbb">
            <circle data-name="타원 281" cx="24" cy="24" r="24" transform="translate(92 1099)" style="fill:#398afa"/>
        </clipPath>
    </defs>
    <g data-name="Object / v3_img_48_fill_mission_run" transform="translate(-92 -1099)">
        <path data-name="사각형 782" transform="translate(92 1099)" style="fill:transparent" d="M0 0h48v48H0z"/>
        <circle data-name="타원 279" cx="24" cy="24" r="24" transform="translate(92 1099)" style="fill:#57b7d8"/>
        <g data-name="마스크 그룹 13" style="clip-path:url(#1uswfpdqbb)">
            <g data-name="그룹 1676">
                <path data-name="패스 16004" d="M2327.122 298.541a3.9 3.9 0 0 1 2.16 1.992c.481 1.167.172 2.556.708 3.7.719 1.532 2.685 2.1 3.567 3.546a3.166 3.166 0 0 1-.621 3.919c-.681.586-1.718 1.035-1.734 1.934-.02 1.226 1.9 1.676 2.084 2.889.085.567-.255 1.135-.167 1.7.124.831 1.043 1.24 1.672 1.8 1.551 1.375 1.3 4.084-.176 5.541a6.6 6.6 0 0 1-5.8 1.443c-1.7-.306-3.381-1.053-5.089-.79a16.6 16.6 0 0 0-2.467.772 10.786 10.786 0 0 1-9.008-1.4 6.4 6.4 0 0 1-2.725-3.152 3.325 3.325 0 0 1 1.084-3.793c.687-.448 1.622-.608 2.039-1.315a2.113 2.113 0 0 0-.29-2.159 14.95 14.95 0 0 1-1.317-1.876 3.014 3.014 0 0 1 1.087-3.676c1.376-.875 3.394-.559 4.5-1.761a3.977 3.977 0 0 0 .627-3.26 7.574 7.574 0 0 1-.064-3.4c.623-1.87 2.943-2.693 4.887-2.363a1.636 1.636 0 0 0 1.272-.112 4.655 4.655 0 0 1 3.771-.179z" transform="translate(-2200.658 799.498)" style="fill-rule:evenodd;fill:#61c9ec"/>
                <path data-name="패스 16005" d="M2415.4 497.2a.348.348 0 0 0-.379.315c0 .011-.122 1.11-.842 1.268a26.02 26.02 0 0 1-3.517.207l-.261-11.1-.133-5.616a2.954 2.954 0 0 0 2-.9 4.572 4.572 0 0 0 .487-2.757.348.348 0 1 0-.692.075 3.972 3.972 0 0 1-.349 2.259 2.26 2.26 0 0 1-1.465.63l-.094-4a.348.348 0 0 0-.348-.34h-.009a.349.349 0 0 0-.34.357l.235 9.985a3.213 3.213 0 0 1-2.075-.874 5.059 5.059 0 0 1-1.411-3.1.349.349 0 0 0-.7.046 5.719 5.719 0 0 0 1.653 3.585 3.885 3.885 0 0 0 2.545 1.042l.54 22.81a.348.348 0 0 0 .349.34h.009a.349.349 0 0 0 .34-.356l-.268-11.382a26.062 26.062 0 0 0 3.647-.223c1.228-.269 1.383-1.819 1.387-1.885a.347.347 0 0 0-.309-.386z" transform="translate(-2288.041 636.845)" style="fill:#31819c;fill-rule:evenodd"/>
                <path data-name="패스 16006" d="M2476.733 643.3a1.574 1.574 0 0 0-1.372.364c-.555.452-.727.867-1.148 1.007a2.952 2.952 0 0 0-1.369.5 2.594 2.594 0 0 0-.757 1.735c-.027.587.12 1.238.654 1.425a31.7 31.7 0 0 0 5.306.2c.588-.056 1.23-.252 1.4-.755a1.191 1.191 0 0 0-.111-1.259 14.056 14.056 0 0 0-1.034-1.147c-.31-.308-.477-.392-.56-.867s-.107-.622-.309-.811a1.323 1.323 0 0 0-.7-.392z" transform="translate(-2348.536 485.99)" style="fill-rule:evenodd;fill:#61c9ec"/>
                <path data-name="패스 16007" d="M2396.851 661.021c0 .008-.3 3 .205 3.221a28.835 28.835 0 0 0 4.744.156l.017.574c-.013 0-4.233.127-4.991-.2-.891-.389-.547-3.794-.547-3.8z" transform="translate(-2279.598 469.908)" style="fill:#31819c;fill-rule:evenodd"/>
                <path data-name="패스 16008" d="M2365.559 634.2c-.178-.1-.519-.38-.9-.626a2.167 2.167 0 0 0-1-.408 1.247 1.247 0 0 0-1.161.521c-.335.335-.438.851-1.005 1.109s-.824.542-.824 1.057.618 1.109 3 1.186 3.39-.052 3.879-.309a1.164 1.164 0 0 0 .49-1.341c-.462-1.662-1.66-.752-2.479-1.189z" transform="translate(-2247.298 495.17)" style="fill-rule:evenodd;fill:#61c9ec"/>
            </g>
            <g data-name="그룹 2532">
                <path data-name="패스 15392" d="M112.751 139.644s.677 1.267.788 1.169c.062-.054.206-.157.322-.241.1-.067.174-.119.174-.119s1.479-.508 1.733-.981a8.169 8.169 0 0 0 .195-2.027 24.182 24.182 0 0 0-.048-2.754c-.089-.442-.359-3.041-.359-3.041l.039-1.3s-1.772.527-1.96 1.23a5.361 5.361 0 0 0 .017 2.06c.065.181.393 2.844.393 2.943a4.08 4.08 0 0 1-.233.613l-.479 1.562z" transform="translate(-10.253 989.021)" style="fill:url(#3v7dd660sa)"/>
                <path data-name="패스 15393" d="M115.375 142.246a1.192 1.192 0 0 0 .017.413c.048.184.171.2.179.273a.906.906 0 0 0 .2.377 1.6 1.6 0 0 0 .756.056 1.361 1.361 0 0 0 .488-.16.1.1 0 0 0 .023-.019 2 2 0 0 0 .184-.4 2.636 2.636 0 0 1 .166-.229 1.092 1.092 0 0 0 .067-.192.671.671 0 0 1 .051-.141.808.808 0 0 0-.084-.227 5.097 5.097 0 0 1-.041-.082.283.283 0 0 0 .005-.05.428.428 0 0 0 0-.118.418.418 0 0 0-.081-.158.582.582 0 0 0-.038-.046 1.989 1.989 0 0 0 .111-.442.192.192 0 0 0-.012-.048 3.988 3.988 0 0 0-.258-.495c-.069-.121-.4-.179-.523-.15s-.956.334-.956.334-.315.2-.339.273a4.3 4.3 0 0 0 .023.6s-.037.232-.04.355a.591.591 0 0 0 .102.276z" transform="translate(-13.894 987.371)" style="fill:url(#rk74w32brc)"/>
                <path data-name="패스 15394" d="M112.8 141.812a.73.73 0 0 1-.013.093c.1-.067.174-.119.174-.119s1.479-.508 1.733-.981a8.17 8.17 0 0 0 .195-2.027.643.643 0 0 0-.16-.188.674.674 0 0 0-.323-.12 1.039 1.039 0 0 0-.512.054c-.188.076-.171.155-.163.343.017.417.033.833.033 1.25a2.68 2.68 0 0 1-.058.66.554.554 0 0 1-.174.31.677.677 0 0 1-.186.093l-.257.1a.123.123 0 0 1-.084.009.108.108 0 0 1-.044-.044l-.141-.2c-.12.23-.002.507-.02.767z" transform="translate(-9.177 987.689)" style="fill:#f2cbbc;mix-blend-mode:multiply;isolation:isolate"/>
                <path data-name="패스 15395" d="m114.208 139.3.043-.035c-.021.137-.078.266-.112.4a.559.559 0 0 0 .02.405c.093.17.311.242.4.413a.132.132 0 0 0 .041.056.107.107 0 0 0 .107-.021 1.334 1.334 0 0 0 .475-.593 2.92 2.92 0 0 0 .192-.744 7.348 7.348 0 0 0 .075-.918.616.616 0 0 0-.038-.265.325.325 0 0 0-.355-.168c-.158.033-.2.215-.268.345l-.58 1.125z" transform="translate(-10.867 987.794)" style="fill:#feb9b8"/>
                <path data-name="패스 15396" d="M115.336 143.335a.809.809 0 0 0 .421.076 2.285 2.285 0 0 0 .424-.081.452.452 0 0 0 .269-.143 1.369 1.369 0 0 0-.15.4.1.1 0 0 0 .023-.019 2 2 0 0 0 .184-.4 2.634 2.634 0 0 1 .166-.229 1.093 1.093 0 0 0 .067-.192c-.1.119-.2.232-.308.341a.856.856 0 0 1-.145.125.818.818 0 0 1-.468.094 1.6 1.6 0 0 0-.483.028z" transform="translate(-13.178 986.985)" style="fill:#f2cbbc;mix-blend-mode:multiply;isolation:isolate"/>
                <path data-name="패스 15397" d="M115.375 142.727a.807.807 0 0 0 .36.059 1.331 1.331 0 0 0 .628-.119 1.648 1.648 0 0 0 .42-.386 5.097 5.097 0 0 1-.041-.082.283.283 0 0 0 .005-.05 1.852 1.852 0 0 1-.534.486c-.261.107-.569.007-.838.092z" transform="translate(-13.254 987.083)" style="fill:#f2cbbc;mix-blend-mode:multiply;isolation:isolate"/>
                <path data-name="패스 15398" d="M115.428 141.79a.167.167 0 0 0 .1.069 2.042 2.042 0 0 0 .788.121.554.554 0 0 0 .118-.013.7.7 0 0 0 .145-.051 2.468 2.468 0 0 0 .408-.2.587.587 0 0 0-.038-.046 1.989 1.989 0 0 0 .111-.442.19.19 0 0 0-.012-.049.188.188 0 0 0-.005.066.5.5 0 0 1-.15.388.977.977 0 0 1-.388.189 1.385 1.385 0 0 1-.49.087c-.199-.014-.386-.109-.587-.119z" transform="translate(-13.575 987.243)" style="fill:#f2cbbc;mix-blend-mode:multiply;isolation:isolate"/>
                <path data-name="패스 15399" d="m115.8 141.014.635.216a.128.128 0 0 1 .051.026c.032.028.03.079.053.115a.132.132 0 0 0 .146.046.393.393 0 0 0 .14-.084l.11-.09a.2.2 0 0 0 .054-.059.205.205 0 0 0 .018-.087l.015-.252a.078.078 0 0 0 0-.031.066.066 0 0 0-.041-.026 1.318 1.318 0 0 0-.313-.051 1.088 1.088 0 0 0-.281 0 1.587 1.587 0 0 0-.3.14l-.145.069c-.02.01-.118.075-.142.068z" transform="translate(-13.853 987.317)" style="fill:#f2cbbc;mix-blend-mode:multiply;isolation:isolate"/>
                <path data-name="패스 15400" d="M114.324 132.789a9.552 9.552 0 0 0 .248 1.52 1.106 1.106 0 0 1 .021.318 2.372 2.372 0 0 0 .229-.858.664.664 0 0 1 .085-.359c.038-.052.092-.089.13-.141a.566.566 0 0 0 .08-.246c.069-.424.137-.848.168-1.276.013-.178-.016-.43-.244-.379a.981.981 0 0 0-.419.368 1.766 1.766 0 0 0-.298 1.053z" transform="translate(-10.88 988.854)" style="fill:#feb9b8"/>
                <path data-name="패스 15401" d="M107.446 156.175c.109 1.286 1.046 6.037 1.046 6.146s.218 2.115.2 2.464a12.49 12.49 0 0 0 .283 3.378c.393 2.332.936 5.3.936 5.819s-.631 1.4.066 1.7a1.779 1.779 0 0 0 1.471-.262 1.456 1.456 0 0 0 .6-.565 5.472 5.472 0 0 0 .021-1.679c0-.305.284-4.99.306-5.775a22.887 22.887 0 0 0-.262-2.7 7.7 7.7 0 0 1 .043-1.177s.178-2.638.22-4.1c.024-.882.3-2.36.508-3.852.1-.716.19-1.435.229-2.094.016-.243.023-.479.023-.7s-.009-.43-.028-.653a16.855 16.855 0 0 0-.364-2.283l-.051-.227v-.017c-.251-1.069-.512-1.876-.512-1.876l-4.121 1.133-.115.033-.059.016a12.212 12.212 0 0 1-.262 2.546 10.086 10.086 0 0 0-.213 2.05 25.637 25.637 0 0 0 .035 2.675z" transform="translate(-2.932 986.169)" style="fill:url(#77u0ek1d1d)"/>
                <path data-name="패스 15402" d="M110.767 163.976a.7.7 0 0 0 .669.181c.956-.283 1.177-2.162 1.337-2.951a14.854 14.854 0 0 0 .262-3.956 9.906 9.906 0 0 0-.208-1.5c-.269-1.182-.83-2.282-1.095-3.465a3.145 3.145 0 0 0-.214-.733 2.6 2.6 0 0 0-.8-.833c-.165-.125-.379-.257-.564-.162a.561.561 0 0 0-.225.431 29.479 29.479 0 0 0-.44 3.421 26.531 26.531 0 0 0 .278 5.18c.118.848.261 1.692.411 2.534a3.512 3.512 0 0 0 .589 1.853z" transform="translate(-4.59 985.709)" style="fill:#feb9b8"/>
                <path data-name="패스 15403" d="M108.475 155.195a5.479 5.479 0 0 1 .256 2.321 54.645 54.645 0 0 1-.415 5.894 8.324 8.324 0 0 0-.144 1.683 9.965 9.965 0 0 0 .186 1.2c.105.573.171 1.151.238 1.73a12.706 12.706 0 0 1-.111 2.233 69.078 69.078 0 0 1-.438 5.1.576.576 0 0 0 0 .239.428.428 0 0 0 .144.2 1.456 1.456 0 0 0 .6-.565 5.472 5.472 0 0 0 .021-1.679c0-.305.284-4.99.306-5.775a22.89 22.89 0 0 0-.262-2.7 7.7 7.7 0 0 1 .043-1.177s.178-2.638.22-4.1.761-4.556.761-6.648a15.113 15.113 0 0 0-.447-3.18 5.218 5.218 0 0 0-1.484 1.046 2.481 2.481 0 0 0-.243 2.817c.229.466.566.878.769 1.361z" transform="translate(.319 985.801)" style="fill:#f2cbbc;mix-blend-mode:multiply;isolation:isolate"/>
                <path data-name="패스 15404" d="M94.283 149.648v.018a14.309 14.309 0 0 0 .645 2.27c.152.422.338.894.564 1.4q.087.2.183.4c.25.536.531 1.092.822 1.638 1.037 1.941 2.2 3.775 2.49 4.267l.945 1.617s2.223 3.771 2.681 4.338a8.048 8.048 0 0 1 .893 1.7s-.043 1.59.522 1.962a1.514 1.514 0 0 0 1.876-.9 5.24 5.24 0 0 0-.349-1.72 4.538 4.538 0 0 1-.7-.9 25.117 25.117 0 0 0-.883-3.672c-.469-1.057-1.729-3.4-1.935-3.741a3.2 3.2 0 0 1-.317-.838s.176-4.146.054-5.141c0-.029-.007-.057-.01-.08-.141-.828-.741-2.789-.785-2.91-.02-.058-.212-.507-.423-.981a24.05 24.05 0 0 0-.381-.818 1.637 1.637 0 0 0-.183-.315c-.145-.13-1.628-.861-2.1-.609s-2.55 2.064-2.55 2.064a6.8 6.8 0 0 0-.836.711c-.126.148-.223.24-.223.24z" transform="translate(15.244 986.353)" style="fill:url(#77u0ek1d1d)"/>
                <path data-name="패스 15405" d="M104.482 153.757c-.143-1.107-.352-2.206-.569-3.3-.015-.074-.043-.164-.119-.18a.2.2 0 0 0-.134.041 9.909 9.909 0 0 0-2.708 2.087 2.536 2.536 0 0 0-.642 1.469 3.136 3.136 0 0 0 .093.751 19 19 0 0 0 1.435 4.213 3.152 3.152 0 0 0 1.332 1.609c1.259.593 1.468-1.311 1.527-2.167a23.009 23.009 0 0 0-.215-4.523z" transform="translate(11.385 985.75)" style="fill:#feb9b8"/>
                <path data-name="패스 15406" d="M100.611 137.067a2.353 2.353 0 0 0 .9 1.9c.216.655.44 1.316.59 1.989a12.592 12.592 0 0 1 0 4.02 6.6 6.6 0 0 0-.043.751v.139a3.056 3.056 0 0 0 .421 1.581 7.789 7.789 0 0 0 1.9 1.263 18.55 18.55 0 0 0 2.546 1.7 5.723 5.723 0 0 0 .86.097s.183-.337.336-.577a6.057 6.057 0 0 1 .7-.741l1.481-1.089 1.853-1.439a12.321 12.321 0 0 0 .7-1.1.665.665 0 0 0 .064-.163 3.035 3.035 0 0 0-.308-.774 56.35 56.35 0 0 0-1.006-1.945c-.018-.033-.03-.058-.038-.07a14.111 14.111 0 0 1-.719-2.834 10.151 10.151 0 0 1 .611-3.639 5.338 5.338 0 0 0 .288-1.424 11.681 11.681 0 0 0-.2-3.655 7.266 7.266 0 0 0-1.125-.662 12.2 12.2 0 0 0-2.187-.927 4.833 4.833 0 0 0-.711-.111 14.815 14.815 0 0 0-1.992-.02s-2.244.523-2.659.654a1.385 1.385 0 0 0-1.068.981 33.565 33.565 0 0 0-1.194 6.095z" transform="translate(2.946 989.192)" style="fill:#ff5e8e"/>
                <g data-name="그룹 1453">
                    <path data-name="패스 15407" d="m103.454 146.417.24-.1a35.773 35.773 0 0 1-1.469-4.335 11.3 11.3 0 0 1 .151-5.417l-.229-.125a11.376 11.376 0 0 0-.175 5.61 36.26 36.26 0 0 0 1.482 4.367z" transform="translate(11.274 988.021)" style="fill:#fff"/>
                </g>
                <path data-name="패스 15408" d="M106.958 143.233a2.358 2.358 0 0 0-.339 1.615c.029.452.092.9.154 1.351l.257 1.854a.995.995 0 0 0 .294.657 1.9 1.9 0 0 0 .442.429 1.741 1.741 0 0 0 .736.2 9.442 9.442 0 0 0 1.705.031c.284-.02.619-.09.728-.354a.8.8 0 0 0 .04-.319l-.011-1.268a26.913 26.913 0 0 0-.325-4.764.449.449 0 0 0-.053-.164c-.176-.28-.667-.122-.924-.092-.368.043-.736.08-1.1.13 0 0 .059.007.03 0a2.048 2.048 0 0 0-1.634.694z" transform="translate(-.118 987.052)" style="fill:#ff5e8e"/>
                <path data-name="패스 15409" d="M99.229 153.481c.718.078 1.47.9 2.594 1.32a18.307 18.307 0 0 0 2.882.755c.1-.715.19-1.435.229-2.094.319.043.56.049.56.049q.087.2.183.4c.25.536.531 1.092.822 1.638a2.26 2.26 0 0 0 1.029-.067c.852-.293 3.648-1.117 4.25-2.952 0-.029-.007-.057-.01-.08a19.5 19.5 0 0 0-.675-2.828c-.1-.307-.184-.594-.375-1.085-.03-.089-.105-.275-.135-.339s-.081-.189-.267-.576l-.137.119a8.92 8.92 0 0 1-5.614 2.077c-.094.005-.188.01-.281.013h-.1a7.224 7.224 0 0 1-4.3-1 1.2 1.2 0 0 1-.117-.106v.139l-.059.016a12.212 12.212 0 0 1-.262 2.546 10.087 10.087 0 0 0-.217 2.055z" transform="translate(5.246 986.184)" style="fill:#902251"/>
                <g data-name="그룹 1454">
                    <path data-name="패스 15410" d="m101.19 153.494.26-.024a21.032 21.032 0 0 0-1.561-5.355l-.228.127a21.148 21.148 0 0 1 1.529 5.252z" transform="translate(15.215 986.104)" style="fill:#fff"/>
                </g>
                <path data-name="패스 15411" d="M103.654 135.6c.13.344.538 1.1 2.106 1.226a4.088 4.088 0 0 0 3.124-.7c.8-.572 1.552-2.763 2.027-4.016a3.673 3.673 0 0 1 1.147-1.708 12.2 12.2 0 0 0-2.187-.927 4.824 4.824 0 0 0-.711-.111l-3.562.5a4.916 4.916 0 0 0-1.307.536c-.327.273-.441 1.1-.539 1.708a18.36 18.36 0 0 0-.098 3.492z" transform="translate(1.313 989.183)" style="fill:url(#77u0ek1d1d)"/>
                <path data-name="패스 15412" d="M102.254 136.668a2.808 2.808 0 0 1 .061 1.142c-.013.049-.025.1-.035.148a3.381 3.381 0 0 0-.076.956 14.8 14.8 0 0 0 .37 1.718 8.462 8.462 0 0 1 .1.9 9.038 9.038 0 0 1-.253 3.862 13.1 13.1 0 0 0 1.373-1.755c-.018-.033-.03-.058-.038-.07a14.109 14.109 0 0 1-.719-2.834 10.152 10.152 0 0 1 .611-3.639 5.337 5.337 0 0 0 .288-1.424 4.876 4.876 0 0 0-.318-.521.652.652 0 0 0-.419.089.588.588 0 0 0-.144.191c-.141.259-.22.625-.545.7a1.278 1.278 0 0 1-.5-.025.884.884 0 0 1 .244.562z" transform="translate(10.76 988.233)" style="fill:#f2cbbc;mix-blend-mode:multiply;isolation:isolate"/>
                <path data-name="패스 15413" d="M97.226 133.522a6.558 6.558 0 0 0 .415 1.826c.189.522.369.9.369.9s.675 1.006.985 1.366a8.651 8.651 0 0 1 1.079 1.536 5.471 5.471 0 0 0 .266.715c.012.026.024.054.038.081.176.374.408.746.653.806a2.5 2.5 0 0 0 1.619-.639c.163-.211.522-.425.5-.85a.706.706 0 0 0-.009-.079 7.044 7.044 0 0 0-.67-1.661 18.981 18.981 0 0 1-1.006-2.264 9.942 9.942 0 0 0-1.4-2.788 4.938 4.938 0 0 0-1.315-1.248.812.812 0 0 0-.742.252 3.1 3.1 0 0 0-.782 2.047z" transform="translate(15.55 988.879)" style="fill:url(#77u0ek1d1d)"/>
                <path data-name="패스 15414" d="M97.1 145.123a.475.475 0 0 0 .065.167.668.668 0 0 0 .06.089l.094-.048.007-.006.1-.049a1.535 1.535 0 0 0 .033.442.151.151 0 0 0 .041.043.541.541 0 0 0 .2.071s-.009.056-.015.125a.525.525 0 0 0 .01.234c.044.071.115.174.115.174l.15.055.059.022.02.068.068.242.422.225a5.5 5.5 0 0 0 1.044.032l.079-.03c.227-.089.689-.287.689-.287l1.194-.86a21.011 21.011 0 0 0 2.708-2.005c.731-.748 1.508-1.322 1.58-2 0-.024 0-.048.005-.073a2.381 2.381 0 0 0-.1-1.009c-.008.018-.868.191-.868.191s-.228 0-.513.028a3.813 3.813 0 0 0-.808.135 1.229 1.229 0 0 0-.41.221.769.769 0 0 0-.167.191 6.906 6.906 0 0 1-2.522 2.835.2.2 0 0 1-.047.017.451.451 0 0 1-.217.007l-.03-.007-.5-.18-.457-.223-.588-.143-.546.171a2.792 2.792 0 0 0-.6.244.865.865 0 0 0-.074.3v.022s-.084.137-.158.281a.745.745 0 0 0-.123.288z" transform="translate(12.978 987.315)" style="fill:url(#77u0ek1d1d)"/>
                <path data-name="패스 15415" d="M106.448 127.911a9.645 9.645 0 0 1 .915 2.659c.033.283.73.633.73.633l1.657-.36s1.46-.665 1.678-1.286a1.137 1.137 0 0 0-.163-1.07s-.676-.293-.785-.576a6.278 6.278 0 0 1-.131-1.94 6.681 6.681 0 0 0-.262-1.754l-1.351-.37z" transform="translate(-.505 990.088)" style="fill:url(#3v7dd660sa)"/>
                <path data-name="패스 15416" d="M107.073 183.206a.426.426 0 0 0 .008.106 2.067 2.067 0 0 0 .163.588 2.184 2.184 0 0 0 1.087.433 2.965 2.965 0 0 0 2.009-.924c.312-.491.377-.973.523-1.094a5.609 5.609 0 0 1 .621-.532 5.27 5.27 0 0 0 1.267-.629 1.573 1.573 0 0 0 .516-.777.928.928 0 0 0 .016-.481 6.292 6.292 0 0 0-.328-.605.807.807 0 0 0-.177-.089l-.319-1.16-.464-.354-.018.407.062 1.091a2.929 2.929 0 0 1-.5.04c-.222-.008-.483.335-.483.335l-.432.213-.695-.237-.11-.567s-.471.411-.5.542a14.375 14.375 0 0 1-.8 1.464 8.1 8.1 0 0 0-1.054 1.046 2.588 2.588 0 0 0-.392 1.184z" transform="translate(-2.842 981.25)" style="fill:#fff4ff"/>
                <path data-name="패스 15417" d="M110.544 178.57c-.016.041.7.131 1.03.278a.934.934 0 0 1 .45.49l-.155.327-1.038 1.39a5.612 5.612 0 0 1-.686.1l-.4-.161.242-.794.256-1.053z" transform="translate(-3.787 981.106)" style="fill:#ff5e8e"/>
                <path data-name="패스 15418" d="M95.493 176.387a2.826 2.826 0 0 1-1.482-.022c-.447-.186-.491-.883-.491-.883l.043-.187.186-.8s-.088-.894-.088-.97-.3-1.449-.3-1.449l.033-.568.178-.119.031.429.08.473.3.471.588.13.686-.535.1-.762.2-.73-.125-.642-.315-.377-.157-.235s.169-.018.339-.023a.954.954 0 0 1 .3.023 4.145 4.145 0 0 1 .621.612l.131 1.154-.131.469.164 1.306a5.663 5.663 0 0 1 .359 1.581c.101 1.021-1.119 1.577-1.25 1.654z" transform="translate(25.19 982.58)" style="fill:#fff4ff"/>
                <path data-name="패스 15419" d="M95.33 176.387a2.826 2.826 0 0 1-1.482-.022c-.447-.186-.491-.883-.491-.883l.043-.187c0 .034.074.552.311.695s.368.2.368.2a1.057 1.057 0 0 1 .335-.155 2.159 2.159 0 0 1 .556.048.68.68 0 0 0 .081.108 3.805 3.805 0 0 0 .932-.573 2 2 0 0 0 .4-.785 7.431 7.431 0 0 0-.2-1.177 7.055 7.055 0 0 1-.155-1.079l-.106-1.046.018-.744-.254-.531a1.621 1.621 0 0 0-.563-.674.954.954 0 0 1 .3.023 4.144 4.144 0 0 1 .621.612l.131 1.154-.131.469.164 1.306a5.664 5.664 0 0 1 .359 1.581c.114 1.027-1.106 1.583-1.237 1.66z" transform="translate(25.353 982.58)" style="fill:#ff5e8e"/>
                <path data-name="패스 15420" d="M107.073 183.5a.426.426 0 0 0 .008.106 2.067 2.067 0 0 0 .163.588 2.184 2.184 0 0 0 1.087.433 2.965 2.965 0 0 0 2.009-.924c.312-.491.377-.973.523-1.094a5.608 5.608 0 0 1 .621-.532 5.268 5.268 0 0 0 1.267-.629 1.574 1.574 0 0 0 .516-.777.928.928 0 0 0 .016-.482 6.3 6.3 0 0 0-.328-.605.809.809 0 0 0-.177-.089c.009.018.216.389.121.6a1.9 1.9 0 0 1-.614.777c-.359.277-1.128.752-1.259.924a15.411 15.411 0 0 0-.838 1.413 1.973 1.973 0 0 1-.6.616 3.089 3.089 0 0 1-.718.4 1.458 1.458 0 0 1-.367.088c-.195.018-.4.1-.558-.049-.029-.026-.048-.085-.076-.1l-.4-.27s-.2.033-.253-.017a1.849 1.849 0 0 1-.143-.377z" transform="translate(-2.842 980.953)" style="fill:#ff5e8e"/>
                <path data-name="패스 15421" d="M103.289 132.963a9.644 9.644 0 0 0-.593 2.482c.022.828.648 1.575 1.076.831a11.83 11.83 0 0 0 .755-2.708z" transform="translate(9.6 988.591)" style="fill:url(#y9hpmrx42e)"/>
                <path data-name="패스 15422" d="M112.044 168.813a8.393 8.393 0 0 0-.58-3.038.93.93 0 0 0-.474-.541c-.387-.135-.769.228-.949.6a4.612 4.612 0 0 0-.311 2.3c.053.94.176 1.873.3 2.806q.2 1.532.407 3.064l.2 1.532a4.751 4.751 0 0 0 .232 1.466c.238.441.646.3.777-.125a8.416 8.416 0 0 0 .2-1.516q.169-1.508.222-3.026.068-1.765-.024-3.522z" transform="translate(-3.837 983.299)" style="fill:#feb9b8"/>
                <path data-name="패스 15423" d="M100.713 165.537a15.615 15.615 0 0 0-.924-3.265 4.214 4.214 0 0 0-.629-.559l-.888-.69a6.051 6.051 0 0 0-1.6-.995.541.541 0 0 0-.318-.042c-.249.064-.3.389-.305.647a2.968 2.968 0 0 0 .215 1.36 5.952 5.952 0 0 0 .409.917c.174.237.313.5.474.743a22.79 22.79 0 0 0 1.845 3.174c1.024.888 1.052 2.462 1.693 3.606.055.1.131.207.245.217a.252.252 0 0 0 .236-.171.732.732 0 0 0 .029-.308 20.739 20.739 0 0 0-.482-4.634z" transform="translate(18.48 984.158)" style="fill:#feb9b8"/>
                <path data-name="패스 15424" d="M110.45 130.235a1.337 1.337 0 0 0-.067.364 9.582 9.582 0 0 0-.053.927.486.486 0 0 1-.079.339.778.778 0 0 1-.124-.2 9.89 9.89 0 0 1-.561-1.538 3.138 3.138 0 0 1-.152-.736 1.105 1.105 0 0 1 .188-.714 1.538 1.538 0 0 1 .8-.475 1.386 1.386 0 0 1 .786-.081c.313.089.369.3.364.6a1.228 1.228 0 0 1-.6.97 1.37 1.37 0 0 0-.502.544z" transform="translate(-3.043 989.39)" style="fill:#f2cbbc;mix-blend-mode:multiply;isolation:isolate"/>
                <path data-name="패스 15425" d="M111.108 135.536a3.6 3.6 0 0 0 .038.537 1.314 1.314 0 0 0 .19.6 1.408 1.408 0 0 0 .649.425 3.055 3.055 0 0 0 1.038.281.228.228 0 0 0 .165-.041.224.224 0 0 0 .053-.107 2.376 2.376 0 0 0 .043-.777 2.336 2.336 0 0 0-.115-.68 2.47 2.47 0 0 0-.186-.369 3.071 3.071 0 0 0-.3-.448 2.771 2.771 0 0 0-.385-.355c-.229-.182-.641-.4-.928-.19-.123.091-.14.3-.172.44a3.326 3.326 0 0 0-.09.684z" transform="translate(-6.199 988.368)" style="fill:#feb9b8"/>
                <path data-name="패스 15426" d="M108.643 134.627c-.064.024-.129.056-.208.09a3.617 3.617 0 0 0-1 .6 3.2 3.2 0 0 0-.744 1.052c-.083.178-.155.36-.22.545a.39.39 0 0 0-.038.257 3.013 3.013 0 0 0 .109.308 3.085 3.085 0 0 1 .707-.111 2.078 2.078 0 0 0 .625-.174c.184-.077.345-.206.536-.268a.817.817 0 0 0 .453-.384q.32-.469.594-.966a1.393 1.393 0 0 0 .232-.729.226.226 0 0 0-.1-.2c-.016-.008-.036-.014-.041-.031s.028-.03.028-.012l-.665-.019a.659.659 0 0 0-.268.042z" transform="translate(1.33 988.325)" style="fill:#feb9b8"/>
                <path data-name="패스 15427" d="M98.716 136.161c.189.522.369.9.369.9s.675 1.006.985 1.366a8.649 8.649 0 0 1 1.079 1.536 5.477 5.477 0 0 0 .266.715 1.571 1.571 0 0 1 .2-.109 11.66 11.66 0 0 1 1.219-.357c.045-.014.091-.03.135-.047l-1.169.005a.29.29 0 0 1-.143-.024.294.294 0 0 1-.1-.108c-.463-.714-1.115-1.3-1.54-2.035-.1-.168-.181-.343-.294-.5-.19-.264-.433-.477-.6-.76-.107-.209-.186-.46-.407-.582z" transform="translate(14.475 988.066)" style="fill:#f2cbbc;mix-blend-mode:multiply;isolation:isolate"/>
                <path data-name="패스 15428" d="M105.656 147.541h-.023l.059.022.02.068.659.043z" transform="translate(5.302 986.199)" style="fill:#f2cbbc;mix-blend-mode:multiply;isolation:isolate"/>
                <path data-name="패스 15429" d="M106.812 147.627c0 .008.012.017.013.008z" transform="translate(3.866 986.184)" style="fill:#f2cbbc;mix-blend-mode:multiply;isolation:isolate"/>
                <path data-name="패스 15430" d="M105.753 146.747a.54.54 0 0 0 .2.071s-.009.056-.015.125a1.281 1.281 0 0 1 .223-.017 3.414 3.414 0 0 0 .692-.034.272.272 0 0 0-.227-.092z" transform="translate(4.72 986.329)" style="fill:#f2cbbc;mix-blend-mode:multiply;isolation:isolate"/>
                <path data-name="패스 15431" d="M105.4 145.961a.669.669 0 0 0 .06.089l.094-.048.007-.006a.61.61 0 0 1 .1-.049.871.871 0 0 1 .323-.039 4.7 4.7 0 0 0 .853-.121.057.057 0 0 0 .014-.005.027.027 0 0 0 0-.043.075.075 0 0 0-.048-.011c-.308.008-.614.064-.919.048a.3.3 0 0 1-.171-.048.276.276 0 0 1-.055-.3.4.4 0 0 1 .069-.141.514.514 0 0 1 .2-.125 1.664 1.664 0 0 1 .3-.1 1.768 1.768 0 0 1 .2-.028l.375-.035c.069-.007.278.009.314-.053.088-.151-.491-.106-.563-.1a1.144 1.144 0 0 0-.276.03 1.249 1.249 0 0 0-.2.082l-.257.125a.987.987 0 0 0-.2.118l-.014.012a.49.49 0 0 0-.156.269.233.233 0 0 0-.005.033 2.1 2.1 0 0 1-.029.429z" transform="translate(4.742 986.644)" style="fill:#f2cbbc;mix-blend-mode:multiply;isolation:isolate"/>
                <path data-name="패스 15432" d="M97.193 145.079a.849.849 0 0 1 .09.66.572.572 0 0 0-.03.144.473.473 0 0 0 .044.166 1.679 1.679 0 0 1 .124.554 1.219 1.219 0 0 0 .077.587c.227-.089.689-.287.689-.287l1.194-.86a21.01 21.01 0 0 0 2.708-2.005c.731-.748 1.508-1.321 1.58-2a1.8 1.8 0 0 1-.274.447 12.115 12.115 0 0 1-1.882 1.911l-.753.578c-.153.118-.306.236-.47.338-.289.18-.607.312-.889.5a6.621 6.621 0 0 1-.728.5c-.169.083-.237.12-.338-.052a.737.737 0 0 1-.124-.406 1.5 1.5 0 0 1 .079-.321 1.4 1.4 0 0 0 .014-.709 1.3 1.3 0 0 0-.072-.252.452.452 0 0 1-.217.007.172.172 0 0 1-.047.028.889.889 0 0 1-.274.037 1.8 1.8 0 0 0-.445.085.225.225 0 0 0-.12.074c-.055.086.013.19.064.276z" transform="translate(15.127 987.102)" style="fill:#f2cbbc;mix-blend-mode:multiply;isolation:isolate"/>
                <path data-name="패스 15433" d="M100.991 141.382a1.6 1.6 0 0 0-.506.113 1.309 1.309 0 0 0-.513.454 7.592 7.592 0 0 1-.9 1.274l-.808.758c-.213.2-.489.39-.436.723.027.169.11.422.3.461a.531.531 0 0 0 .407-.161l1.669-1.316c.476-.376.955-.753 1.4-1.166.214-.2.93-.883.39-1.121a2.255 2.255 0 0 0-1.003-.019z" transform="translate(16.016 987.217)" style="fill:#feb9b8"/>
                <path data-name="패스 15434" d="M99.034 131.854a.557.557 0 0 0-.165-.094.445.445 0 0 0-.22.005 1.316 1.316 0 0 0-.909 1.1 3.059 3.059 0 0 0 .219 1.481 2.074 2.074 0 0 0 .415.77 4.237 4.237 0 0 1 .536.508c.14.21.166.479.3.694a2.584 2.584 0 0 0 .362.4 7.369 7.369 0 0 1 .884 1.43 5.268 5.268 0 0 0 .878 1.115.929.929 0 0 0 .343.237 1.023 1.023 0 0 0 .459.008l.621-.083a.3.3 0 0 0 .233-.109.279.279 0 0 0 0-.214 4.808 4.808 0 0 0-.433-.917 22.176 22.176 0 0 1-1.456-3.237 8.749 8.749 0 0 0-.579-1.413 3.618 3.618 0 0 0-.334-.49c-.115-.141-.194-.291-.3-.436a3.883 3.883 0 0 0-.854-.755z" transform="translate(15.277 988.79)" style="fill:#feb9b8"/>
                <path data-name="패스 15435" d="M106.145 130.22a.931.931 0 0 0-.444.139 1.109 1.109 0 0 0-.283.346l-.388.631a.333.333 0 0 0-.07.283 2.341 2.341 0 0 0 .833-.07l1.237-.257a.817.817 0 0 0 .558-.283.65.65 0 0 0 .057-.5c-.06-.152-.232-.168-.394-.209a3.082 3.082 0 0 0-1.106-.08z" transform="translate(4.574 989.045)" style="fill:#feb9b8"/>
                <path data-name="패스 15436" d="M106.588 133a.621.621 0 0 0-.261.167.864.864 0 0 0-.115.325 5.133 5.133 0 0 1-.47.926 2.232 2.232 0 0 0-.232.945.3.3 0 0 0 .031.164.231.231 0 0 0 .124.087 1.186 1.186 0 0 0 .8-.167 5.294 5.294 0 0 0 1.361-.506 2.234 2.234 0 0 0 .468-.551 4.78 4.78 0 0 0 .86-1.847c.04-.249-.181-.232-.344-.184-.229.069-.465.107-.7.16a9.208 9.208 0 0 0-1.522.481z" transform="translate(2.618 988.696)" style="fill:#feb9b8"/>
                <path data-name="패스 15437" d="M107.977 124.482v.179c0 .1 0 .174.008.224a12.57 12.57 0 0 0 .153 1.492c.065.176 1.22 2.366 1.22 2.366a1.38 1.38 0 0 0 .153.043 1.931 1.931 0 0 0 .795.023 7.466 7.466 0 0 0 2.5-1.526 5.392 5.392 0 0 0 .335-1.55c0-.038.008-.074.013-.113v-.007c.035-.3.062-.568.079-.749l.02-.234-.85-2.5s-2.147-.609-2.92-.272a2.4 2.4 0 0 0-1.428 1.46 5.876 5.876 0 0 0-.078 1.164z" transform="translate(-3.54 990.431)" style="fill:url(#pjwpy5d2af)"/>
                <path data-name="패스 15438" d="M108.422 122.461c.25.218 1.177.5 1.329.665s.7.665.911.676a.527.527 0 0 1 .266.054 3.138 3.138 0 0 0 .262.708 9.555 9.555 0 0 0 .621.795l.011-.718.305-.175.207.011-.307 1 .02 1.09.106.69.163.242.356.354.513.069a4.457 4.457 0 0 0-.186-.6c-.055-.076-.4-.872-.4-.872l.294-.359.011-.676a6.063 6.063 0 0 0 .164-1.22 3.65 3.65 0 0 0-.164-1.668 2.744 2.744 0 0 0-1.155-1.962 3.586 3.586 0 0 0-1.754-.316 2.424 2.424 0 0 0-1.4.088 4.227 4.227 0 0 0-1.678 1.428 3.2 3.2 0 0 0-.468 1.133c0 .142.184 1.331.184 1.331l.078-1.167s.2-.4.392-.469a4.317 4.317 0 0 1 .774-.087z" transform="translate(-2.195 990.688)" style="fill:#5b362a"/>
                <path data-name="패스 15439" d="M107.41 126.474a1.347 1.347 0 0 0 .468-.773c.11-.534.012-.687-.12-.763s-.349.13-.349.13-.141.291-.207.483-.221.7-.221.7.024.385.112.4.317-.177.317-.177z" transform="translate(2.619 989.911)" style="fill:#feb9b8"/>
                <path data-name="패스 15440" d="M112.448 125.234c0 .1.005.174.008.224a12.571 12.571 0 0 0 .153 1.492c.065.176 1.22 2.366 1.22 2.366a1.372 1.372 0 0 0 .153.043 1.744 1.744 0 0 1-.2-.638c-.009-.181.028-.4-.115-.511-.033-.026-.074-.044-.093-.082a.2.2 0 0 1-.009-.09l.02-.264a.1.1 0 0 0-.008-.065.089.089 0 0 0-.04-.034 2.031 2.031 0 0 0-.319-.1.291.291 0 0 1-.218-.228.38.38 0 0 1 .018-.11l.264-.957a1.431 1.431 0 0 0 .065-.787.111.111 0 0 0-.032-.056.119.119 0 0 0-.051-.02q-.4-.088-.792-.181z" transform="translate(-8.006 989.86)" style="fill:#f2cbbc;mix-blend-mode:multiply;isolation:isolate"/>
                <path data-name="패스 15441" d="M95.6 174.339c.033.065.425.185.425.185l.664-.185.1-.349s.031-1.8-.011-1.9a1.68 1.68 0 0 1-.065-.349l-.269-.1-.843.294-.632-.124-.011.429.556 1.352z" transform="translate(23.797 982.242)" style="fill:#ff5e8e"/>
            </g>
        </g>
    </g>
</svg>
