<svg xmlns="http://www.w3.org/2000/svg" width="24" height="24" viewBox="0 0 24 24">
    <path data-name="사각형 763" style="fill:transparent" d="M0 0h24v24H0z"/>
    <g data-name="그룹 1048">
        <path d="M4.761.045A4.444 4.444 0 0 0 .316 4.489v7.778a4.444 4.444 0 0 0 4.444 4.444h11.112l2.667 2a1.111 1.111 0 0 0 1.778-.889V4.489A4.444 4.444 0 0 0 15.872.045z" transform="translate(1.684 2.955)" style="fill:#398afa"/>
        <path d="M7.518 0C6.309 0 5.628.98 5.1 1.571 4.574.98 3.893 0 2.684 0A2.377 2.377 0 0 0 .268 2.541c0 1.746 1.643 3.169 4.132 5.331l.7.605.7-.61C8.291 5.71 9.956 4.174 9.956 2.541A2.277 2.277 0 0 0 7.518 0z" transform="translate(7.269 7.357)" style="fill:#fff"/>
    </g>
</svg>
